<svg xmlns="http://www.w3.org/2000/svg" version="1.1" xmlns:xlink="http://www.w3.org/1999/xlink" xmlns:svgjs="http://svgjs.dev/svgjs" width="1440" height="560" preserveAspectRatio="none" viewBox="0 0 1440 560"><g mask="url(&quot;#SvgjsMask1003&quot;)" fill="none"><path d="M-17.85 449.05C135.39 447.58 349.51 286.37 573.24 286.65 796.97 286.93 768.65 548.88 868.78 570.58" stroke="rgba(51,121,194,0.58)" stroke-width="2"></path><path d="M-137.71 234.44C-11.36 237.71 77.74 411.28 332.89 419.24 588.05 427.2 674.63 625.7 803.5 630.47" stroke="rgba(51,121,194,0.58)" stroke-width="2"></path><path d="M-256.38 371.69C-74.82 376.57 155.22 637.61 418.58 640.49 681.94 643.37 671.5 662.94 756.06 662.95" stroke="rgba(51,121,194,0.58)" stroke-width="2"></path><path d="M-15.57 434.04C88.15 426.84 158.07 225.06 345.01 226.84 531.95 228.62 575.4 594.04 705.59 631.84" stroke="rgba(51,121,194,0.58)" stroke-width="2"></path><path d="M-88.15 159.28C10.58 159.56 106.18 229.28 300.51 229.28 494.84 229.28 468.55 146.04 689.17 159.28 909.79 172.52 930.33 597.87 1077.83 650.37" stroke="rgba(51,121,194,0.58)" stroke-width="2"></path></g><defs><mask id="SvgjsMask1003"><rect width="1440" height="560" fill="#ffffff"></rect></mask></defs></svg>