<svg xmlns="http://www.w3.org/2000/svg" version="1.1" xmlns:xlink="http://www.w3.org/1999/xlink" xmlns:svgjs="http://svgjs.dev/svgjs" width="1440" height="560" preserveAspectRatio="none" viewBox="0 0 1440 560">
    <g mask="url(&quot;#SvgjsMask1021&quot;)" fill="none">
        <path d="M720 753.25C837.91 750.59 917.98 644.79 1000.64 560.64 1082.17 477.64 1181.21 396.28 1184.92 280 1188.69 161.54 1105.02 62.57 1019.13-19.13 935.87-98.35 834.85-165.88 720-162.34 607.77-158.87 515.29-83.43 438.79-1.21 365.62 77.43 310.71 172.63 308.4 280 306.05 389.62 354.53 490.8 426.48 573.52 504.75 663.52 600.76 755.93 720 753.25" fill="rgba(5, 47, 74, 1)"></path>
        <path d="M720 586.22C796.3 584.5 848.11 516.04 901.59 461.59 954.34 407.89 1018.43 355.24 1020.83 280 1023.27 203.35 969.13 139.31 913.56 86.44 859.68 35.18 794.32-8.51 720-6.22 647.38-3.98 587.54 44.84 538.04 98.04 490.69 148.92 455.16 210.52 453.67 280 452.15 350.93 483.52 416.4 530.07 469.93 580.72 528.16 642.85 587.96 720 586.22" fill="rgba(2, 74, 112, 1)"></path>
        <path d="M720 419.19C754.68 418.41 778.23 387.29 802.54 362.54 826.52 338.13 855.65 314.2 856.74 280 857.85 245.16 833.24 216.05 807.98 192.02 783.49 168.72 753.78 148.86 720 149.9 686.99 150.92 659.79 173.11 637.29 197.29 615.77 220.42 599.62 248.42 598.94 280 598.25 312.24 612.51 342 633.67 366.33 656.69 392.8 684.93 419.98 720 419.19" fill="rgba(0, 89, 138, 1)"></path>
    </g>
    <defs>
        <mask id="SvgjsMask1021">
            <rect width="1440" height="560" fill="#ffffff"></rect>
        </mask>
    </defs>
</svg>