<svg width="1620" height="1620" viewBox="0 0 1620 1620" fill="none" xmlns="http://www.w3.org/2000/svg">
<mask id="mask0_105_18" style="mask-type:alpha" maskUnits="userSpaceOnUse" x="0" y="0" width="1620" height="1620">
<rect width="1620" height="1620" rx="810" fill="url(#paint0_linear_105_18)"/>
</mask>
<g mask="url(#mask0_105_18)">
<rect x="-205" y="-68" width="2071" height="1771" fill="url(#paint1_linear_105_18)"/>
<path d="M750 72.5C895.666 72.5 988.198 127.7 1123 72.5C1164.74 55.4095 1179.32 22.6143 1224 16.5C1328.19 2.2439 1372.52 119.977 1398 222C1426.78 337.252 1422.5 477.333 1314.5 514.5C1206.5 551.667 987.7 621.1 976.5 601.5C976.5 601.5 674.833 551.667 531 539C387.167 526.333 431.905 691.22 342.5 762C252.877 832.953 195.099 881.775 81.5 894.5C-16.4184 905.468 -166 845.5 -166 845.5C-166 845.5 -140.522 677.21 -72 601.5C27.0843 492.022 184.802 597.107 290.5 494C373.835 412.707 412.5 222 412.5 222C412.5 222 604.334 72.5 750 72.5Z" fill="#EFE9C7"/>
<path d="M179 434.5C123.5 452 95.5 751.5 95.5 751.5L-134.5 891L-44 1431L1471.5 1591V1378.5C1471.5 1378.5 1344 1049 1304 1061.5C1264 1074 1178.5 1291.5 1178.5 1291.5C1178.5 1291.5 1115 932 1081 856C1047 780 903.5 1061.5 903.5 1061.5C903.5 1061.5 808 719 778 732.5C748 746 691 1030 691 1030C691 1030 636.5 553.5 604 563.5C571.5 573.5 548.25 732.5 548.25 732.5C548.25 732.5 519 469.912 492.5 459C466 448.088 433 960.5 433 960.5C433 960.5 384.5 535.5 339 619C293.5 702.5 273 918.5 273 918.5C273 918.5 234.5 417 179 434.5Z" fill="#ECD8C9"/>
<path d="M1172 1042L1233.5 991.5L1297 1042H1473V1216H1172V1042Z" fill="#EAB6AB"/>
<rect x="1217" y="1060" width="31" height="44" fill="#CA906F"/>
<path d="M1232.5 971H1416H1435.5V945H1444.5V971L1490 1043.5H1296L1232.5 994L1173.5 1043.5H1152L1232.5 971Z" fill="#923737"/>
<rect x="1411" y="945" width="25" height="26" fill="#EF7878"/>
<path d="M123.002 737.5C66.4734 737.042 46.6181 781.653 -1.99815 810.5C-36.2691 830.835 -57.8165 838.828 -89.4981 863C-345.056 1057.98 67.5018 1671 67.5018 1671C544.669 1671 1500.4 1666.8 1506 1650C1511.6 1633.2 1548 1427.33 1565.5 1326.5C1565.5 1326.5 1419.91 1294.41 1328.5 1267C1210.64 1231.66 1129.96 1234.11 1032.5 1159C954.218 1098.67 963.171 1006.13 875.502 960.5C776.603 909.021 691.693 1006.22 590.002 960.5C499.706 919.905 511.503 779.288 412.502 779.5C345.459 779.644 329.327 868.398 262.502 863C189.46 857.1 196.279 738.094 123.002 737.5Z" fill="#DF8585"/>
<path d="M121.006 810.004C64.4773 809.545 44.622 854.157 -3.99425 883.004C-38.2652 903.338 -59.8126 911.332 -91.4942 935.504C-347.052 1130.48 65.5058 1743.5 65.5058 1743.5C542.672 1743.5 1498.41 1739.3 1504.01 1722.5C1509.61 1705.7 1546.01 1499.84 1563.51 1399C1563.51 1399 1417.91 1366.91 1326.51 1339.5C1208.64 1304.16 1127.97 1306.62 1030.51 1231.5C952.222 1171.17 961.175 1078.64 873.506 1033C774.607 981.524 689.696 1078.72 588.006 1033C497.709 992.409 509.507 851.792 410.506 852.003C343.463 852.147 327.331 940.901 260.506 935.504C187.464 929.604 194.283 810.597 121.006 810.004Z" fill="#C47575"/>
<path d="M605.5 1049C358.062 952.399 -63 923.5 -63 923.5L70.5 1424.5L1333.5 1529.5C1333.5 1529.5 1198.8 1411.43 1106.5 1343.5C923.717 1208.97 816.912 1131.54 605.5 1049Z" fill="#EBA58F"/>
<path d="M1296 1041H1473V1216H1296V1128.5V1061.5L1233 1008L1172.5 1061.5V1041L1233 992L1296 1041Z" fill="#DD9E7B"/>
<path d="M1506 886.5L1440.5 944H1412C1412 944 1515.43 884.367 1493 837C1476.07 801.243 1436.32 812.49 1399.5 798C1262.2 743.96 1027.64 833.65 1038.5 686.5C1045.97 585.266 1139.28 558.935 1226.5 507C1340.84 438.913 1557.5 426 1557.5 426L1619 548C1619 548 1547.13 589.066 1498 608.5C1406.93 644.524 1177.49 599.633 1253 662C1285.48 688.825 1315.25 683.218 1354.5 698.5C1441.54 732.386 1588.48 706.06 1572 798C1564.4 840.438 1506 886.5 1506 886.5Z" fill="#F9F7E1"/>
<path d="M922 1219.5C1182.29 1181.74 1595.5 1219.5 1595.5 1219.5L1438.5 1680L25 1607.5C25 1607.5 113.505 1510.59 179 1458.5C417.557 1268.78 620.356 1263.26 922 1219.5Z" fill="#DF7386"/>
<path d="M175.5 949.5L99.5 941C99.5 941 145.359 1048.67 195.5 1102C252.637 1162.78 321.781 1153.18 375.5 1217C404.096 1250.97 434 1314.5 434 1314.5L513.5 1287C513.5 1287 474.812 1202.2 434 1160.5C383.074 1108.47 327.739 1114.5 273 1066.5C228.283 1027.28 175.5 949.5 175.5 949.5Z" fill="#CE9088"/>
<path d="M316 971L232 958.5C232 958.5 281.445 1004.28 316 1030C352.844 1057.43 377.131 1067.51 415 1093.5C484.426 1141.15 508.061 1192.42 585.5 1225.5C620.897 1240.62 680 1253.5 680 1253.5L762.5 1242C762.5 1242 670.914 1212.55 617 1183.5C537.366 1140.59 509.479 1091.35 434 1041.5C389.209 1011.91 316 971 316 971Z" fill="#CE9088"/>
<path d="M591 1108.5C554.777 1079.53 513.5 1018.5 513.5 1018.5L629.5 1058C629.5 1058 669.225 1086.64 696.5 1102C750.494 1132.41 793.192 1125.02 844 1160.5C874.587 1181.86 914 1225.5 914 1225.5L835.5 1234C835.5 1234 766.001 1194.49 720.5 1171C670.603 1145.24 634.855 1143.57 591 1108.5Z" fill="#CE9088"/>
<path d="M121.5 1150C67.9188 1088.93 15.5 971 15.5 971L-13.5 1001.5L57.5 1242L232 1418L330.5 1359.5C330.5 1359.5 317.244 1313.53 302.5 1287C259.436 1209.51 179.967 1216.64 121.5 1150Z" fill="#CE9088"/>
<path d="M99.0058 1083C42.4773 1082.55 22.622 1127.16 -25.9942 1156C-60.2652 1176.34 -81.8126 1184.33 -113.494 1208.5C-369.052 1403.48 43.5058 2016.5 43.5058 2016.5C520.672 2016.5 1476.41 2012.3 1482.01 1995.5C1487.61 1978.7 1524.01 1772.84 1541.51 1672C1541.51 1672 1395.91 1639.91 1304.51 1612.5C1186.64 1577.16 1105.97 1579.62 1008.51 1504.5C930.222 1444.17 939.175 1351.64 851.506 1306C752.607 1254.52 667.696 1351.72 566.006 1306C475.709 1265.41 487.507 1124.79 388.506 1125C321.463 1125.15 305.331 1213.9 238.506 1208.5C165.464 1202.6 172.283 1083.6 99.0058 1083Z" fill="#84698A"/>
<path d="M97.0058 1153C40.4773 1152.55 20.622 1197.16 -27.9942 1226C-62.2652 1246.34 -83.8126 1254.33 -115.494 1278.5C-371.052 1473.48 41.5058 2086.5 41.5058 2086.5C518.672 2086.5 1474.41 2082.3 1480.01 2065.5C1485.61 2048.7 1522.01 1842.84 1539.51 1742C1539.51 1742 1393.91 1709.91 1302.51 1682.5C1184.64 1647.16 1103.97 1649.62 1006.51 1574.5C928.222 1514.17 937.175 1421.64 849.506 1376C750.607 1324.52 665.696 1421.72 564.006 1376C473.709 1335.41 485.507 1194.79 386.506 1195C319.463 1195.15 303.331 1283.9 236.506 1278.5C163.464 1272.6 170.283 1153.6 97.0058 1153Z" fill="#775281"/>
<path d="M1046 810.008C1009 807.508 912 1392.51 912 1392.51L1046 1585.51L1209.5 1432.01C1209.5 1432.01 1083 812.508 1046 810.008Z" fill="#5D4162"/>
<path d="M1385.5 1184.01C1348.5 1181.51 1313.5 1392.51 1313.5 1392.51L1385.5 1447.01L1462 1370.01C1462 1370.01 1422.5 1186.51 1385.5 1184.01Z" fill="#5D4162"/>
<path d="M448.402 1454.64C401.281 1485.87 409.767 1533.96 385.593 1585.06C368.552 1621.08 355.159 1639.76 342.41 1677.51C239.574 1982.06 924.397 2259.58 924.397 2259.58C1319.99 1992.75 2109.98 1454.83 2105.22 1437.77C2100.47 1420.71 2015.53 1229.69 1973.65 1136.31C1973.65 1136.31 1835 1191.12 1743.9 1219.51C1626.42 1256.11 1560.91 1303.26 1438.11 1295.49C1339.47 1289.25 1295.15 1207.53 1196.95 1218.72C1086.17 1231.35 1070.13 1359.41 960.262 1378.37C862.703 1395.21 793.852 1272.04 711.894 1327.57C656.393 1365.18 692.65 1447.78 634.231 1480.68C570.378 1516.63 509.484 1414.15 448.402 1454.64Z" fill="#764766"/>
<path d="M450.402 1501.64C403.281 1532.87 411.767 1580.96 387.593 1632.06C370.552 1668.08 357.159 1686.76 344.41 1724.51C241.574 2029.06 926.397 2306.58 926.397 2306.58C1321.99 2039.75 2111.98 1501.83 2107.22 1484.77C2102.47 1467.71 2017.53 1276.69 1975.65 1183.31C1975.65 1183.31 1837 1238.12 1745.9 1266.51C1628.42 1303.11 1562.91 1350.26 1440.11 1342.49C1341.47 1336.25 1297.15 1254.53 1198.95 1265.72C1088.17 1278.35 1072.13 1406.41 962.262 1425.37C864.703 1442.21 795.852 1319.04 713.894 1374.57C658.393 1412.18 694.65 1494.78 636.231 1527.68C572.378 1563.63 511.484 1461.15 450.402 1501.64Z" fill="#5E3851"/>
<rect x="623" y="119" width="270" height="270" rx="135" fill="#FFF3E5"/>
</g>
<defs>
<linearGradient id="paint0_linear_105_18" x1="810" y1="0" x2="810" y2="1620" gradientUnits="userSpaceOnUse">
<stop stop-color="#E3A358"/>
<stop offset="1"/>
</linearGradient>
<linearGradient id="paint1_linear_105_18" x1="830.5" y1="-68" x2="830.5" y2="1703" gradientUnits="userSpaceOnUse">
<stop stop-color="#FFFCE1"/>
<stop offset="1" stop-color="#D9D7B1"/>
</linearGradient>
</defs>
</svg>
