<svg width="1920" xmlns="http://www.w3.org/2000/svg" height="1245" id="screenshot-4abe3168-f11e-80f4-8006-dcee0138aa27" viewBox="0 0 1920 1245" xmlns:xlink="http://www.w3.org/1999/xlink" fill="none" version="1.1"><g id="shape-4abe3168-f11e-80f4-8006-dcee0138aa27" rx="0" ry="0" style="fill: rgb(0, 0, 0);"><g id="shape-4abe3168-f11e-80f4-8006-dcee013972a0" clip-path="url(#render-2-a)" rx="0" ry="0" style="fill: rgb(0, 0, 0);"><defs><clipPath id="render-2-a" class="svg-def" transform="matrix(1.000000, 0.000000, 0.000000, 1.000000, 0.000000, -136.070010)"><rect width="1920" height="1300" rx="0" ry="0" transform="translate(0 100)" fill="#d2dbed" stroke-width="0"/></clipPath></defs><g id="shape-4abe3168-f11e-80f4-8006-dcee013972a1" rx="0" ry="0" style="fill: rgb(0, 0, 0);"><g id="shape-4abe3168-f11e-80f4-8006-dcee01399a4a" rx="0" ry="0" style="fill: rgb(0, 0, 0);"><g id="shape-4abe3168-f11e-80f4-8006-dcee013a16ca"><defs><linearGradient gradientUnits="userSpaceOnUse" spreadMethod="pad" y1="1314.95" id="render-5-c" x1="961.39" y2="163.42" x2="961.39" gradientTransform="matrix(1.000000, 0.000000, 0.000000, 1.000365, -1.390000, -163.479594) translate(0 0)"><stop offset="0.59" stop-color="#fe9b4f"/><stop offset="1" stop-color="#fcd549"/></linearGradient></defs><g class="fills" id="fills-4abe3168-f11e-80f4-8006-dcee013a16ca"><path d="M1900.83984375,35.743011474609375L1891.170166015625,0L1881.10986328125,37.18353271484375L1876.110107421875,18.606781005859375L1870.26025390625,40.254669189453125C1857.80615234375,43.0601806640625,1845.617431640625,46.936004638671875,1833.829833984375,51.838897705078125C1833.830078125,50.361328125,1832.83154296875,49.070556640625,1831.4013671875,48.7005615234375C1829.97119140625,48.330474853515625,1828.472412109375,48.97479248046875,1827.756103515625,50.267181396484375C1827.040283203125,51.55950927734375,1827.28857421875,53.172760009765625,1828.35986328125,54.189727783203125C1824.300048828125,55.99041748046875,1820.2998046875,57.88446044921875,1816.35986328125,59.871826171875C1817.0712890625,57.027130126953125,1815.784912109375,54.05908203125,1813.22314453125,52.633880615234375C1810.6611328125,51.208709716796875,1807.4619140625,51.681304931640625,1805.421630859375,53.78643798828125C1803.381103515625,55.89154052734375,1803.007080078125,59.104827880859375,1804.51025390625,61.622467041015625C1803.28759765625,61.821075439453125,1802.287109375,62.703582763671875,1801.93701171875,63.892181396484375C1801.587158203125,65.08084106445312,1801.949951171875,66.36483764648438,1802.869873046875,67.19448852539062C1733.929931640625,106.95901489257812,1684.8701171875,171.75262451171875,1632.580078125,190.06932067871094C1633.086669921875,188.50045776367188,1632.3310546875,186.8017120361328,1630.8270263671875,186.12754821777344C1629.322998046875,185.45338439941406,1627.5531005859375,186.0200653076172,1626.7197265625,187.4424285888672C1625.8863525390625,188.8647918701172,1626.257080078125,190.6866455078125,1627.5799560546875,191.66989135742188C1623.6473388671875,192.8204803466797,1619.63720703125,193.68637084960938,1615.580078125,194.26083374023438L1605.580078125,157.38739013671875L1595.4498291015625,194.84104919433594C1591.163330078125,194.6476593017578,1586.933349609375,194.3341827392578,1582.760009765625,193.9007110595703C1584.837158203125,192.0449981689453,1585.494140625,189.0677947998047,1584.3909912109375,186.50973510742188C1583.2882080078125,183.95164489746094,1580.672607421875,182.38662719726562,1577.8978271484375,182.62454223632812C1575.123046875,182.86244201660156,1572.81201171875,184.84986877441406,1572.1600341796875,187.5583953857422C1571.748291015625,187.3727569580078,1571.3016357421875,187.27723693847656,1570.8502197265625,187.27830505371094C1569.7420654296875,187.2711639404297,1568.7083740234375,187.83419799804688,1568.1134033203125,188.76889038085938C1567.518310546875,189.70359802246094,1567.4451904296875,190.8787078857422,1567.919921875,191.87998962402344C1533.7601318359375,186.1078643798828,1503.099853515625,173.39321899414062,1470.35009765625,161.86904907226562C1471.6551513671875,161.0244140625,1472.176513671875,159.37176513671875,1471.5926513671875,157.93072509765625C1471.0091552734375,156.48968505859375,1469.48486328125,155.66622924804688,1467.9600830078125,155.9683837890625C1466.435546875,156.27059936523438,1465.3402099609375,157.61325073242188,1465.3499755859375,159.16806030273438C1465.354736328125,159.50912475585938,1465.415771484375,159.84710693359375,1465.530029296875,160.16839599609375C1445.139892578125,153.16586303710938,1423.85009765625,146.7135009765625,1400.35009765625,142.82208251953125C1401.2769775390625,141.732421875,1401.376953125,140.16281127929688,1400.5963134765625,138.964111328125C1399.8153076171875,137.76544189453125,1398.339599609375,137.22311401367188,1396.96875,137.6312255859375C1395.597900390625,138.039306640625,1394.6585693359375,139.30059814453125,1394.6600341796875,140.7313232421875C1394.661376953125,141.15621948242188,1394.74267578125,141.5770263671875,1394.9000244140625,141.97177124023438L1393.650146484375,141.79171752929688L1385.989990234375,113.48138427734375L1378.7901611328125,140.08111572265625L1378.7901611328125,140.08111572265625L1368.610107421875,102.25732421875L1358.6099853515625,139.02072143554688L1358.380126953125,139.02072143554688L1353.469970703125,120.86407470703125L1348.6099853515625,139.06069946289062C1346.719970703125,139.11074829101562,1344.8399658203125,139.20077514648438,1342.969970703125,139.310791015625C1345.3148193359375,137.41253662109375,1346.037353515625,134.1451416015625,1344.7115478515625,131.43466186523438C1343.385498046875,128.72418212890625,1340.3634033203125,127.2899169921875,1337.426025390625,127.97732543945312C1334.4888916015625,128.66473388671875,1332.4163818359375,131.29144287109375,1332.4300537109375,134.30899047851562C1332.4327392578125,134.67129516601562,1332.4661865234375,135.03274536132812,1332.5301513671875,135.38937377929688C1331.049560546875,135.72088623046875,1329.995361328125,137.03292846679688,1329.9901123046875,138.550537109375C1329.9844970703125,139.27508544921875,1330.22412109375,139.98019409179688,1330.6700439453125,140.55126953125C1274.0599365234375,147.80392456054688,1227.75,180.26573181152344,1159.2999267578125,203.57424926757812C1159.379638671875,203.2941436767578,1159.4234619140625,203.00503540039062,1159.429931640625,202.71392822265625C1159.429931640625,201.8543243408203,1159.0887451171875,201.02989196777344,1158.4810791015625,200.4220733642578C1157.87353515625,199.814208984375,1157.04931640625,199.47274780273438,1156.1900634765625,199.47274780273438C1155.824462890625,199.4774169921875,1155.462646484375,199.54510498046875,1155.119873046875,199.6728057861328C1154.125,196.89710998535156,1151.380126953125,195.14512634277344,1148.444580078125,195.4119110107422C1145.5087890625,195.67872619628906,1143.12451171875,197.89682006835938,1142.6458740234375,200.80648803710938C1142.1668701171875,203.71617126464844,1143.7147216796875,206.58175659179688,1146.4100341796875,207.7757568359375C1137.68994140625,210.4767608642578,1128.5899658203125,213.00767517089844,1119.0799560546875,215.30850219726562C1119.208740234375,214.96612548828125,1119.2763671875,214.6038818359375,1119.280029296875,214.2381134033203C1119.28515625,212.76263427734375,1118.2935791015625,211.46986389160156,1116.8673095703125,211.09307861328125C1115.4412841796875,210.71632385253906,1113.9407958984375,211.35061645507812,1113.2169189453125,212.63624572753906C1112.4931640625,213.92185974121094,1112.728759765625,215.5343017578125,1113.7900390625,216.5589599609375C1089.6207275390625,222.06295776367188,1065.0482177734375,225.6156768798828,1040.3099365234375,227.18283081054688L1033.3099365234375,201.17335510253906L1026.1199951171875,227.77304077148438L1015.8800048828125,189.92926025390625L1005.5,228.33328247070312L1005.0101318359375,228.33328247070312C1003.7401123046875,228.33328247070312,1002.4901123046875,228.33328247070312,1001.22998046875,228.33328247070312C1003.6168212890625,226.47035217285156,1004.3931884765625,223.2008819580078,1003.0989990234375,220.46319580078125C1001.8045654296875,217.72552490234375,998.7857666015625,216.2516326904297,995.83203125,216.91539001464844C992.8782958984375,217.57911682128906,990.7794189453125,220.20298767089844,990.7799072265625,223.23141479492188C989.6478271484375,223.2217254638672,988.5941162109375,223.8095703125,988.00732421875,224.7783660888672C987.4205322265625,225.74716186523438,987.3873291015625,226.9535369873047,987.919921875,227.95314025878906C981.919921875,227.67303466796875,976.0233154296875,227.24954223632812,970.22998046875,226.68264770507812C970.788818359375,226.09024047851562,971.10009765625,225.3064422607422,971.099853515625,224.49185180664062C971.099853515625,222.70179748535156,969.6492919921875,221.25067138671875,967.8599853515625,221.25067138671875C966.070556640625,221.25067138671875,964.6199951171875,222.70179748535156,964.6199951171875,224.49185180664062C964.6224365234375,225.07473754882812,964.78515625,225.64573669433594,965.0899658203125,226.14247131347656C887.5400390625,217.4893035888672,824.8900146484375,184.5973358154297,763.31005859375,149.5145263671875C764.655517578125,149.25125122070312,765.695556640625,148.178466796875,765.917236328125,146.82492065429688C766.138916015625,145.47140502929688,765.49560546875,144.12271118164062,764.304443359375,143.443603515625C763.11328125,142.76446533203125,761.62548828125,142.89822387695312,760.57421875,143.7789306640625C759.523193359375,144.65963745117188,759.130615234375,146.1014404296875,759.58984375,147.39376831054688L749.3800048828125,141.5516357421875C750.2667236328125,140.9757080078125,750.815673828125,140.00216674804688,750.8494873046875,138.94509887695312C750.883544921875,137.88800048828125,750.3980712890625,136.88125610351562,749.5499267578125,136.24969482421875C751.487548828125,133.67971801757812,751.246337890625,130.0767822265625,748.9837646484375,127.78811645507812C746.7210693359375,125.49945068359375,743.122314453125,125.21847534179688,740.531982421875,127.12820434570312C737.941650390625,129.03793334960938,737.1446533203125,132.55978393554688,738.6600341796875,135.39938354492188L734.22998046875,132.85845947265625L723.8099975585938,94.33438110351562L716.1599731445312,122.604736328125C701.5499267578125,114.4017333984375,686.7999877929688,106.3988037109375,671.72998046875,98.86605834960938C673.1372680664062,98.134033203125,673.80517578125,96.48818969726562,673.3057861328125,94.98208618164062C672.8065185546875,93.47598266601562,671.287841796875,92.555419921875,669.7222290039062,92.80984497070312C668.1565551757812,93.064208984375,667.0072021484375,94.418212890625,667.0100708007812,96.00503540039062C667.0095825195312,96.19003295898438,667.02978515625,96.37454223632812,667.0700073242188,96.55523681640625C623.4599609375,75.16741943359375,577.0700073242188,58.021148681640625,523.5299682617188,52.048980712890625C523.9807739257812,51.480010986328125,524.2241821289062,50.774261474609375,524.219970703125,50.048248291015625C524.219970703125,48.262115478515625,522.7754516601562,46.812591552734375,520.9900512695312,46.80706787109375L520.9900512695312,46.80706787109375C520.9900512695312,46.657012939453125,520.9900512695312,46.5069580078125,520.9900512695312,46.356903076171875C520.981689453125,43.154449462890625,518.6368408203125,40.43792724609375,515.4710693359375,39.962982177734375C512.30517578125,39.48809814453125,509.2669677734375,41.397064208984375,508.32000732421875,44.456207275390625L501.12994384765625,17.88653564453125L492.969970703125,48.057525634765625L482.87994384765625,10.753936767578125L473.13995361328125,46.767059326171875C472.7818603515625,45.435699462890625,471.61883544921875,44.47833251953125,470.24383544921875,44.38323974609375C468.86895751953125,44.288116455078125,467.58514404296875,45.076202392578125,467.04718017578125,46.34552001953125C466.50927734375,47.6148681640625,466.835693359375,49.0858154296875,467.8599853515625,50.00823974609375C466.2000732421875,50.00823974609375,464.550048828125,50.128265380859375,462.85992431640625,50.19830322265625C464.7999267578125,48.07012939453125,465.1007080078125,44.915740966796875,463.5980224609375,42.459014892578125C462.09539794921875,40.00238037109375,459.15069580078125,38.83453369140625,456.37353515625,39.593841552734375C453.59625244140625,40.353179931640625,451.65472412109375,42.85693359375,451.6099853515625,45.736663818359375C450.75067138671875,45.736663818359375,449.926513671875,46.078155517578125,449.3189697265625,46.686004638671875C448.71136474609375,47.293853759765625,448.3701171875,48.118255615234375,448.3701171875,48.977874755859375C448.3695068359375,49.7049560546875,448.61639404296875,50.410552978515625,449.07000732421875,50.978607177734375C437.780029296875,51.838897705078125,426.6900634765625,53.079345703125,415.780029296875,54.629913330078125C416.5780029296875,53.481842041015625,416.550048828125,51.95123291015625,415.710693359375,50.83306884765625C414.87127685546875,49.714935302734375,413.40960693359375,49.261444091796875,412.0849609375,49.708099365234375C410.76031494140625,50.154754638671875,409.87152099609375,51.400909423828125,409.8800048828125,52.79925537109375C409.88787841796875,53.782379150390625,410.340087890625,54.709136962890625,411.1099853515625,55.320159912109375C333.550048828125,66.95440673828125,264.90997314453125,93.11395263671875,195.61001586914062,98.09576416015625C195.92108154296875,97.117431640625,195.74432373046875,96.0491943359375,195.13461303710938,95.223388671875C194.52487182617188,94.3975830078125,193.55618286132812,93.9144287109375,192.530029296875,93.92425537109375L192.530029296875,93.92425537109375C192.530029296875,93.774169921875,192.530029296875,93.62417602539062,192.530029296875,93.46408081054688C192.53280639648438,90.38897705078125,190.37542724609375,87.735107421875,187.365478515625,87.11087036132812C184.35552978515625,86.486572265625,181.32131958007812,88.06375122070312,180.10174560546875,90.88650512695312C178.88226318359375,93.709228515625,179.81301879882812,97.00070190429688,182.33001708984375,98.7659912109375C180.3900146484375,98.82601928710938,178.44998168945312,98.86605834960938,176.50003051757812,98.89605712890625L168.5,69.43533325195312L160.68002319335938,98.615966796875L160.68002319335938,98.615966796875L150.90997314453125,62.4927978515625L141.55999755859375,97.055419921875C123.415771484375,94.91900634765625,105.56991577148438,90.7445068359375,88.3599853515625,84.61087036132812C89.6905517578125,83.80026245117188,90.253173828125,82.15521240234375,89.69775390625,80.69915771484375C89.14239501953125,79.24319458007812,87.62725830078125,78.39120483398438,86.09515380859375,78.67333984375C84.56304931640625,78.95553588867188,83.45065307617188,80.29141235351562,83.44998168945312,81.849853515625C83.4549560546875,82.19091796875,83.51577758789062,82.52883911132812,83.63003540039062,82.8502197265625C77.71002197265625,80.60940551757812,71.75335693359375,78.09512329101562,65.75997924804688,75.30746459960938C69.0533447265625,74.53884887695312,71.19943237304688,71.36257934570312,70.6845703125,68.01895141601562C70.16970825195312,64.67532348632812,67.16754150390625,62.29241943359375,63.795623779296875,62.550933837890625C60.423736572265625,62.809417724609375,57.819580078125,65.62210083007812,57.82000732421875,69.005126953125C57.81768798828125,69.95709228515625,58.029571533203125,70.89730834960938,58.44000244140625,71.75613403320312C39.990020751953125,62.4927978515625,19.44000244140625,50.478424072265625,5.684341886080802e-14,35.162841796875L5.684341886080802e-14,1152L1920,1152L1920,35.15283203125C1914.60986328125,35.15283203125,1906.010009765625,35.3629150390625,1900.83984375,35.743011474609375Z" text-rendering="geometricPrecision" shape-rendering="geometricPrecision" fill="url(#render-5-c)" style="background-color: rgb(255, 239, 186); fill: url(&quot;#render-5-c&quot;);"/></g></g><g id="shape-4abe3168-f11e-80f4-8006-dcee013a6fcb"><defs><linearGradient gradientUnits="userSpaceOnUse" spreadMethod="pad" y1="1353.95" id="render-6-d" x1="961.39" y2="341.29" x2="961.39" gradientTransform="matrix(1.000000, 0.000000, 0.000000, 1.000326, -1.390000, -191.441219) matrix(1 0 0 1 0 0)"><stop offset=".6" stop-color="#ff6254"/><stop offset="1" stop-color="#ff9b47"/></linearGradient></defs><g class="fills" id="fills-4abe3168-f11e-80f4-8006-dcee013a6fcb"><path d="M1815.10009765625,249.82252502441406C1815.508544921875,249.0375213623047,1815.72412109375,248.1666259765625,1815.72998046875,247.2816925048828C1815.750244140625,244.65357971191406,1813.962646484375,242.35589599609375,1811.410888671875,241.7297821044922C1808.859375,241.10362243652344,1806.2119140625,242.31309509277344,1805.013916015625,244.6521759033203C1803.81591796875,246.9912872314453,1804.381103515625,249.84725952148438,1806.380126953125,251.5531005859375C1795.569091796875,253.40664672851562,1784.64306640625,254.5063018798828,1773.679931640625,254.8441925048828L1763.610107421875,217.54202270507812L1753.510009765625,254.8741912841797C1688.2099609375,252.9635772705078,1614.440185546875,232.81698608398438,1537.9500732421875,222.483642578125C1538.3828125,221.68101501464844,1538.6129150390625,220.78468322753906,1538.6201171875,219.87277221679688C1538.62939453125,218.18801879882812,1537.8839111328125,216.587646484375,1536.588623046875,215.5107879638672C1535.2933349609375,214.4339599609375,1533.584228515625,213.99374389648438,1531.9300537109375,214.3109588623047C1532.013916015625,213.77481079101562,1532.057373046875,213.23309326171875,1532.059814453125,212.69044494628906C1532.0709228515625,207.77182006835938,1528.9091796875,203.40753173828125,1524.2332763671875,201.88668823242188C1519.55712890625,200.36587524414062,1514.434326171875,202.03565979003906,1511.551513671875,206.02029418945312C1508.668701171875,210.0049285888672,1508.6842041015625,215.39468383789062,1511.5902099609375,219.3626251220703C1506.530029296875,218.85577392578125,1501.4566650390625,218.4089813232422,1496.3699951171875,218.02215576171875L1483.2701416015625,169.67642211914062L1470.679931640625,216.20159912109375L1452.770263671875,150L1434.6600341796875,216.97183227539062C1429.4932861328125,217.2052459716797,1424.3865966796875,217.50869750976562,1419.3399658203125,217.88214111328125C1421.3516845703125,215.4942169189453,1421.05078125,211.9278564453125,1418.6673583984375,209.91099548339844C1416.2840576171875,207.8941650390625,1412.71826171875,208.18846130371094,1410.6976318359375,210.56874084472656C1408.6768798828125,212.94900512695312,1408.96435546875,216.5164794921875,1411.3399658203125,218.5423583984375C1356.3399658203125,223.54397583007812,1308.739990234375,237.2984619140625,1265.429931640625,254.1239471435547C1265.429931640625,253.95388793945312,1265.47998046875,253.7938232421875,1265.47998046875,253.62379455566406C1265.499755859375,251.0072784423828,1263.7275390625,248.71685791015625,1261.1905517578125,248.07986450195312C1258.653564453125,247.4429168701172,1256.010009765625,248.62466430664062,1254.7923583984375,250.94032287597656C1253.5743408203125,253.25599670410156,1254.0982666015625,256.10455322265625,1256.0599365234375,257.83514404296875C1176.5599365234375,289.93560791015625,1111.22998046875,331.279052734375,1040.469970703125,345.4337158203125C979.9998779296875,357.527587890625,930.7298583984375,355.43695068359375,886.6500244140625,346.8741760253906C889.0115966796875,345.0113220214844,889.5084228515625,341.6281433105469,887.781982421875,339.16461181640625C886.0555419921875,336.701171875,882.7069091796875,336.0146179199219,880.1510009765625,337.60015869140625C877.5950927734375,339.1856994628906,876.721435546875,342.49163818359375,878.159912109375,345.13360595703125C813.0101318359375,331.06903076171875,758.60986328125,303.7200927734375,694.7699584960938,289.2153625488281C695.56298828125,288.2281494140625,695.99658203125,287.0006103515625,696,285.7342224121094C695.872314453125,282.69708251953125,693.3739013671875,280.300537109375,690.3349609375,280.300537109375C687.2962036132812,280.300537109375,684.7975463867188,282.69708251953125,684.6698608398438,285.7342224121094C684.6737670898438,286.1933898925781,684.7342529296875,286.6503601074219,684.8500366210938,287.09466552734375C676.6299438476562,285.43414306640625,668.2199096679688,284.023681640625,659.6199951171875,282.86328125L646.070068359375,232.75697326660156L633.4799194335938,279.2921142578125L615.6100463867188,213.09056091308594L598.02001953125,278.11175537109375L589.2300415039062,245.62118530273438L579.6099243164062,281.2027587890625C576.2099609375,281.5162048339844,572.8499755859375,281.8663024902344,569.530029296875,282.25311279296875C571.701416015625,278.08013916015625,571.070068359375,272.9991455078125,567.9434204101562,269.4849853515625C564.816650390625,265.9708557128906,559.8449096679688,264.7542419433594,555.4495849609375,266.4277648925781C551.0542602539062,268.1012878417969,548.1494750976562,272.31695556640625,548.1499633789062,277.0213928222656C548.1499633789062,277.17144775390625,548.1499633789062,277.3114929199219,548.1499633789062,277.4515380859375C547.464599609375,277.1700439453125,546.7310791015625,277.0239562988281,545.9900512695312,277.0213928222656C543.723876953125,277.0428466796875,541.68896484375,278.41436767578125,540.818115234375,280.50726318359375C539.9472045898438,282.6002197265625,540.408447265625,285.010986328125,541.989990234375,286.634521484375C528.9900512695312,289.2153625488281,516.5899658203125,292.3963928222656,504.66998291015625,296.0075988769531C505.34295654296875,294.27001953125,505.11151123046875,292.31182861328125,504.05206298828125,290.7792053222656C502.9925537109375,289.24658203125,501.24273681640625,288.33868408203125,499.3800048828125,288.3551025390625C496.86724853515625,288.3026123046875,494.62078857421875,289.9139404296875,493.86431884765625,292.3115234375C493.1077880859375,294.70904541015625,494.0224609375,297.3184509277344,496.1099853515625,298.71844482421875C430.95001220703125,319.8453369140625,379.9100341796875,352.39593505859375,323.73004150390625,362.7393493652344C324.0118408203125,361.93902587890625,324.15716552734375,361.0970458984375,324.1600341796875,360.24853515625C324.15997314453125,356.9923400878906,322.0574951171875,354.10894775390625,318.9578857421875,353.11431884765625C315.85833740234375,352.1196594238281,312.47149658203125,353.2414245605469,310.57781982421875,355.8899230957031C308.68414306640625,358.5384521484375,308.7174072265625,362.10723876953125,310.65997314453125,364.719970703125C305.6866455078125,365.3001708984375,300.65667724609375,365.68695068359375,295.57000732421875,365.8804016113281C297.81787109375,361.9139404296875,297.4683837890625,356.9858703613281,294.68328857421875,353.3765869140625C291.898193359375,349.767333984375,287.2208251953125,348.1810607910156,282.81561279296875,349.3517761230469C278.41058349609375,350.5225830078125,275.1370849609375,354.2219543457031,274.51007080078125,358.738037109375C273.50146484375,357.88201904296875,272.22259521484375,357.4106750488281,270.9000244140625,357.4075622558594C267.7740478515625,357.4075622558594,265.239990234375,359.9424743652344,265.239990234375,363.0694885253906C265.24212646484375,363.5077209472656,265.2957763671875,363.9442138671875,265.39996337890625,364.369873046875C197.76998901367188,355.78704833984375,148.5,317.9347229003906,99.10000610351562,290.11566162109375C101.11795043945312,288.52410888671875,101.80807495117188,285.770751953125,100.77947998046875,283.41510009765625C99.75091552734375,281.05938720703125,97.26266479492188,279.69482421875,94.72409057617188,280.09417724609375C92.185546875,280.4935302734375,90.23614501953125,282.55621337890625,89.98004150390625,285.114013671875C86.4866943359375,283.2401123046875,82.98333740234375,281.4394836425781,79.47003173828125,279.7122802734375L79.47003173828125,279.7122802734375L68.66998291015625,239.63922119140625L60.1500244140625,271.13946533203125L59.54998779296875,270.909423828125L42.28997802734375,207.07862854003906L27.529998779296875,261.7064208984375C18.43402099609375,260.16558837890625,9.225494384765625,259.385986328125,5.684341886080802e-14,259.37567138671875L5.684341886080802e-14,1163L1920,1163L1920,180.6800079345703C1891.800048828125,220.76307678222656,1853.85009765625,241.19972229003906,1815.10009765625,249.82252502441406ZM551.2400512695312,284.83392333984375L551.3099975585938,284.91400146484375L551.2000122070312,284.91400146484375C551.2158813476562,284.8817138671875,551.2293090820312,284.8482666015625,551.2400512695312,284.81396484375Z" text-rendering="geometricPrecision" shape-rendering="geometricPrecision" fill="url(#render-6-d)" style="background-color: rgb(255, 239, 186); fill: url(&quot;#render-6-d&quot;);"/></g></g><g id="shape-4abe3168-f11e-80f4-8006-dcee013a6fcc" rx="0" ry="0" style="fill: rgb(0, 0, 0);"><g id="shape-4abe3168-f11e-80f4-8006-dcee013ab272"><defs><linearGradient gradientUnits="userSpaceOnUse" spreadMethod="pad" y1="1304.2" id="render-8-e" x1="961.39" y2="355.19" x2="961.39" gradientTransform="matrix(1.000000, 0.000000, 0.000000, 0.999989, -1.380000, -164.186265) matrix(1 0 0 1 0 0)"><stop offset=".27" stop-color="#c6185b"/><stop offset="1" stop-color="#e24556"/></linearGradient></defs><g class="fills" id="fills-4abe3168-f11e-80f4-8006-dcee013ab272"><path d="M1863.2099609375,312.4687194824219L1863.2099609375,287.14898681640625L1894.770263671875,287.14898681640625L1881.619873046875,263.2392272949219L1889.110107421875,263.2392272949219L1875.33984375,238.28952026367188L1881.06005859375,238.28952026367188L1869.14990234375,216.68972778320312L1873.869873046875,216.68972778320312L1859.6201171875,191L1845.44970703125,216.68972778320312L1850.170166015625,216.68972778320312L1838.260009765625,238.28952026367188L1843.980224609375,238.28952026367188L1830.210205078125,263.2392272949219L1837.699951171875,263.2392272949219L1824.51025390625,287.14898681640625L1856.070068359375,287.14898681640625L1856.070068359375,314.8087158203125C1845.199462890625,318.5972595214844,1834.646240234375,323.24176025390625,1824.51025390625,328.6985778808594L1824.51025390625,310.8087463378906C1824.51025390625,309.6379089355469,1823.560791015625,308.68878173828125,1822.389892578125,308.68878173828125C1821.218994140625,308.68878173828125,1820.27001953125,309.6379089355469,1820.27001953125,310.8087463378906L1820.27001953125,330.94854736328125C1818.836669921875,331.74853515625,1817.409912109375,332.56182861328125,1815.989990234375,333.38848876953125L1815.989990234375,323.38861083984375C1815.989990234375,322.2177734375,1815.041259765625,321.26861572265625,1813.8701171875,321.26861572265625C1812.69921875,321.26861572265625,1811.750244140625,322.2177734375,1811.750244140625,323.38861083984375L1811.750244140625,335.9084777832031C1776.18017578125,357.2982482910156,1744.6898193359375,385.68798828125,1708.030029296875,408.0877685546875C1707.5145263671875,404.25823974609375,1704.83837890625,401.0684509277344,1701.156982421875,399.8946838378906C1697.4754638671875,398.72100830078125,1693.4468994140625,399.7733459472656,1690.8099365234375,402.5977783203125C1686.842529296875,393.5444641113281,1677.424560546875,388.1471252441406,1667.607177734375,389.3006896972656C1657.790283203125,390.4542236328125,1649.8797607421875,397.88775634765625,1648.118896484375,407.61419677734375C1646.3582763671875,417.3406677246094,1651.1602783203125,427.07550048828125,1659.9498291015625,431.59747314453125C1651.8724365234375,434.5164489746094,1643.627685546875,436.95074462890625,1635.2598876953125,438.887451171875L1635.2598876953125,421.73760986328125C1635.2598876953125,420.5667724609375,1634.310791015625,419.61761474609375,1633.14013671875,419.61761474609375C1631.96923828125,419.61761474609375,1631.0198974609375,420.5667724609375,1631.0198974609375,421.73760986328125L1631.0198974609375,439.8674011230469C1629.670166015625,440.1474304199219,1628.300048828125,440.4073791503906,1626.929931640625,440.6673889160156L1626.929931640625,382.6080017089844C1639.5,381.238037109375,1649.400146484375,366.0281677246094,1649.400146484375,347.4383544921875C1649.400146484375,327.95855712890625,1638.5201416015625,312.168701171875,1625.08984375,312.168701171875C1611.6600341796875,312.168701171875,1600.780029296875,327.95855712890625,1600.780029296875,347.4383544921875C1600.780029296875,366.0281677246094,1610.6900634765625,381.238037109375,1623.25,382.6080017089844L1623.25,441.3274230957031C1611.354248046875,443.3465576171875,1599.3154296875,444.40667724609375,1587.2501220703125,444.49737548828125L1587.2501220703125,415.55767822265625L1609.699951171875,415.55767822265625L1583.7000732421875,319.2786560058594L1557.6998291015625,415.55767822265625L1580.16015625,415.55767822265625L1580.16015625,444.48736572265625C1563.260009765625,444.3173828125,1547.3499755859375,443.3173828125,1532.16015625,441.6474304199219C1536.1551513671875,438.06707763671875,1536.6336669921875,431.9803466796875,1533.2474365234375,427.8196105957031C1529.861083984375,423.6589050292969,1523.803955078125,422.8912048339844,1519.48681640625,426.07562255859375C1515.1695556640625,429.2599792480469,1514.11474609375,435.2736511230469,1517.08984375,439.7373962402344C1438.2301025390625,428.4674987792969,1378.6199951171875,399.8078308105469,1299.8199462890625,381.218017578125L1299.8199462890625,370.1381530761719C1299.8743896484375,369.34783935546875,1299.483642578125,368.5931396484375,1298.8067626953125,368.18145751953125C1298.1300048828125,367.76971435546875,1297.280029296875,367.76971435546875,1296.603271484375,368.18145751953125C1295.9263916015625,368.5931396484375,1295.53564453125,369.34783935546875,1295.590087890625,370.1381530761719L1295.590087890625,380.238037109375C1254.530029296875,370.8181457519531,1208.18994140625,364.23822021484375,1151.25,364.23822021484375C1029.0699462890625,364.23822021484375,946.639892578125,398.557861328125,870.4300537109375,436.4074401855469L870.4300537109375,427.40753173828125C870.4300537109375,426.2366943359375,869.4808349609375,425.28753662109375,868.3099365234375,425.28753662109375C867.13916015625,425.28753662109375,866.1900634765625,426.2366943359375,866.1900634765625,427.40753173828125L866.1900634765625,438.55743408203125C843.18994140625,450.05731201171875,820.669921875,461.82720947265625,797.7401123046875,473.01708984375L797.7401123046875,454.8072509765625C797.6634521484375,453.6955261230469,796.7393798828125,452.8327941894531,795.6251220703125,452.8327941894531C794.5106201171875,452.8327941894531,793.58642578125,453.6955261230469,793.510009765625,454.8072509765625L793.510009765625,474.9770202636719L789.22998046875,477.0369873046875L789.22998046875,467.4071044921875C789.22998046875,466.23626708984375,788.28076171875,465.2871398925781,787.1099853515625,465.2871398925781C785.939208984375,465.2871398925781,784.989990234375,466.23626708984375,784.989990234375,467.4071044921875L784.989990234375,479.0570068359375C781.7301025390625,480.5969543457031,778.4532470703125,482.1236267089844,775.1600341796875,483.636962890625C774.7459716796875,480.3288879394531,772.7183837890625,477.44140625,769.7474365234375,475.9288635253906C766.7763671875,474.4162902832031,763.24853515625,474.4755554199219,760.330078125,476.0870666503906C757.5045166015625,466.00482177734375,748.0897216796875,459.2105407714844,737.630859375,459.705810546875C727.1717529296875,460.20111083984375,718.4411010742188,467.85467529296875,716.5810546875,478.15869140625C714.7208251953125,488.4627380371094,720.224365234375,498.6858215332031,729.8499755859375,502.8067626953125C712.8848876953125,509.2496337890625,695.590576171875,514.7906494140625,678.0399169921875,519.4065551757812C680.591552734375,514.6285400390625,678.90625,508.6881103515625,674.2255249023438,505.9617919921875C669.5450439453125,503.2354736328125,663.5463256835938,504.7001647949219,660.6488647460938,509.27679443359375C657.75146484375,513.8533935546875,658.9935913085938,519.9020385742188,663.4600219726562,522.9664916992188C627.9188232421875,530.985595703125,591.5844116210938,534.95751953125,555.1500854492188,534.806396484375C498.8299560546875,534.806396484375,450.52996826171875,524.20654296875,406.22003173828125,508.27667236328125L406.22003173828125,487.7168884277344C406.27447509765625,486.9266052246094,405.883544921875,486.1719055175781,405.20672607421875,485.76019287109375C404.5299072265625,485.3485107421875,403.6800537109375,485.3485107421875,403.00323486328125,485.76019287109375C402.326416015625,486.1719055175781,401.93560791015625,486.9266052246094,401.989990234375,487.7168884277344L401.989990234375,506.7166748046875C400.48992919921875,506.16668701171875,398.98992919921875,505.6167297363281,397.51007080078125,505.0567321777344L397.51007080078125,494.1368713378906C397.51007080078125,492.9660339355469,396.5609130859375,492.0168762207031,395.38995361328125,492.0168762207031C394.21917724609375,492.0168762207031,393.26995849609375,492.9660339355469,393.26995849609375,494.1368713378906L393.26995849609375,503.416748046875C388.51007080078125,501.570068359375,383.7933349609375,499.6667785644531,379.1199951171875,497.70684814453125L379.1199951171875,458.0971984863281C394.26495361328125,457.1044616699219,405.89154052734375,444.27642822265625,405.3948974609375,429.1072692871094C404.89825439453125,413.9381103515625,392.4573974609375,401.8980712890625,377.280029296875,401.8980712890625C362.10260009765625,401.8980712890625,349.66168212890625,413.9381103515625,349.16510009765625,429.1072692871094C348.66845703125,444.27642822265625,360.2950439453125,457.1044616699219,375.44000244140625,458.0971984863281L375.44000244140625,496.15679931640625C312.67999267578125,469.4471130371094,256.510009765625,433.9074401855469,194.08999633789062,406.3077697753906L194.08999633789062,382.6480407714844L225.62005615234375,382.6480407714844L212.43002319335938,358.7382507324219L219.9200439453125,358.7382507324219L206.14999389648438,333.7384948730469L211.8699951171875,333.7384948730469L199.95999145507812,312.1387023925781L204.68002319335938,312.1387023925781L190.50003051757812,286.458984375L176.3299560546875,312.1387023925781L181.04995727539062,312.1387023925781L169.16998291015625,333.8085021972656L174.8900146484375,333.8085021972656L161.1199951171875,358.8082580566406L168.62002563476562,358.8082580566406L155.41998291015625,382.6480407714844L186.97998046875,382.6480407714844L186.97998046875,403.20782470703125C172.6199951171875,397.037841796875,157.86996459960938,391.347900390625,142.62002563476562,386.2779541015625L142.62002563476562,358.5282287597656C155.18002319335938,356.6082458496094,165.08999633789062,335.178466796875,165.08999633789062,309.01873779296875C165.08999633789062,281.58905029296875,154.20001220703125,259.3592529296875,140.780029296875,259.3592529296875C127.36001586914062,259.3592529296875,116.47000122070312,281.58905029296875,116.47000122070312,309.01873779296875C116.47000122070312,335.178466796875,126.36996459960938,356.6082458496094,138.94000244140625,358.5282287597656L138.94000244140625,385.0679931640625C128.5333251953125,381.6946716308594,117.86660766601562,378.65472412109375,106.94000244140625,375.9480895996094C115.0738525390625,369.8096923828125,118.055908203125,358.9645690917969,114.203857421875,349.530517578125C110.351806640625,340.0965270996094,100.63119506835938,334.4379577636719,90.52542114257812,335.74688720703125C80.41958618164062,337.0558166503906,72.46136474609375,345.0041809082031,71.13998413085938,355.1082763671875C67.58743286132812,352.97772216796875,63.089080810546875,353.25811767578125,59.82855224609375,355.8132629394531C56.56805419921875,358.36846923828125,55.22052001953125,362.66937255859375,56.44000244140625,366.628173828125C37.7056884765625,364.4488830566406,18.860595703125,363.36041259765625,5.684341886080802e-14,363.36822509765625L5.684341886080802e-14,1140L1920,1140L1920,304.57879638671875C1900.30029296875,304.57879638671875,1879.6796875,307.498779296875,1863.2099609375,312.4687194824219Z" text-rendering="geometricPrecision" shape-rendering="geometricPrecision" fill="url(#render-8-e)" style="background-color: rgb(255, 239, 186); fill: url(&quot;#render-8-e&quot;);"/></g></g></g><g id="shape-4abe3168-f11e-80f4-8006-dcee013ac776" rx="0" ry="0" style="fill: rgb(0, 0, 0);"><g id="shape-4abe3168-f11e-80f4-8006-dcee013ac777" rx="0" ry="0" style="fill: rgb(0, 0, 0);"><g id="shape-4abe3168-f11e-80f4-8006-dcee013ac778"><g class="fills" id="fills-4abe3168-f11e-80f4-8006-dcee013ac778"><path d="M1727.85595703125,648.294921875L194.82757568359375,648.294921875L194.55487060546875,981.0249633789062L206.23046875,981.0249633789062L206.23046875,800.4349365234375C206.23602294921875,734.2916870117188,260.39349365234375,680.6749267578125,327.19818115234375,680.6749267578125L327.19818115234375,680.6749267578125C392.55279541015625,680.6712036132812,446.091552734375,732.0680541992188,448.105224609375,796.7449340820312L448.105224609375,981.0249633789062L459.8515625,981.0249633789062L459.8515625,796.7449340820312C461.8656005859375,732.0564575195312,515.422607421875,680.655029296875,580.7889404296875,680.6749267578125L580.7889404296875,680.6749267578125C647.581787109375,680.6915283203125,701.7208251953125,734.3034057617188,701.726318359375,800.4349365234375L701.726318359375,981.0249633789062L713.40185546875,981.0249633789062L713.40185546875,800.4349365234375C713.40185546875,768.6708984375,726.14697265625,738.2079467773438,748.833251953125,715.748291015625C771.519287109375,693.2886352539062,802.2879638671875,680.6723022460938,834.36962890625,680.6749267578125L834.36962890625,680.6749267578125C866.4512939453125,680.6723022460938,897.219970703125,693.2886352539062,919.9061279296875,715.748291015625C942.5921630859375,738.2079467773438,955.33740234375,768.6708984375,955.33740234375,800.4349365234375L955.33740234375,981.0249633789062L967.0230712890625,981.0249633789062L967.0230712890625,800.4349365234375C967.0230712890625,734.2877807617188,1021.18212890625,680.6649169921875,1087.9908447265625,680.6649169921875C1154.79931640625,680.6649169921875,1208.9583740234375,734.2877807617188,1208.9583740234375,800.4349365234375L1208.9583740234375,981.0249633789062L1220.634033203125,981.0249633789062L1220.634033203125,800.4349365234375C1221.0511474609375,734.69970703125,1274.9027099609375,681.5824584960938,1341.29638671875,681.4177856445312C1407.68994140625,681.2531127929688,1461.8095703125,734.1026000976562,1462.5595703125,799.8349609375L1462.5595703125,981.0249633789062L1474.255126953125,981.0249633789062L1474.255126953125,799.8549194335938C1474.57763671875,733.93994140625,1528.6376953125,680.6741333007812,1595.212890625,680.6749267578125L1595.212890625,680.6749267578125C1662.017333984375,680.6749267578125,1716.1748046875,734.2916870117188,1716.180419921875,800.4349365234375L1716.180419921875,981.0249633789062L1727.85595703125,981.0249633789062Z" text-rendering="geometricPrecision" shape-rendering="geometricPrecision" style="background-color: rgb(255, 239, 186); fill: rgb(27, 6, 61);"/></g></g><g id="shape-4abe3168-f11e-80f4-8006-dcee013b0862"><g class="fills" id="fills-4abe3168-f11e-80f4-8006-dcee013b0862"><path d="M1716.64501953125,648.294921875L183.6165771484375,648.294921875L183.3438720703125,981.0249633789062L195.01947021484375,981.0249633789062L195.01947021484375,800.4349365234375C195.01947021484375,768.6708984375,207.7645263671875,738.2079467773438,230.45068359375,715.748291015625C253.1368408203125,693.2886352539062,283.90545654296875,680.6723022460938,315.9871826171875,680.6749267578125L315.9871826171875,680.6749267578125C381.33966064453125,680.6764526367188,434.8753662109375,732.0703735351562,436.894287109375,796.7449340820312L436.894287109375,981.0249633789062L448.640625,981.0249633789062L448.640625,796.7449340820312C450.64892578125,732.0697021484375,504.1846923828125,680.67138671875,569.53759765625,680.6749267578125L569.53759765625,680.6749267578125C601.6192626953125,680.6723022460938,632.387939453125,693.2886352539062,655.073974609375,715.748291015625C677.76025390625,738.2079467773438,690.5052490234375,768.6708984375,690.5052490234375,800.4349365234375L690.5052490234375,981.0249633789062L702.19091796875,981.0249633789062L702.19091796875,800.4349365234375C702.19091796875,768.6656494140625,714.940185546875,738.1981811523438,737.6328125,715.7376708984375C760.3255615234375,693.2771606445312,791.10205078125,680.664306640625,823.18896484375,680.6749267578125L823.18896484375,680.6749267578125C889.9818115234375,680.6915283203125,944.1207275390625,734.3034057617188,944.1263427734375,800.4349365234375L944.1263427734375,981.0249633789062L955.8018798828125,981.0249633789062L955.8018798828125,800.4349365234375C955.8018798828125,734.2877807617188,1009.9610595703125,680.6649169921875,1076.7696533203125,680.6649169921875C1143.5782470703125,680.6649169921875,1197.7373046875,734.2877807617188,1197.7373046875,800.4349365234375L1197.7373046875,981.0249633789062L1209.423095703125,981.0249633789062L1209.423095703125,800.4349365234375C1209.8402099609375,734.69970703125,1263.6917724609375,681.5824584960938,1330.08544921875,681.4177856445312C1396.47900390625,681.2531127929688,1450.5986328125,734.1026000976562,1451.34814453125,799.8349609375L1451.34814453125,981.0249633789062L1463.0341796875,981.0249633789062L1463.0341796875,799.8549194335938C1463.3564453125,733.93994140625,1517.416748046875,680.6741333007812,1583.99169921875,680.6749267578125L1583.99169921875,680.6749267578125C1650.78271484375,680.6915283203125,1704.9189453125,734.3050537109375,1704.9189453125,800.4349365234375L1704.9189453125,981.0249633789062L1716.6044921875,981.0249633789062Z" text-rendering="geometricPrecision" shape-rendering="geometricPrecision" style="background-color: rgb(255, 239, 186); fill: rgb(255, 98, 84);"/></g></g><g id="shape-4abe3168-f11e-80f4-8006-dcee013b0863"><g class="fills" id="fills-4abe3168-f11e-80f4-8006-dcee013b0863"><path d="M183.3438720703125,648.294921875L183.3438720703125,667.8449096679688L542.0655517578125,683.8449096679688C564.1258544921875,678.7246704101562,587.19677734375,679.8613891601562,608.6346435546875,687.1249389648438L765.99267578125,694.9049072265625C821.542724609375,666.2049560546875,871.365966796875,688.2049560546875,890.6468505859375,701.06494140625L1001.746826171875,706.544921875C1053.2568359375,665.544921875,1124.441650390625,677.6949462890625,1160.85205078125,714.4049072265625L1242.2884521484375,718.4049072265625C1310.3421630859375,651.8649291992188,1397.2628173828125,686.5149536132812,1426.290283203125,727.4949340820312L1485.779296875,730.4949340820312C1533.07763671875,666.2549438476562,1638.9052734375,659.284912109375,1689.50634765625,741.8349609375L1716.634765625,743.1949462890625L1716.634765625,648.294921875Z" text-rendering="geometricPrecision" shape-rendering="geometricPrecision" style="background-color: rgb(255, 239, 186); fill: rgb(27, 6, 61);"/></g></g><g id="shape-4abe3168-f11e-80f4-8006-dcee013b7c7d"><g class="fills" id="fills-4abe3168-f11e-80f4-8006-dcee013b7c7d"><rect width="1534.3021099999999" height="11.659999999999968" text-rendering="geometricPrecision" x="188.44894720463145" transform="matrix(1.000000, 0.000000, 0.000000, 1.000000, 0.000000, 0.000000)" style="background-color: rgb(255, 239, 186); fill: rgb(255, 98, 84);" ry="0" rx="0" shape-rendering="geometricPrecision" y="640.9349368147583"/></g></g></g></g><g id="shape-4abe3168-f11e-80f4-8006-dcee013bdfc7" rx="0" ry="0" style="fill: rgb(0, 0, 0);"><g id="shape-4abe3168-f11e-80f4-8006-dcee013c1289"><g class="fills" id="fills-4abe3168-f11e-80f4-8006-dcee013c1289"><path d="M1836.549560546875,576.2784423828125L1802.759765625,515.0389404296875L1821.94970703125,515.0389404296875L1786.689208984375,451.118896484375L1801.33935546875,451.118896484375L1770.8291015625,395.8002624511719L1782.919189453125,395.8002624511719L1746.6190185546875,330L1710.3187255859375,395.8002624511719L1722.4090576171875,395.8002624511719L1691.8988037109375,451.118896484375L1706.548828125,451.118896484375L1671.2889404296875,515.0389404296875L1690.4788818359375,515.0389404296875L1656.688720703125,576.2784423828125L1737.5091552734375,576.2784423828125L1737.5091552734375,658.5713500976562L1755.72900390625,658.5713500976562L1755.72900390625,576.2784423828125L1836.549560546875,576.2784423828125Z" text-rendering="geometricPrecision" shape-rendering="geometricPrecision" style="background-color: rgb(255, 239, 186); fill: rgb(132, 10, 108);"/></g></g><g id="shape-4abe3168-f11e-80f4-8006-dcee013c128a"><g class="fills" id="fills-4abe3168-f11e-80f4-8006-dcee013c128a"><path d="M1836.549560546875,576.2784423828125L1802.759765625,515.0389404296875L1821.94970703125,515.0389404296875L1786.689208984375,451.118896484375L1801.33935546875,451.118896484375L1770.8291015625,395.8002624511719L1782.919189453125,395.8002624511719L1763.729248046875,361.0148620605469L1744.5391845703125,395.8002624511719L1756.639404296875,395.8002624511719L1726.1187744140625,451.118896484375L1740.7789306640625,451.118896484375L1705.5089111328125,515.0389404296875L1724.6988525390625,515.0389404296875L1690.90869140625,576.2784423828125L1836.549560546875,576.2784423828125Z" text-rendering="geometricPrecision" shape-rendering="geometricPrecision" style="background-color: rgb(255, 239, 186); fill: rgb(87, 0, 96);"/></g></g><g id="shape-4abe3168-f11e-80f4-8006-dcee013c128b"><g class="fills" id="fills-4abe3168-f11e-80f4-8006-dcee013c128b"><path d="M128.4906005859375,622.7756958007812L79.51043701171875,441.71746826171875L30.5301513671875,622.7756958007812L72.76040649414062,622.7756958007812L72.76040649414062,682.965087890625L86.27044677734375,682.965087890625L86.27044677734375,622.7756958007812L128.4906005859375,622.7756958007812Z" text-rendering="geometricPrecision" shape-rendering="geometricPrecision" style="background-color: rgb(255, 239, 186); fill: rgb(132, 10, 108);"/></g></g><g id="shape-4abe3168-f11e-80f4-8006-dcee013c128c"><g class="fills" id="fills-4abe3168-f11e-80f4-8006-dcee013c128c"><path d="M254.15130615234375,505.10736083984375C254.15130615234375,459.5302429199219,230.88116455078125,422.58447265625,202.15103149414062,422.58447265625C173.42086791992188,422.58447265625,150.15078735351562,459.5302429199219,150.15078735351562,505.10736083984375C150.15078735351562,548.5941162109375,171.3209228515625,584.2197265625,198.1510009765625,587.4002075195312L198.1510009765625,642.788818359375L206.00106811523438,642.788818359375L206.00106811523438,587.4002075195312C232.98114013671875,584.2197265625,254.15130615234375,548.5941162109375,254.15130615234375,505.10736083984375Z" text-rendering="geometricPrecision" shape-rendering="geometricPrecision" style="background-color: rgb(255, 239, 186); fill: rgb(132, 10, 108);"/></g></g><g id="shape-4abe3168-f11e-80f4-8006-dcee013c128d"><g class="fills" id="fills-4abe3168-f11e-80f4-8006-dcee013c128d"><path d="M1671.0186767578125,450.27880859375C1671.0186767578125,400.3909912109375,1643.1385498046875,359.9346618652344,1608.7584228515625,359.9346618652344C1574.3780517578125,359.9346618652344,1546.4879150390625,400.3909912109375,1546.4879150390625,450.27880859375C1546.4879150390625,497.8761901855469,1571.858154296875,536.852294921875,1604.04833984375,540.3428344726562L1604.04833984375,698.157470703125L1613.458251953125,698.157470703125L1613.458251953125,540.3428344726562C1645.608642578125,536.90234375,1671.0186767578125,497.8962097167969,1671.0186767578125,450.27880859375Z" text-rendering="geometricPrecision" shape-rendering="geometricPrecision" style="background-color: rgb(255, 239, 186); fill: rgb(132, 10, 108);"/></g></g><g id="shape-4abe3168-f11e-80f4-8006-dcee013c128e"><g class="fills" id="fills-4abe3168-f11e-80f4-8006-dcee013c128e"><path d="M364.07244873046875,572.39111328125C364.0760498046875,543.6251831054688,341.095458984375,520.1289672851562,312.3406982421875,519.4988403320312C283.58599853515625,518.8687133789062,259.59844970703125,541.335693359375,258.34234619140625,570.07421875C257.08624267578125,598.8128051757812,279.0220947265625,623.28759765625,307.72216796875,625.1693725585938L307.72216796875,768.311767578125L314.64215087890625,768.311767578125L314.64215087890625,625.1693725585938C342.44720458984375,623.3462524414062,364.06890869140625,600.260009765625,364.07244873046875,572.39111328125Z" text-rendering="geometricPrecision" shape-rendering="geometricPrecision" style="background-color: rgb(255, 239, 186); fill: rgb(132, 10, 108);"/></g></g><g id="shape-4abe3168-f11e-80f4-8006-dcee013c6296"><g class="fills" id="fills-4abe3168-f11e-80f4-8006-dcee013c6296"><path d="M1682.828857421875,620.0452880859375C1681.3895263671875,620.0452880859375,1680.0093994140625,620.6177978515625,1678.9925537109375,621.6365356445312C1677.9759521484375,622.6553344726562,1677.4058837890625,624.0367431640625,1677.4088134765625,625.4761352539062L1677.4088134765625,679.134521484375C1677.4088134765625,682.1283569335938,1679.8353271484375,684.5553588867188,1682.828857421875,684.5553588867188C1685.8221435546875,684.5553588867188,1688.248779296875,682.1283569335938,1688.248779296875,679.134521484375L1688.248779296875,625.4761352539062C1688.248779296875,622.480712890625,1685.8238525390625,620.05078125,1682.828857421875,620.0452880859375Z" text-rendering="geometricPrecision" shape-rendering="geometricPrecision" style="background-color: rgb(255, 239, 186); fill: rgb(132, 10, 108);"/></g></g><g id="shape-4abe3168-f11e-80f4-8006-dcee013c6297"><g class="fills" id="fills-4abe3168-f11e-80f4-8006-dcee013c6297"><path d="M1662.1087646484375,599.662109375C1660.671142578125,599.662109375,1659.2926025390625,600.2332763671875,1658.276123046875,601.2498168945312C1657.2596435546875,602.2664794921875,1656.688720703125,603.645263671875,1656.688720703125,605.0829467773438L1656.688720703125,658.7413330078125C1656.6031494140625,660.7353515625,1657.6177978515625,662.61572265625,1659.331787109375,663.6383056640625C1661.0455322265625,664.660888671875,1663.1820068359375,664.660888671875,1664.895751953125,663.6383056640625C1666.609375,662.61572265625,1667.6243896484375,660.7353515625,1667.538818359375,658.7413330078125L1667.538818359375,605.0829467773438C1667.532958984375,602.0874633789062,1665.1036376953125,599.662109375,1662.1087646484375,599.662109375Z" text-rendering="geometricPrecision" shape-rendering="geometricPrecision" style="background-color: rgb(255, 239, 186); fill: rgb(132, 10, 108);"/></g></g><g id="shape-4abe3168-f11e-80f4-8006-dcee013c6298"><g class="fills" id="fills-4abe3168-f11e-80f4-8006-dcee013c6298"><path d="M648.5133666992188,804.6241455078125C645.5199584960938,804.6241455078125,643.09326171875,807.0511474609375,643.09326171875,810.044921875L643.09326171875,863.71337890625C643.09326171875,866.7071533203125,645.5199584960938,869.1341552734375,648.5133666992188,869.1341552734375C651.5067138671875,869.1341552734375,653.9334106445312,866.7071533203125,653.9334106445312,863.71337890625L653.9334106445312,810.044921875C653.9334106445312,808.6072998046875,653.3623046875,807.2284545898438,652.3458862304688,806.2117919921875C651.3294677734375,805.1952514648438,649.9507446289062,804.6241455078125,648.5133666992188,804.6241455078125Z" text-rendering="geometricPrecision" shape-rendering="geometricPrecision" style="background-color: rgb(255, 239, 186); fill: rgb(87, 0, 96);"/></g></g><g id="shape-4abe3168-f11e-80f4-8006-dcee013c6299"><g class="fills" id="fills-4abe3168-f11e-80f4-8006-dcee013c6299"><path d="M929.704833984375,858.7825927734375C928.265625,858.7825927734375,926.885498046875,859.3551025390625,925.86865234375,860.3738403320312C924.85205078125,861.3926391601562,924.2822265625,862.7740478515625,924.2847900390625,864.2134399414062L924.2847900390625,917.8719482421875C924.2847900390625,920.8657836914062,926.71142578125,923.2926635742188,929.704833984375,923.2926635742188C932.6982421875,923.2926635742188,935.1248779296875,920.8657836914062,935.1248779296875,917.8719482421875L935.1248779296875,864.2134399414062C935.1275634765625,862.7740478515625,934.5577392578125,861.3926391601562,933.5408935546875,860.3738403320312C932.5240478515625,859.3551025390625,931.1441650390625,858.7825927734375,929.704833984375,858.7825927734375Z" text-rendering="geometricPrecision" shape-rendering="geometricPrecision" style="background-color: rgb(255, 239, 186); fill: rgb(87, 0, 96);"/></g></g><g id="shape-4abe3168-f11e-80f4-8006-dcee013c629a"><g class="fills" id="fills-4abe3168-f11e-80f4-8006-dcee013c629a"><path d="M909.4647216796875,833.94873046875C906.4658203125,833.94873046875,904.03466796875,836.3801879882812,904.03466796875,839.3795166015625L904.03466796875,893.0379638671875C904.159423828125,895.9440307617188,906.551513671875,898.2357788085938,909.459716796875,898.2357788085938C912.3681640625,898.2357788085938,914.760009765625,895.9440307617188,914.8846435546875,893.0379638671875L914.8846435546875,839.3695068359375C914.8792724609375,836.3779907226562,912.455810546875,833.9542236328125,909.4647216796875,833.94873046875Z" text-rendering="geometricPrecision" shape-rendering="geometricPrecision" style="background-color: rgb(255, 239, 186); fill: rgb(87, 0, 96);"/></g></g><g id="shape-4abe3168-f11e-80f4-8006-dcee013c629b"><g class="fills" id="fills-4abe3168-f11e-80f4-8006-dcee013c629b"><path d="M326.2322998046875,656.904296875C324.02313232421875,656.904296875,322.232177734375,658.6954956054688,322.232177734375,660.9049682617188L322.232177734375,700.3011474609375C322.232177734375,702.5106201171875,324.02313232421875,704.3017578125,326.2322998046875,704.3017578125C328.44140625,704.3017578125,330.2322998046875,702.5106201171875,330.2322998046875,700.3011474609375L330.2322998046875,660.8849487304688C330.2213134765625,658.6832885742188,328.43365478515625,656.904296875,326.2322998046875,656.904296875Z" text-rendering="geometricPrecision" shape-rendering="geometricPrecision" style="background-color: rgb(255, 239, 186); fill: rgb(134, 10, 108);"/></g></g><g id="shape-4abe3168-f11e-80f4-8006-dcee013c629c"><g class="fills" id="fills-4abe3168-f11e-80f4-8006-dcee013c629c"><path d="M1802.78955078125,683.4952392578125C1802.66455078125,686.4013061523438,1800.272705078125,688.6930541992188,1797.3642578125,688.6930541992188C1794.4560546875,688.6930541992188,1792.064208984375,686.4013061523438,1791.939208984375,683.4952392578125L1791.939208984375,631.9461669921875C1784.26513671875,629.6195068359375,1778.678955078125,622.4893798828125,1778.678955078125,614.0543823242188C1778.678955078125,603.7305908203125,1787.046875,595.3614501953125,1797.369384765625,595.3614501953125C1807.691650390625,595.3614501953125,1816.059326171875,603.7305908203125,1816.059326171875,614.0543823242188C1816.059326171875,622.4930419921875,1810.468505859375,629.6256713867188,1802.78955078125,631.94921875L1802.78955078125,683.4952392578125Z" text-rendering="geometricPrecision" shape-rendering="geometricPrecision" style="background-color: rgb(255, 239, 186); fill: rgb(87, 0, 96);"/></g></g><g id="shape-4abe3168-f11e-80f4-8006-dcee013c629d"><g class="fills" id="fills-4abe3168-f11e-80f4-8006-dcee013c629d"><path d="M1583.848388671875,709.269287109375C1583.723388671875,712.17529296875,1581.33154296875,714.4671020507812,1578.423095703125,714.4671020507812C1575.514892578125,714.4671020507812,1573.123046875,712.17529296875,1572.9984130859375,709.269287109375L1572.9984130859375,657.72021484375C1565.323974609375,655.3935546875,1559.73828125,648.263427734375,1559.73828125,639.828369140625C1559.73828125,629.504638671875,1568.1058349609375,621.1354370117188,1578.42822265625,621.1354370117188C1588.7506103515625,621.1354370117188,1597.1182861328125,629.504638671875,1597.1182861328125,639.828369140625C1597.1182861328125,648.26708984375,1591.5274658203125,655.3997192382812,1583.848388671875,657.7232055664062L1583.848388671875,709.269287109375Z" text-rendering="geometricPrecision" shape-rendering="geometricPrecision" style="background-color: rgb(255, 239, 186); fill: rgb(132, 10, 108);"/></g></g><g id="shape-4abe3168-f11e-80f4-8006-dcee013c629e"><g class="fills" id="fills-4abe3168-f11e-80f4-8006-dcee013c629e"><path d="M248.601318359375,669.012939453125C248.601318359375,671.222412109375,246.8104248046875,673.0136108398438,244.60125732421875,673.0136108398438C242.39215087890625,673.0136108398438,240.6011962890625,671.222412109375,240.6011962890625,669.012939453125L240.6011962890625,631.1573486328125C234.94891357421875,629.4573364257812,230.83111572265625,624.2120971679688,230.83111572265625,618.0050048828125C230.83111572265625,610.4208984375,236.97833251953125,604.2728271484375,244.56121826171875,604.2728271484375C252.14422607421875,604.2728271484375,258.29132080078125,610.4208984375,258.29132080078125,618.0050048828125C258.29132080078125,624.1828002929688,254.21246337890625,629.40771484375,248.601318359375,631.133056640625L248.601318359375,669.012939453125Z" text-rendering="geometricPrecision" shape-rendering="geometricPrecision" style="background-color: rgb(255, 239, 186); fill: rgb(134, 10, 108);"/></g></g><g id="shape-4abe3168-f11e-80f4-8006-dcee013c9eb3"><g class="fills" id="fills-4abe3168-f11e-80f4-8006-dcee013c9eb3"><path d="M1920,694.056884765625C1901.16064453125,693.8085327148438,1884.53271484375,684.5299682617188,1874.2109375,670.370849609375C1868.0478515625,675.682861328125,1860.023681640625,678.8944702148438,1851.24951171875,678.8944702148438C1831.814697265625,678.8944702148438,1816.059326171875,663.136962890625,1816.059326171875,643.6990356445312C1816.059326171875,624.2610473632812,1831.814697265625,608.5035400390625,1851.24951171875,608.5035400390625C1857.410400390625,608.5035400390625,1863.201416015625,610.0869140625,1868.23779296875,612.8689575195312C1877.14697265625,593.078857421875,1896.912841796875,579.2132568359375,1920,578.9088745117188L1920,694.056884765625Z" text-rendering="geometricPrecision" shape-rendering="geometricPrecision" style="background-color: rgb(255, 239, 186); fill: rgb(132, 10, 108);"/></g></g><g id="shape-4abe3168-f11e-80f4-8006-dcee013c9eb4"><g class="fills" id="fills-4abe3168-f11e-80f4-8006-dcee013c9eb4"><path d="M730.683837890625,845.0604248046875C730.683837890625,817.0166015625,753.4144287109375,794.2825317382812,781.4541015625,794.2825317382812C809.401123046875,794.2825317382812,832.0738525390625,816.866455078125,832.2236328125,844.782470703125C834.4183349609375,844.2900390625,836.700927734375,844.0302734375,839.0443115234375,844.0302734375C856.1817626953125,844.0302734375,870.074462890625,857.925048828125,870.074462890625,875.065185546875C870.074462890625,892.205322265625,856.1817626953125,906.1000366210938,839.0443115234375,906.1000366210938C826.0723876953125,906.1000366210938,814.95947265625,898.1390991210938,810.32373046875,886.8355712890625C802.1270751953125,892.512451171875,792.1788330078125,895.8384399414062,781.4541015625,895.8384399414062C753.4144287109375,895.8384399414062,730.683837890625,873.1044311523438,730.683837890625,845.0604248046875Z" text-rendering="geometricPrecision" shape-rendering="geometricPrecision" style="background-color: rgb(255, 239, 186); fill: rgb(132, 10, 108);"/></g></g><g id="shape-4abe3168-f11e-80f4-8006-dcee013c9eb5"><g class="fills" id="fills-4abe3168-f11e-80f4-8006-dcee013c9eb5"><path d="M1830.7294921875,652.7504272460938C1830.7294921875,637.09619140625,1843.41796875,624.406005859375,1859.06982421875,624.406005859375C1864.951416015625,624.406005859375,1870.414794921875,626.1980590820312,1874.943359375,629.26611328125C1879.56689453125,608.2568359375,1897.687255859375,592.1875,1920,590.9107666015625L1920,688.7660522460938C1904.590087890625,687.88427734375,1891.1796875,679.94677734375,1882.834228515625,668.19921875C1877.77880859375,675.96240234375,1869.023681640625,681.0948486328125,1859.06982421875,681.0948486328125C1843.41796875,681.0948486328125,1830.7294921875,668.4046020507812,1830.7294921875,652.7504272460938Z" text-rendering="geometricPrecision" shape-rendering="geometricPrecision" style="background-color: rgb(255, 239, 186); fill: rgb(87, 0, 96);"/></g></g><g id="shape-4abe3168-f11e-80f4-8006-dcee013c9eb6"><g class="fills" id="fills-4abe3168-f11e-80f4-8006-dcee013c9eb6"><ellipse cx="1360.1370742458184" cy="778.1099855005277" rx="28.69014943607897" ry="28.69448157613283" transform="matrix(1.000000, 0.000000, 0.000000, 1.000000, 0.000000, 0.000000)" text-rendering="geometricPrecision" shape-rendering="geometricPrecision" style="background-color: rgb(255, 239, 186); fill: rgb(132, 10, 108);"/></g></g><g id="shape-4abe3168-f11e-80f4-8006-dcee013c9eb7"><g class="fills" id="fills-4abe3168-f11e-80f4-8006-dcee013c9eb7"><ellipse cx="1363.9470940907631" cy="778.1099855005278" rx="23.760123757449833" ry="23.763711476086314" transform="matrix(1.000000, 0.000000, 0.000000, 1.000000, 0.000000, 0.000000)" text-rendering="geometricPrecision" shape-rendering="geometricPrecision" style="background-color: rgb(255, 239, 186); fill: rgb(87, 0, 96);"/></g></g><g id="shape-4abe3168-f11e-80f4-8006-dcee013c9eb8"><g class="fills" id="fills-4abe3168-f11e-80f4-8006-dcee013c9eb8"><path d="M734.493896484375,851.6414794921875C734.493896484375,828.10498046875,753.5711669921875,809.0248413085938,777.10400390625,809.0248413085938C800.6370849609375,809.0248413085938,819.7142333984375,828.10498046875,819.7142333984375,851.6414794921875C819.7142333984375,852.4614868164062,819.691162109375,853.276123046875,819.645263671875,854.084716796875C823.8616943359375,851.3737182617188,828.87939453125,849.8011474609375,834.2642822265625,849.8011474609375C849.2147216796875,849.8011474609375,861.3343505859375,861.9227294921875,861.3343505859375,876.87548828125C861.3343505859375,891.828125,849.2147216796875,903.94970703125,834.2642822265625,903.94970703125C820.865966796875,903.94970703125,809.7412109375,894.2142944335938,807.5758056640625,881.430419921875C799.83935546875,889.3453369140625,789.04541015625,894.2582397460938,777.10400390625,894.2582397460938C753.5711669921875,894.2582397460938,734.493896484375,875.1781005859375,734.493896484375,851.6414794921875Z" text-rendering="geometricPrecision" shape-rendering="geometricPrecision" style="background-color: rgb(255, 239, 186); fill: rgb(87, 0, 96);"/></g></g><g id="shape-4abe3168-f11e-80f4-8006-dcee013c9eb9"><g class="fills" id="fills-4abe3168-f11e-80f4-8006-dcee013c9eb9"><ellipse cx="190.33099117075" cy="514.608831229076" rx="36.090187980065934" ry="57.0789147281248" transform="matrix(1.000000, 0.000000, 0.000000, 1.000000, 0.000000, 0.000000)" text-rendering="geometricPrecision" shape-rendering="geometricPrecision" style="background-color: rgb(255, 239, 186); fill: rgb(87, 0, 96);"/></g></g><g id="shape-4abe3168-f11e-80f4-8006-dcee013c9eba"><g class="fills" id="fills-4abe3168-f11e-80f4-8006-dcee013c9eba"><ellipse cx="298.0721153532975" cy="574.901553897789" rx="34.43017933371215" ry="39.01609363140261" transform="matrix(1.000000, 0.000000, 0.000000, 1.000000, 0.000000, 0.000000)" text-rendering="geometricPrecision" shape-rendering="geometricPrecision" style="background-color: rgb(255, 239, 186); fill: rgb(87, 0, 96);"/></g></g><g id="shape-4abe3168-f11e-80f4-8006-dcee013c9ebb"><g class="fills" id="fills-4abe3168-f11e-80f4-8006-dcee013c9ebb"><ellipse cx="1622.9784532866167" cy="461.9506069354757" rx="39.130203814352626" ry="61.23956454885371" transform="matrix(1.000000, 0.000000, 0.000000, 1.000000, 0.000000, 0.000000)" text-rendering="geometricPrecision" shape-rendering="geometricPrecision" style="background-color: rgb(255, 239, 186); fill: rgb(87, 0, 96);"/></g></g><g id="shape-4abe3168-f11e-80f4-8006-dcee013ccd29"><g class="fills" id="fills-4abe3168-f11e-80f4-8006-dcee013ccd29"><path d="M67.47039794921875,486.22442626953125L37.140228271484375,598.3218994140625L97.79049682617188,598.3218994140625L67.47039794921875,486.22442626953125Z" text-rendering="geometricPrecision" shape-rendering="geometricPrecision" style="background-color: rgb(255, 239, 186); fill: rgb(87, 0, 96);"/></g></g><g id="shape-4abe3168-f11e-80f4-8006-dcee013ccd2a"><defs><linearGradient gradientUnits="userSpaceOnUse" spreadMethod="pad" y1="1314.95" id="render-41-f" x1="961.39" y2="785" x2="961.39" gradientTransform="matrix(1.000005, 0.000000, 0.000000, 1.000156, -1.400007, -153.205470) translate(0 0)"><stop offset="0" stop-color="#570060"/><stop offset="1" stop-color="#880b6d"/></linearGradient></defs><g class="fills" id="fills-4abe3168-f11e-80f4-8006-dcee013ccd2a"><path d="M1920,672.5635375976562C1859.519775390625,659.1314086914062,1781.5791015625,636.827880859375,1653.9986572265625,656.56103515625C1430.9974365234375,690.9863891601562,1292.38671875,892.3978271484375,954.844970703125,892.3978271484375C552.2828979492188,892.3978271484375,408.60211181640625,652.1203002929688,204.13104248046875,633.307373046875C110.31057739257812,624.6260375976562,51.380279541015625,660.111572265625,5.684341886080802e-14,669.7530517578125L5.684341886080802e-14,1162L1919.690185546875,1162Z" text-rendering="geometricPrecision" shape-rendering="geometricPrecision" fill="url(#render-41-f)" style="background-color: rgb(255, 239, 186); fill: url(&quot;#render-41-f&quot;);"/></g></g></g><g id="shape-4abe3168-f11e-80f4-8006-dcee013d0fb4" rx="0" ry="0" style="fill: rgb(0, 0, 0);"><g id="shape-4abe3168-f11e-80f4-8006-dcee013d5a02"><g class="fills" id="fills-4abe3168-f11e-80f4-8006-dcee013d5a02"><path d="M1194.8599853515625,943.9028930664062C1226.655029296875,943.9028930664062,1252.4300537109375,969.6631469726562,1252.4300537109375,1001.43994140625C1252.4300537109375,1033.216552734375,1226.655029296875,1058.976806640625,1194.8599853515625,1058.976806640625C1177.51904296875,1058.976806640625,1161.968994140625,1051.314208984375,1151.4144287109375,1039.192138671875C1134.8101806640625,1051.6114501953125,1114.194580078125,1058.966796875,1091.8599853515625,1058.966796875C1036.913330078125,1058.966796875,992.3699951171875,1014.4491577148438,992.3699951171875,959.533935546875C992.3699951171875,904.6187133789062,1036.913330078125,860.10107421875,1091.8599853515625,860.10107421875C1141.5513916015625,860.10107421875,1182.734130859375,896.5101928710938,1190.1575927734375,944.0921020507812C1191.7083740234375,943.966796875,1193.2767333984375,943.9028930664062,1194.8599853515625,943.9028930664062Z" text-rendering="geometricPrecision" shape-rendering="geometricPrecision" style="background-color: rgb(255, 239, 186); fill: rgb(47, 0, 87);"/></g></g><g id="shape-4abe3168-f11e-80f4-8006-dcee013d5a03"><g class="fills" id="fills-4abe3168-f11e-80f4-8006-dcee013d5a03"><ellipse cx="838.6600042446828" cy="1013.7428162158242" rx="57.57000028878451" ry="57.536955975045885" transform="matrix(1.000000, 0.000000, 0.000000, 1.000000, 0.000000, 0.000000)" text-rendering="geometricPrecision" shape-rendering="geometricPrecision" style="background-color: rgb(255, 239, 186); fill: rgb(47, 0, 87);"/></g></g><g id="shape-4abe3168-f11e-80f4-8006-dcee013d5a04"><g class="fills" id="fills-4abe3168-f11e-80f4-8006-dcee013d5a04"><path d="M243.7305908203125,607.9058837890625C243.7305908203125,517.4078369140625,193.14056396484375,444,130.73056030273438,444C68.32061767578125,444,17.730621337890625,517.367919921875,17.730621337890625,607.9058837890625C17.730621337890625,694.236328125,63.730560302734375,764.92578125,122.19061279296875,771.2620849609375L122.19061279296875,1057.4876708984375L139.28057861328125,1057.4876708984375L139.28057861328125,771.2720947265625C197.69061279296875,764.92578125,243.7305908203125,694.236328125,243.7305908203125,607.9058837890625Z" text-rendering="geometricPrecision" shape-rendering="geometricPrecision" style="background-color: rgb(255, 239, 186); fill: rgb(26, 0, 77);"/></g></g><g id="shape-4abe3168-f11e-80f4-8006-dcee013d5a05"><g class="fills" id="fills-4abe3168-f11e-80f4-8006-dcee013d5a05"><path d="M412.45062255859375,770.852294921875C412.468994140625,715.847412109375,368.5010986328125,670.91162109375,313.4779052734375,669.7009887695312C258.45477294921875,668.4904174804688,212.55075073242188,711.4488525390625,210.14718627929688,766.4012451171875C207.74349975585938,821.3536376953125,249.72161865234375,868.1516723632812,304.64056396484375,871.744384765625L304.64056396484375,1145.4072265625L317.86065673828125,1145.4072265625L317.86065673828125,871.744384765625C371.06341552734375,868.2738037109375,412.442626953125,824.1376953125,412.45062255859375,770.852294921875Z" text-rendering="geometricPrecision" shape-rendering="geometricPrecision" style="background-color: rgb(255, 239, 186); fill: rgb(26, 0, 77);"/></g></g><g id="shape-4abe3168-f11e-80f4-8006-dcee013d5a06"><g class="fills" id="fills-4abe3168-f11e-80f4-8006-dcee013d5a06"><path d="M29.55999755859375,1004.7579956054688C29.55999755859375,974.1553344726562,53.465484619140625,949.1328125,83.63143920898438,947.3255004882812C93.71316528320312,907.2176513671875,130.03155517578125,877.5211181640625,173.28994750976562,877.5211181640625C224.34326171875,877.5211181640625,265.73004150390625,918.884033203125,265.73004150390625,969.9080200195312C265.73004150390625,1020.931884765625,224.34326171875,1062.294921875,173.28994750976562,1062.294921875C155.41879272460938,1062.294921875,138.73208618164062,1057.2265625,124.5904541015625,1048.449462890625C114.52169799804688,1057.080322265625,101.43521118164062,1062.294921875,87.1300048828125,1062.294921875C55.334991455078125,1062.294921875,29.55999755859375,1036.5347900390625,29.55999755859375,1004.7579956054688Z" text-rendering="geometricPrecision" shape-rendering="geometricPrecision" style="background-color: rgb(255, 239, 186); fill: rgb(47, 0, 87);"/></g></g><g id="shape-4abe3168-f11e-80f4-8006-dcee013d5a07"><g class="fills" id="fills-4abe3168-f11e-80f4-8006-dcee013d5a07"><path d="M34.649993896484375,1004.7579956054688C34.649993896484375,979.8807983398438,54.82855224609375,959.7138671875,79.72000122070312,959.7138671875C80.4525146484375,959.7138671875,81.18093872070312,959.7313232421875,81.90496826171875,959.765869140625C89.8076171875,928.3859252929688,118.22927856445312,905.1551513671875,152.07998657226562,905.1551513671875C192.04336547851562,905.1551513671875,224.43994140625,937.5332641601562,224.43994140625,977.4735717773438C224.43994140625,1017.4140625,192.04336547851562,1049.792236328125,152.07998657226562,1049.792236328125C136.868408203125,1049.792236328125,122.75308227539062,1045.10107421875,111.10348510742188,1037.0872802734375C102.98867797851562,1044.9571533203125,91.92041015625,1049.802001953125,79.72000122070312,1049.802001953125C54.82855224609375,1049.802001953125,34.649993896484375,1029.63525390625,34.649993896484375,1004.7579956054688Z" text-rendering="geometricPrecision" shape-rendering="geometricPrecision" style="background-color: rgb(255, 239, 186); fill: rgb(27, 6, 61);"/></g></g><g id="shape-4abe3168-f11e-80f4-8006-dcee013d5a08"><g class="fills" id="fills-4abe3168-f11e-80f4-8006-dcee013d5a08"><ellipse cx="833.1800042171941" cy="1020.2390853462359" rx="45.07000022608156" ry="45.04413072425427" transform="matrix(1.000000, 0.000000, 0.000000, 1.000000, 0.000000, 0.000000)" text-rendering="geometricPrecision" shape-rendering="geometricPrecision" style="background-color: rgb(255, 239, 186); fill: rgb(27, 6, 61);"/></g></g><g id="shape-4abe3168-f11e-80f4-8006-dcee013d5a09"><g class="fills" id="fills-4abe3168-f11e-80f4-8006-dcee013d5a09"><path d="M1200.8199462890625,962.4623413085938C1225.7115478515625,962.4623413085938,1245.8900146484375,982.6292114257812,1245.8900146484375,1007.5064086914062C1245.8900146484375,1032.383544921875,1225.7115478515625,1052.550537109375,1200.8199462890625,1052.550537109375C1185.646240234375,1052.550537109375,1172.2236328125,1045.05615234375,1164.0560302734375,1033.5693359375C1151.1820068359375,1045.357177734375,1134.0264892578125,1052.550537109375,1115.18994140625,1052.550537109375C1075.2265625,1052.550537109375,1042.8299560546875,1020.1724853515625,1042.8299560546875,980.2319946289062C1042.8299560546875,940.2916870117188,1075.2265625,907.91357421875,1115.18994140625,907.91357421875C1149.91650390625,907.91357421875,1178.929443359375,932.3619384765625,1185.93701171875,964.9760131835938C1190.59619140625,963.3475341796875,1195.604736328125,962.4623413085938,1200.8199462890625,962.4623413085938Z" text-rendering="geometricPrecision" shape-rendering="geometricPrecision" style="background-color: rgb(255, 239, 186); fill: rgb(27, 6, 61);"/></g></g><g id="shape-4abe3168-f11e-80f4-8006-dcee013da810"><g class="fills" id="fills-4abe3168-f11e-80f4-8006-dcee013da810"><path d="M1903.31005859375,673.93798828125C1903.31005859375,547.0108642578125,1852.889892578125,444.0699768066406,1790.68994140625,444.0699768066406C1728.4898681640625,444.0699768066406,1678.06982421875,547.0108642578125,1678.06982421875,673.93798828125C1678.06982421875,795.0584106445312,1723.949951171875,894.3013916015625,1782.169921875,903.186279296875L1782.169921875,1057.4876708984375L1799.170166015625,1057.4876708984375L1799.170166015625,903.1962890625C1857.419921875,894.3013916015625,1903.31005859375,795.0584106445312,1903.31005859375,673.93798828125Z" text-rendering="geometricPrecision" shape-rendering="geometricPrecision" style="background-color: rgb(255, 239, 186); fill: rgb(26, 0, 77);"/></g></g><g id="shape-4abe3168-f11e-80f4-8006-dcee013da811"><g class="fills" id="fills-4abe3168-f11e-80f4-8006-dcee013da811"><ellipse cx="105.61059456753657" cy="609.2351288553925" rx="84.37000042321955" ry="147.10551589312144" transform="matrix(1.000000, 0.000000, 0.000000, 1.000000, 0.000000, 0.000000)" text-rendering="geometricPrecision" shape-rendering="geometricPrecision" style="background-color: rgb(255, 239, 186); fill: rgb(27, 6, 61);"/></g></g><g id="shape-4abe3168-f11e-80f4-8006-dcee013da812"><g class="fills" id="fills-4abe3168-f11e-80f4-8006-dcee013da812"><ellipse cx="1813.8400091364128" cy="672.9085605936274" rx="84.37000042321972" ry="202.40375758322537" transform="matrix(1.000000, 0.000000, 0.000000, 1.000000, 0.000000, 0.000000)" text-rendering="geometricPrecision" shape-rendering="geometricPrecision" style="background-color: rgb(255, 239, 186); fill: rgb(27, 6, 61);"/></g></g><g id="shape-4abe3168-f11e-80f4-8006-dcee013da813"><g class="fills" id="fills-4abe3168-f11e-80f4-8006-dcee013da813"><ellipse cx="288.74059548615924" cy="770.5824655344164" rx="76.50000038374176" ry="78.61485073818142" transform="matrix(1.000000, 0.000000, 0.000000, 1.000000, 0.000000, 0.000000)" text-rendering="geometricPrecision" shape-rendering="geometricPrecision" style="background-color: rgb(255, 239, 186); fill: rgb(27, 6, 61);"/></g></g><g id="shape-4abe3168-f11e-80f4-8006-dcee013da814"><g class="fills" id="fills-4abe3168-f11e-80f4-8006-dcee013da814"><path d="M1655.60986328125,878.0607299804688C1706.6632080078125,878.0607299804688,1748.050048828125,919.423828125,1748.050048828125,970.4476928710938C1748.050048828125,1021.4714965820312,1706.6632080078125,1062.8345947265625,1655.60986328125,1062.8345947265625C1641.9072265625,1062.8345947265625,1628.90087890625,1059.8548583984375,1617.203857421875,1054.5081787109375C1606.6768798828125,1066.0244140625,1591.527587890625,1073.2486572265625,1574.68994140625,1073.2486572265625C1542.8948974609375,1073.2486572265625,1517.1199951171875,1047.488525390625,1517.1199951171875,1015.711669921875C1517.1199951171875,987.638671875,1537.2366943359375,964.261474609375,1563.848876953125,959.1932983398438C1569.404052734375,913.4776611328125,1608.36865234375,878.0607299804688,1655.60986328125,878.0607299804688Z" text-rendering="geometricPrecision" shape-rendering="geometricPrecision" style="background-color: rgb(255, 239, 186); fill: rgb(47, 0, 87);"/></g></g><g id="shape-4abe3168-f11e-80f4-8006-dcee013da815"><g class="fills" id="fills-4abe3168-f11e-80f4-8006-dcee013da815"><path d="M1657.340087890625,923.4447021484375C1697.30322265625,923.4447021484375,1729.699951171875,955.8228149414062,1729.699951171875,995.7631225585938C1729.699951171875,1035.70361328125,1697.30322265625,1068.08154296875,1657.340087890625,1068.08154296875C1642.0521240234375,1068.08154296875,1627.871826171875,1063.343505859375,1616.188720703125,1055.256103515625C1609.029296875,1060.0430908203125,1600.420654296875,1062.8345947265625,1591.1600341796875,1062.8345947265625C1566.2686767578125,1062.8345947265625,1546.0897216796875,1042.667724609375,1546.0897216796875,1017.79052734375C1546.0897216796875,993.73828125,1564.9525146484375,974.0890502929688,1588.69970703125,972.8123168945312C1598.2996826171875,944.1221313476562,1625.403564453125,923.4447021484375,1657.340087890625,923.4447021484375Z" text-rendering="geometricPrecision" shape-rendering="geometricPrecision" style="background-color: rgb(255, 239, 186); fill: rgb(27, 6, 61);"/></g></g><g id="shape-4abe3168-f11e-80f4-8006-dcee013da816"><defs><linearGradient gradientUnits="userSpaceOnUse" spreadMethod="pad" y1="1364.95" id="render-57-g" x1="961.39" y2="1104.7" x2="961.39" gradientTransform="matrix(1.000000, 0.000000, 0.000000, 0.999426, -1.390000, -119.216514) translate(0 0)"><stop offset="0" stop-color="#160035"/><stop offset="1" stop-color="#300449"/></linearGradient></defs><g class="fills" id="fills-4abe3168-f11e-80f4-8006-dcee013da816"><path d="M1920,1063.1044921875C1632.9498291015625,988.8570556640625,1488.52001953125,1118.28271484375,1384.0599365234375,1094.3265380859375C1224.5799560546875,1057.737548828125,1164.8800048828125,964.6209716796875,1010.6600341796875,988.8570556640625C809.659912109375,1020.4489135742188,728.0401611328125,1130.14599609375,592.280029296875,1119.681884765625C436.61004638671875,1107.6588134765625,297.6099853515625,987.5877685546875,0.000030517578125,1062.52490234375L0.000030517578125,1245L1920,1245Z" text-rendering="geometricPrecision" shape-rendering="geometricPrecision" fill="url(#render-57-g)" style="background-color: rgb(255, 239, 186); fill: url(&quot;#render-57-g&quot;);"/></g></g><g id="shape-4abe3168-f11e-80f4-8006-dcee013da817"><g class="fills" id="fills-4abe3168-f11e-80f4-8006-dcee013da817"><path d="M558.5400390625,1083.87255859375C557.1024780273438,1083.87255859375,555.7239379882812,1084.443359375,554.70751953125,1085.458984375C553.6910400390625,1086.4749755859375,553.1200561523438,1087.852783203125,553.1200561523438,1089.289306640625L553.1200561523438,1117.972900390625C553.1200561523438,1120.964599609375,555.5465698242188,1123.3897705078125,558.5400390625,1123.3897705078125C561.5333862304688,1123.3897705078125,563.9598999023438,1120.964599609375,563.9598999023438,1117.972900390625L563.9598999023438,1089.289306640625C563.9598999023438,1087.852783203125,563.388916015625,1086.4749755859375,562.37255859375,1085.458984375C561.3560791015625,1084.443359375,559.9774780273438,1083.87255859375,558.5400390625,1083.87255859375Z" text-rendering="geometricPrecision" shape-rendering="geometricPrecision" style="background-color: rgb(255, 239, 186); fill: rgb(198, 24, 91);"/></g></g><g id="shape-4abe3168-f11e-80f4-8006-dcee013da818"><g class="fills" id="fills-4abe3168-f11e-80f4-8006-dcee013da818"><ellipse cx="558.540002839536" cy="1073.6084348176178" rx="18.690000093753383" ry="18.679272314983677" transform="matrix(1.000000, 0.000000, 0.000000, 1.000000, 0.000000, 0.000000)" text-rendering="geometricPrecision" shape-rendering="geometricPrecision" style="background-color: rgb(255, 239, 186); fill: rgb(255, 155, 71);"/></g></g><g id="shape-4abe3168-f11e-80f4-8006-dcee013dfaf7"><g class="fills" id="fills-4abe3168-f11e-80f4-8006-dcee013dfaf7"><path d="M518.0399169921875,1010.4646606445312C516.6026000976562,1010.4646606445312,515.2239379882812,1011.035400390625,514.20751953125,1012.05126953125C513.1910400390625,1013.067138671875,512.6200561523438,1014.4448852539062,512.6200561523438,1015.881591796875L512.6200561523438,1117.972900390625C512.7447509765625,1120.876953125,515.13671875,1123.1669921875,518.0450439453125,1123.1669921875C520.9533081054688,1123.1669921875,523.34521484375,1120.876953125,523.4700317382812,1117.972900390625L523.4700317382812,1015.881591796875C523.4700317382812,1014.4431762695312,522.8976440429688,1013.0638427734375,521.8790283203125,1012.0477294921875C520.8603515625,1011.0316162109375,519.4791870117188,1010.4620971679688,518.0399169921875,1010.4646606445312Z" text-rendering="geometricPrecision" shape-rendering="geometricPrecision" style="background-color: rgb(255, 239, 186); fill: rgb(198, 24, 91);"/></g></g><g id="shape-4abe3168-f11e-80f4-8006-dcee013dfaf8"><g class="fills" id="fills-4abe3168-f11e-80f4-8006-dcee013dfaf8"><path d="M496.24005126953125,970.2977905273438L496.24005126953125,998.45166015625C496.4940185546875,1010.305419921875,506.181640625,1019.7822875976562,518.0450439453125,1019.7822875976562C529.9083251953125,1019.7822875976562,539.595947265625,1010.305419921875,539.8499755859375,998.45166015625L539.8499755859375,970.2977905273438L518.0399169921875,992.085205078125Z" text-rendering="geometricPrecision" shape-rendering="geometricPrecision" style="background-color: rgb(255, 239, 186); fill: rgb(255, 98, 84);"/></g></g><g id="shape-4abe3168-f11e-80f4-8006-dcee013dfafd"><g class="fills" id="fills-4abe3168-f11e-80f4-8006-dcee013dfafd"><path d="M202.31997680664062,1006.2271118164062C200.88082885742188,1006.2271118164062,199.5006103515625,1006.7991333007812,198.48391723632812,1007.8172607421875C197.46719360351562,1008.835205078125,196.8973388671875,1010.2156372070312,196.89996337890625,1011.654052734375L196.89996337890625,1065.273193359375C196.89996337890625,1068.264892578125,199.32659912109375,1070.6900634765625,202.31997680664062,1070.6900634765625C205.3133544921875,1070.6900634765625,207.739990234375,1068.264892578125,207.739990234375,1065.273193359375L207.739990234375,1011.654052734375C207.739990234375,1008.6607666015625,205.31497192382812,1006.2326049804688,202.31997680664062,1006.2271118164062Z" text-rendering="geometricPrecision" shape-rendering="geometricPrecision" style="background-color: rgb(255, 239, 186); fill: rgb(87, 0, 96);"/></g></g><g id="shape-4abe3168-f11e-80f4-8006-dcee013dfafe"><g class="fills" id="fills-4abe3168-f11e-80f4-8006-dcee013dfafe"><path d="M180.52001953125,966.0702514648438L180.52001953125,994.2239990234375C180.52001953125,1002.0079345703125,184.675048828125,1009.2006225585938,191.42001342773438,1013.092529296875C198.1649169921875,1016.9844970703125,206.47506713867188,1016.9844970703125,213.22000122070312,1013.092529296875C219.96490478515625,1009.2006225585938,224.11993408203125,1002.0079345703125,224.11993408203125,994.2239990234375L224.11993408203125,966.0702514648438L202.31997680664062,987.857666015625Z" text-rendering="geometricPrecision" shape-rendering="geometricPrecision" style="background-color: rgb(255, 239, 186); fill: rgb(198, 24, 91);"/></g></g><g id="shape-4abe3168-f11e-80f4-8006-dcee013e0356"><g class="fills" id="fills-4abe3168-f11e-80f4-8006-dcee013e0356"><path d="M158.70999145507812,957.7549438476562C155.71499633789062,957.7604370117188,153.29000854492188,960.1885986328125,153.29000854492188,963.181884765625L153.29000854492188,1065.273193359375C153.41470336914062,1068.1771240234375,155.80670166015625,1070.46728515625,158.71502685546875,1070.46728515625C161.62332153320312,1070.46728515625,164.01522827148438,1068.1771240234375,164.1400146484375,1065.273193359375L164.1400146484375,963.161865234375C164.12899780273438,960.1724853515625,161.70111083984375,957.7549438476562,158.70999145507812,957.7549438476562Z" text-rendering="geometricPrecision" shape-rendering="geometricPrecision" style="background-color: rgb(255, 239, 186); fill: rgb(87, 0, 96);"/></g></g><g id="shape-4abe3168-f11e-80f4-8006-dcee013e0357"><g class="fills" id="fills-4abe3168-f11e-80f4-8006-dcee013e0357"><path d="M136.90997314453125,917.5980224609375L136.90997314453125,945.7518310546875C137.16403198242188,957.605712890625,146.85162353515625,967.0825805664062,158.71502685546875,967.0825805664062C170.578369140625,967.0825805664062,180.2659912109375,957.605712890625,180.52001953125,945.7518310546875L180.52001953125,917.5980224609375L158.70999145507812,939.385498046875Z" text-rendering="geometricPrecision" shape-rendering="geometricPrecision" style="background-color: rgb(255, 239, 186); fill: rgb(255, 98, 84);"/></g></g><g id="shape-4abe3168-f11e-80f4-8006-dcee013e0358"><g class="fills" id="fills-4abe3168-f11e-80f4-8006-dcee013e0358"><path d="M87.1300048828125,1031.122802734375C84.13504028320312,1031.1282958984375,81.71005249023438,1033.556396484375,81.71005249023438,1036.5498046875L81.71005249023438,1065.2332763671875C81.83474731445312,1068.13720703125,84.22671508789062,1070.42724609375,87.13504028320312,1070.42724609375C90.0433349609375,1070.42724609375,92.43524169921875,1068.13720703125,92.56002807617188,1065.2332763671875L92.56002807617188,1036.5498046875C92.56002807617188,1035.1103515625,91.9879150390625,1033.7301025390625,90.96963500976562,1032.71240234375C89.9512939453125,1031.694580078125,88.57012939453125,1031.122802734375,87.1300048828125,1031.122802734375Z" text-rendering="geometricPrecision" shape-rendering="geometricPrecision" style="background-color: rgb(255, 239, 186); fill: rgb(198, 24, 91);"/></g></g><g id="shape-4abe3168-f11e-80f4-8006-dcee013e0359"><g class="fills" id="fills-4abe3168-f11e-80f4-8006-dcee013e0359"><ellipse cx="87.1300004748336" cy="1020.9087007796785" rx="18.690000093753326" ry="18.679272314983677" transform="matrix(1.000000, 0.000000, 0.000000, 1.000000, 0.000000, 0.000000)" text-rendering="geometricPrecision" shape-rendering="geometricPrecision" style="background-color: rgb(255, 239, 186); fill: rgb(255, 155, 71);"/></g></g><g id="shape-4abe3168-f11e-80f4-8006-dcee013e035a"><g class="fills" id="fills-4abe3168-f11e-80f4-8006-dcee013e035a"><path d="M1182.1300048828125,1013.7427978515625C1183.5692138671875,1013.7427978515625,1184.9493408203125,1014.3148803710938,1185.966064453125,1015.3329467773438C1186.982666015625,1016.3509521484375,1187.5526123046875,1017.7313842773438,1187.5499267578125,1019.1697387695312L1187.5499267578125,1047.853271484375C1187.5499267578125,1049.78857421875,1186.516845703125,1051.5767822265625,1184.840087890625,1052.54443359375C1183.1632080078125,1053.5120849609375,1181.096923828125,1053.5120849609375,1179.4200439453125,1052.54443359375C1177.7431640625,1051.5767822265625,1176.7099609375,1049.78857421875,1176.7099609375,1047.853271484375L1176.7099609375,1019.1296997070312C1176.7320556640625,1016.1520385742188,1179.1505126953125,1013.7481689453125,1182.1300048828125,1013.7427978515625Z" text-rendering="geometricPrecision" shape-rendering="geometricPrecision" style="background-color: rgb(255, 239, 186); fill: rgb(198, 24, 91);"/></g></g><g id="shape-4abe3168-f11e-80f4-8006-dcee013e035b"><g class="fills" id="fills-4abe3168-f11e-80f4-8006-dcee013e035b"><ellipse cx="1182.1300059676082" cy="1002.359353847303" rx="18.690000093753383" ry="18.67927231498362" transform="matrix(1.000000, 0.000000, 0.000000, 1.000000, 0.000000, 0.000000)" text-rendering="geometricPrecision" shape-rendering="geometricPrecision" style="background-color: rgb(255, 239, 186); fill: rgb(255, 98, 84);"/></g></g><g id="shape-4abe3168-f11e-80f4-8006-dcee013e035c"><g class="fills" id="fills-4abe3168-f11e-80f4-8006-dcee013e035c"><path d="M939.4100341796875,956.3058471679688C937.969970703125,956.3058471679688,936.5887451171875,956.8775024414062,935.5703125,957.8953857421875C934.552001953125,958.9130859375,933.9801025390625,960.2933959960938,933.9801025390625,961.7326049804688L933.9801025390625,1047.853271484375C934.1048583984375,1050.7572021484375,936.4967041015625,1053.0472412109375,939.405029296875,1053.0472412109375C942.3133544921875,1053.0472412109375,944.705322265625,1050.7572021484375,944.8299560546875,1047.853271484375L944.8299560546875,961.7326049804688C944.8299560546875,958.7393798828125,942.4049072265625,956.311279296875,939.4100341796875,956.3058471679688Z" text-rendering="geometricPrecision" shape-rendering="geometricPrecision" style="background-color: rgb(255, 239, 186); fill: rgb(198, 24, 91);"/></g></g><g id="shape-4abe3168-f11e-80f4-8006-dcee013e035d"><g class="fills" id="fills-4abe3168-f11e-80f4-8006-dcee013e035d"><ellipse cx="939.4100047500682" cy="945.9617435351295" rx="18.690000093753383" ry="18.679272314983564" transform="matrix(1.000000, 0.000000, 0.000000, 1.000000, 0.000000, 0.000000)" text-rendering="geometricPrecision" shape-rendering="geometricPrecision" style="background-color: rgb(255, 239, 186); fill: rgb(255, 155, 71);"/></g></g><g id="shape-4abe3168-f11e-80f4-8006-dcee013e035e"><g class="fills" id="fills-4abe3168-f11e-80f4-8006-dcee013e035e"><path d="M1110.5499267578125,940.3350219726562C1111.9874267578125,940.3350219726562,1113.3662109375,940.90576171875,1114.3824462890625,941.9215087890625C1115.39892578125,942.9373779296875,1115.969970703125,944.3152465820312,1115.969970703125,945.7518310546875L1115.969970703125,1047.853271484375C1115.969970703125,1050.844970703125,1113.5433349609375,1053.2701416015625,1110.5499267578125,1053.2701416015625C1107.5567626953125,1053.2701416015625,1105.1300048828125,1050.844970703125,1105.1300048828125,1047.853271484375L1105.1300048828125,945.7518310546875C1105.1300048828125,942.76025390625,1107.5567626953125,940.3350219726562,1110.5499267578125,940.3350219726562Z" text-rendering="geometricPrecision" shape-rendering="geometricPrecision" style="background-color: rgb(255, 239, 186); fill: rgb(87, 0, 96);"/></g></g><g id="shape-4abe3168-f11e-80f4-8006-dcee013e78d5"><g class="fills" id="fills-4abe3168-f11e-80f4-8006-dcee013e78d5"><path d="M1088.75,899.02880859375L1088.75,927.1824951171875C1088.75,939.2154541015625,1098.5101318359375,948.9700927734375,1110.5499267578125,948.9700927734375C1122.58984375,948.9700927734375,1132.35009765625,939.2154541015625,1132.35009765625,927.1824951171875L1132.35009765625,899.018798828125L1110.5499267578125,920.816162109375Z" text-rendering="geometricPrecision" shape-rendering="geometricPrecision" style="background-color: rgb(255, 239, 186); fill: rgb(198, 24, 91);"/></g></g><g id="shape-4abe3168-f11e-80f4-8006-dcee013e78d6"><g class="fills" id="fills-4abe3168-f11e-80f4-8006-dcee013e78d6"><path d="M1066.93994140625,988.8071899414062C1068.380126953125,988.8071899414062,1069.7613525390625,989.3788452148438,1070.779541015625,990.3966064453125C1071.7978515625,991.414306640625,1072.369873046875,992.7947387695312,1072.369873046875,994.2340087890625L1072.369873046875,1047.853271484375C1072.245361328125,1050.7572021484375,1069.8533935546875,1053.0472412109375,1066.94482421875,1053.0472412109375C1064.0367431640625,1053.0472412109375,1061.644775390625,1050.7572021484375,1061.5201416015625,1047.853271484375L1061.5201416015625,994.2340087890625C1061.5201416015625,991.24072265625,1063.94482421875,988.8126831054688,1066.93994140625,988.8071899414062Z" text-rendering="geometricPrecision" shape-rendering="geometricPrecision" style="background-color: rgb(255, 239, 186); fill: rgb(87, 0, 96);"/></g></g><g id="shape-4abe3168-f11e-80f4-8006-dcee013e78d7"><g class="fills" id="fills-4abe3168-f11e-80f4-8006-dcee013e78d7"><path d="M1045.1400146484375,948.9800415039062L1045.1400146484375,977.15380859375C1045.39404296875,989.0076293945312,1055.0816650390625,998.484619140625,1066.94482421875,998.484619140625C1078.8084716796875,998.484619140625,1088.4959716796875,989.0076293945312,1088.75,977.15380859375L1088.75,948.9999389648438L1066.93994140625,970.7874755859375Z" text-rendering="geometricPrecision" shape-rendering="geometricPrecision" style="background-color: rgb(255, 239, 186); fill: rgb(255, 98, 84);"/></g></g><g id="shape-4abe3168-f11e-80f4-8006-dcee013e78d8"><g class="fills" id="fills-4abe3168-f11e-80f4-8006-dcee013e78d8"><path d="M1684.60986328125,1006.77685546875C1683.172607421875,1006.77685546875,1681.793701171875,1007.3475341796875,1680.777587890625,1008.3634643554688C1679.7608642578125,1009.3792114257812,1679.1900634765625,1010.757080078125,1679.1900634765625,1012.1937866210938L1679.1900634765625,1065.8128662109375C1679.314697265625,1068.716796875,1681.7066650390625,1071.0068359375,1684.6148681640625,1071.0068359375C1687.5233154296875,1071.0068359375,1689.915283203125,1068.716796875,1690.0399169921875,1065.8128662109375L1690.0399169921875,1012.1937866210938C1690.0399169921875,1010.75537109375,1689.4676513671875,1009.3760375976562,1688.448974609375,1008.3599243164062C1687.430419921875,1007.3436279296875,1686.049072265625,1006.774169921875,1684.60986328125,1006.77685546875Z" text-rendering="geometricPrecision" shape-rendering="geometricPrecision" style="background-color: rgb(255, 239, 186); fill: rgb(87, 0, 96);"/></g></g><g id="shape-4abe3168-f11e-80f4-8006-dcee013e9ca0"><g class="fills" id="fills-4abe3168-f11e-80f4-8006-dcee013e9ca0"><path d="M1662.8399658203125,966.60986328125L1662.8399658203125,994.7637329101562C1663.0941162109375,1006.6174926757812,1672.7816162109375,1016.094482421875,1684.6451416015625,1016.094482421875C1696.5084228515625,1016.094482421875,1706.19580078125,1006.6174926757812,1706.4500732421875,994.7637329101562L1706.4500732421875,966.60986328125L1684.60986328125,988.4073486328125Z" text-rendering="geometricPrecision" shape-rendering="geometricPrecision" style="background-color: rgb(255, 239, 186); fill: rgb(198, 24, 91);"/></g></g><g id="shape-4abe3168-f11e-80f4-8006-dcee013e9ca1"><g class="fills" id="fills-4abe3168-f11e-80f4-8006-dcee013e9ca1"><path d="M1641.0401611328125,958.3046875C1639.6016845703125,958.302001953125,1638.2218017578125,958.871826171875,1637.20458984375,959.8882446289062C1636.1873779296875,960.9047241210938,1635.6173095703125,962.2840576171875,1635.6199951171875,963.7216186523438L1635.6199951171875,1065.8128662109375C1635.6199951171875,1068.8045654296875,1638.0467529296875,1071.229736328125,1641.0401611328125,1071.229736328125C1644.0333251953125,1071.229736328125,1646.4600830078125,1068.8045654296875,1646.4600830078125,1065.8128662109375L1646.4600830078125,963.7216186523438C1646.4600830078125,960.7299194335938,1644.0333251953125,958.3046875,1641.0401611328125,958.3046875Z" text-rendering="geometricPrecision" shape-rendering="geometricPrecision" style="background-color: rgb(255, 239, 186); fill: rgb(87, 0, 96);"/></g></g><g id="shape-4abe3168-f11e-80f4-8006-dcee013e9ca2"><g class="fills" id="fills-4abe3168-f11e-80f4-8006-dcee013e9ca2"><path d="M1619.2401123046875,918.1876831054688L1619.2401123046875,946.341552734375C1619.2401123046875,954.1254272460938,1623.394775390625,961.3180541992188,1630.139892578125,965.2100219726562C1636.885009765625,969.10205078125,1645.19482421875,969.10205078125,1651.93994140625,965.2100219726562C1658.68505859375,961.3180541992188,1662.8399658203125,954.1254272460938,1662.8399658203125,946.341552734375L1662.8399658203125,918.1876831054688L1641.0401611328125,939.9752197265625Z" text-rendering="geometricPrecision" shape-rendering="geometricPrecision" style="background-color: rgb(255, 239, 186); fill: rgb(255, 98, 84);"/></g></g><g id="shape-4abe3168-f11e-80f4-8006-dcee013e9ca3"><g class="fills" id="fills-4abe3168-f11e-80f4-8006-dcee013e9ca3"><path d="M1574.68994140625,1042.2764892578125C1573.2508544921875,1042.2738037109375,1571.8695068359375,1042.84326171875,1570.8509521484375,1043.859375C1569.8323974609375,1044.87548828125,1569.260009765625,1046.2548828125,1569.260009765625,1047.693359375L1569.260009765625,1076.376953125C1569.3846435546875,1079.28076171875,1571.77685546875,1081.5709228515625,1574.6849365234375,1081.5709228515625C1577.5931396484375,1081.5709228515625,1579.985107421875,1079.28076171875,1580.1099853515625,1076.376953125L1580.1099853515625,1047.693359375C1580.1099853515625,1044.70166015625,1577.6834716796875,1042.2764892578125,1574.68994140625,1042.2764892578125Z" text-rendering="geometricPrecision" shape-rendering="geometricPrecision" style="background-color: rgb(255, 239, 186); fill: rgb(198, 24, 91);"/></g></g><g id="shape-4abe3168-f11e-80f4-8006-dcee013e9ca4"><g class="fills" id="fills-4abe3168-f11e-80f4-8006-dcee013e9ca4"><ellipse cx="1574.6900079367804" cy="1032.0123238625822" rx="18.690000093753497" ry="18.679272314983564" transform="matrix(1.000000, 0.000000, 0.000000, 1.000000, 0.000000, 0.000000)" text-rendering="geometricPrecision" shape-rendering="geometricPrecision" style="background-color: rgb(255, 239, 186); fill: rgb(255, 155, 71);"/></g></g><g id="shape-4abe3168-f11e-80f4-8006-dcee013e9ca5"><g class="fills" id="fills-4abe3168-f11e-80f4-8006-dcee013e9ca5"><path d="M1857.43017578125,960.783203125C1855.99267578125,960.783203125,1854.614013671875,961.3539428710938,1853.59765625,962.3698120117188C1852.5810546875,963.3856201171875,1852.010009765625,964.7634887695312,1852.010009765625,966.2001342773438L1852.010009765625,1068.301513671875C1852.010009765625,1071.293212890625,1854.4365234375,1073.7183837890625,1857.43017578125,1073.7183837890625C1860.423828125,1073.7183837890625,1862.849853515625,1071.293212890625,1862.849853515625,1068.301513671875L1862.849853515625,966.16015625C1862.828125,963.18408203125,1860.40771484375,960.7830810546875,1857.43017578125,960.783203125Z" text-rendering="geometricPrecision" shape-rendering="geometricPrecision" style="background-color: rgb(255, 239, 186); fill: rgb(198, 24, 91);"/></g></g><g id="shape-4abe3168-f11e-80f4-8006-dcee013e9ca6"><g class="fills" id="fills-4abe3168-f11e-80f4-8006-dcee013e9ca6"><path d="M1835.610107421875,920.6163330078125L1835.610107421875,948.7800903320312C1835.610107421875,956.5640869140625,1839.764892578125,963.7567138671875,1846.510009765625,967.648681640625C1853.2548828125,971.5405883789062,1861.56494140625,971.5405883789062,1868.31005859375,967.648681640625C1875.05517578125,963.7567138671875,1879.209716796875,956.5640869140625,1879.209716796875,948.7800903320312L1879.209716796875,920.6163330078125L1857.41015625,942.4137573242188Z" text-rendering="geometricPrecision" shape-rendering="geometricPrecision" style="background-color: rgb(255, 239, 186); fill: rgb(255, 98, 84);"/></g></g></g></g></g></g></g></svg>