<?xml version="1.0" encoding="utf-8"?>
<!-- Generator: Adobe Illustrator 27.5.0, SVG Export Plug-In . SVG Version: 6.00 Build 0)  -->
<svg version="1.1" xmlns="http://www.w3.org/2000/svg" xmlns:xlink="http://www.w3.org/1999/xlink" x="0px" y="0px"
	 viewBox="0 0 750 500" style="enable-background:new 0 0 750 500;" xml:space="preserve">
<g id="BACKGROUND">
	<rect style="fill:#D7FFDC;" width="750" height="500"/>
</g>
<g id="OBJECTS">
	<g>
		<defs>
			<rect id="SVGID_1_" width="750" height="500"/>
		</defs>
		<clipPath id="SVGID_00000170988804614467209050000008777911350666202807_">
			<use xlink:href="#SVGID_1_"  style="overflow:visible;"/>
		</clipPath>
		
			<circle style="clip-path:url(#SVGID_00000170988804614467209050000008777911350666202807_);fill:#FFFDB8;" cx="180.132" cy="168.87" r="52.13"/>
		<g style="clip-path:url(#SVGID_00000170988804614467209050000008777911350666202807_);">
			<path style="fill:#6FADA8;" d="M-4.435,184.3L99.69,169.425c1.53-0.219,3.09-0.098,4.569,0.354l48.676,14.873
				c2.005,0.613,4.148,0.613,6.153,0.001l84.182-25.683c0.822-0.251,1.609-0.601,2.346-1.043l61.849-37.11
				c2.855-1.713,6.353-1.976,9.432-0.708l18.175,7.484c1.595,0.657,3.328,0.912,5.045,0.743l101.051-9.963
				c1.853-0.183,3.721,0.129,5.414,0.903l49.238,22.509c0.449,0.205,0.883,0.442,1.299,0.708l36.076,23.089
				c0.532,0.34,1.092,0.632,1.676,0.872c8.503,3.492,75.997,31.137,81.617,31.137c5.745,0,78.87,15.126,85.076,16.412
				c0.285,0.059,0.565,0.105,0.854,0.14l51.802,6.317c5.286,0.645,9.26,5.133,9.26,10.458v236.623
				c0,5.818-4.717,10.535-10.535,10.535H-2.945c-5.818,0-10.535-4.717-10.535-10.535V194.729
				C-13.481,189.486-9.625,185.041-4.435,184.3z"/>
			<polygon style="fill:#7FBAB4;" points="441.168,118.374 486.544,163 493.223,191 537.546,200 586.002,245.788 709.149,251.894 
				756.981,237.086 744.662,219.295 696.943,213.049 616.488,197.592 533.194,165.583 495.82,141.786 446.582,119.277 			"/>
		</g>
		<path style="clip-path:url(#SVGID_00000170988804614467209050000008777911350666202807_);fill:#4F8C84;" d="M-4.444,224.791
			l145.834-20.959c1.113-0.16,2.244-0.141,3.351,0.057l59.602,10.643c1.142,0.204,2.242,0.595,3.256,1.157l63.045,34.949
			c2.794,1.549,6.14,1.746,9.097,0.537l27.466-11.236c0.569-0.233,1.117-0.515,1.637-0.843l52.686-33.276
			c2.267-1.432,4.995-1.946,7.628-1.436l40.877,7.912c1.009,0.195,1.985,0.537,2.895,1.015l25.707,13.496
			c1.9,0.997,4.059,1.391,6.189,1.128l62.784-7.758c0.957-0.118,1.925-0.105,2.878,0.041l52.522,8.001
			c0.525,0.08,1.055,0.12,1.587,0.12h82.782c0.775,0,1.548,0.086,2.304,0.255l39.179,8.782c2.072,0.464,4.236,0.292,6.208-0.495
			l53.971-21.531c6.919-2.76,14.439,2.336,14.439,9.785v242.406c0,5.818-4.717,10.535-10.535,10.535H-2.945
			c-5.818,0-10.535-4.717-10.535-10.535V235.22C-13.481,229.98-9.63,225.537-4.444,224.791z"/>
		<g style="clip-path:url(#SVGID_00000170988804614467209050000008777911350666202807_);">
			<path style="fill:#467970;" d="M65.609,304.591l42.394-30.628c0.867-0.626,1.908-0.963,2.977-0.963h22.403
				c1.342,0,2.63-0.531,3.583-1.477l29.245-29.054c1.946-1.934,5.076-1.974,7.071-0.092l13.135,12.389
				c0.626,0.591,1.393,1.013,2.227,1.227l26.817,6.869c0.36,0.092,0.709,0.224,1.04,0.392l40.472,20.553
				c0.684,0.347,1.437,0.535,2.203,0.55l135.445,2.621c0.783,0.015,1.552,0.211,2.247,0.572l37.847,19.68
				c4.741,2.465,2.956,9.638-2.388,9.594l-363.784-3.028C63.634,313.755,61.629,307.467,65.609,304.591z"/>
			<g>
				<path style="fill:#467970;" d="M223.113,262.699l4.872,1.439l-0.917-2.879h4.815l-9.401-5.346l6.42,1.851l-7.107-5.757
					l6.42,2.673l-7.566-7.402l5.961,1.028l-7.566-4.318l4.872,0.823c0,0-5.789-4.523-7.967-8.841
					c-2.178,4.318-7.967,8.841-7.967,8.841l4.872-0.823l-7.566,4.318l5.961-1.028l-7.566,7.402l6.42-2.673l-7.107,5.757l6.42-1.851
					l-9.401,5.346h4.815l-0.917,2.879l4.872-1.439l-7.165,5.963l5.961-1.439l-3.439,2.879l10.677-2.603v11.444h2.262v-11.444
					l10.677,2.603l-3.439-2.879l5.961,1.439L223.113,262.699z"/>
				<path style="fill:#467970;" d="M272.302,273.316l6.053,1.788l-1.139-3.576h5.982l-11.678-6.641l7.975,2.299l-8.829-7.152
					l7.975,3.321l-9.399-9.195l7.405,1.277l-9.399-5.364l6.053,1.022c0,0-7.192-5.619-9.898-10.983
					c-2.706,5.364-9.898,10.983-9.898,10.983l6.053-1.022l-9.399,5.364l7.405-1.277l-9.399,9.195l7.975-3.321l-8.829,7.152
					l7.975-2.299l-11.678,6.641h5.982l-1.139,3.576l6.052-1.788l-8.901,7.407l7.405-1.788l-4.272,3.576l13.263-3.234v14.217h2.81
					v-14.217l13.263,3.234l-4.272-3.576l7.405,1.788L272.302,273.316z"/>
				<path style="fill:#467970;" d="M260.411,279.539l7.942,2.346l-1.495-4.692h7.849l-15.324-8.714l10.464,3.016l-11.585-9.384
					l10.464,4.357l-12.333-12.066l9.717,1.676l-12.333-7.038l7.942,1.341c0,0-9.437-7.373-12.987-14.412
					c-3.55,7.038-12.987,14.412-12.987,14.412l7.942-1.341l-12.333,7.038l9.717-1.676l-12.333,12.066l10.464-4.357l-11.585,9.384
					l10.464-3.016l-15.324,8.714h7.849l-1.495,4.692l7.942-2.346l-11.679,9.719l9.717-2.346l-5.606,4.692l17.403-4.243v18.655h3.687
					v-18.655l17.403,4.243l-5.606-4.692l9.717,2.346L260.411,279.539z"/>
				<path style="fill:#467970;" d="M280.044,281.255l7.427,2.194l-1.398-4.388h7.34l-14.33-8.149l9.786,2.821l-10.835-8.776
					l9.786,4.075l-11.533-11.284l9.087,1.567l-11.534-6.582l7.427,1.254c0,0-8.825-6.896-12.146-13.478
					c-3.32,6.582-12.146,13.478-12.146,13.478l7.427-1.254l-11.534,6.582l9.087-1.567l-11.534,11.284l9.786-4.075l-10.835,8.776
					l9.786-2.821l-14.33,8.149h7.34l-1.398,4.388l7.427-2.194l-10.922,9.09l9.087-2.194l-5.242,4.388l16.275-3.968v17.445h3.448
					v-17.445l16.275,3.968l-5.243-4.388l9.087,2.194L280.044,281.255z"/>
				<path style="fill:#467970;" d="M315.554,280.742l6.052,1.788l-1.139-3.576h5.982l-11.678-6.641l7.975,2.299l-8.829-7.152
					l7.975,3.321l-9.399-9.195l7.405,1.277l-9.399-5.364l6.053,1.022c0,0-7.192-5.619-9.898-10.983
					c-2.706,5.364-9.898,10.983-9.898,10.983l6.053-1.022l-9.399,5.364l7.405-1.277l-9.399,9.195l7.975-3.321l-8.829,7.152
					l7.975-2.299l-11.678,6.641h5.982l-1.139,3.576l6.052-1.788l-8.901,7.407l7.405-1.788l-4.272,3.576l13.263-3.233v14.217h2.81
					v-14.217l13.263,3.233l-4.272-3.576l7.405,1.788L315.554,280.742z"/>
				<path style="fill:#467970;" d="M294.464,280.109l6.052,1.788l-1.139-3.576h5.982l-11.678-6.641l7.975,2.299l-8.829-7.152
					l7.975,3.321l-9.399-9.195l7.405,1.277l-9.399-5.364l6.053,1.022c0,0-7.192-5.619-9.898-10.983
					c-2.706,5.364-9.898,10.983-9.898,10.983l6.053-1.022l-9.399,5.364l7.405-1.277l-9.399,9.195l7.975-3.321l-8.829,7.152
					l7.975-2.299l-11.678,6.641h5.982l-1.139,3.576l6.052-1.788l-8.901,7.407l7.405-1.788l-4.272,3.576l13.263-3.234v14.217h2.81
					v-14.217l13.263,3.234l-4.272-3.576l7.405,1.788L294.464,280.109z"/>
				<path style="fill:#467970;" d="M302.366,270.911l6.052,1.788l-1.139-3.576h5.982l-11.678-6.641l7.975,2.299l-8.829-7.152
					l7.975,3.321l-9.399-9.195l7.405,1.277l-9.399-5.364l6.053,1.022c0,0-7.192-5.619-9.898-10.983
					c-2.706,5.364-9.898,10.983-9.898,10.983l6.053-1.022l-9.399,5.364l7.405-1.277l-9.399,9.195l7.975-3.321l-8.829,7.152
					l7.975-2.299l-11.678,6.641h5.982l-1.139,3.576l6.052-1.788l-8.901,7.407l7.405-1.788l-4.272,3.576l13.263-3.233v14.217h2.81
					v-14.217l13.263,3.233l-4.272-3.576l7.405,1.788L302.366,270.911z"/>
				<path style="fill:#467970;" d="M282.57,255.354l6.052,1.788l-1.139-3.576h5.982l-11.678-6.641l7.975,2.299l-8.829-7.152
					l7.975,3.321l-9.399-9.195l7.405,1.277l-9.399-5.364l6.053,1.022c0,0-7.192-5.619-9.898-10.983
					c-2.706,5.364-9.898,10.983-9.898,10.983l6.053-1.022l-9.399,5.364l7.405-1.277l-9.399,9.195l7.975-3.321l-8.829,7.152
					l7.975-2.299l-11.678,6.641h5.982l-1.139,3.576l6.053-1.788l-8.901,7.407l7.405-1.788l-4.272,3.576l13.263-3.233v14.217h2.81
					v-14.217l13.263,3.233l-4.272-3.576l7.405,1.788L282.57,255.354z"/>
				<path style="fill:#467970;" d="M332.896,283.626l4.384,1.295l-0.825-2.59h4.333l-8.459-4.811l5.777,1.665l-6.396-5.181
					l5.777,2.405l-6.808-6.661l5.364,0.925l-6.808-3.885l4.384,0.74c0,0-5.21-4.07-7.17-7.956c-1.96,3.885-7.17,7.956-7.17,7.956
					l4.384-0.74l-6.808,3.885l5.364-0.925l-6.808,6.661l5.777-2.405l-6.396,5.181l5.777-1.665l-8.459,4.811h4.333l-0.825,2.59
					l4.384-1.295l-6.447,5.366l5.364-1.295l-3.095,2.59l9.607-2.342v10.298h2.035v-10.298l9.607,2.342l-3.095-2.59l5.364,1.295
					L332.896,283.626z"/>
				<path style="fill:#467970;" d="M264.783,239.595l2.192,0.647l-0.413-1.295h2.167l-4.23-2.405l2.888,0.833l-3.198-2.59
					l2.888,1.203l-3.404-3.33l2.682,0.463l-3.404-1.943l2.192,0.37c0,0-2.605-2.035-3.585-3.978
					c-0.98,1.943-3.585,3.978-3.585,3.978l2.192-0.37l-3.404,1.943l2.682-0.463l-3.404,3.33l2.888-1.203l-3.198,2.59l2.888-0.833
					l-4.23,2.405h2.166l-0.413,1.295l2.192-0.647l-3.224,2.683l2.682-0.648l-1.547,1.295l4.804-1.171v5.149h1.018v-5.149
					l4.804,1.171l-1.547-1.295l2.682,0.648L264.783,239.595z"/>
				<path style="fill:#467970;" d="M250.053,253.559l4.384,1.295l-0.825-2.59h4.333l-8.459-4.811l5.777,1.665l-6.396-5.181
					l5.777,2.405l-6.808-6.661l5.364,0.925l-6.808-3.885l4.384,0.74c0,0-5.21-4.071-7.17-7.956c-1.96,3.885-7.17,7.956-7.17,7.956
					l4.384-0.74l-6.808,3.885l5.364-0.925l-6.808,6.661l5.777-2.405l-6.396,5.181l5.777-1.665l-8.459,4.811h4.333l-0.825,2.59
					l4.384-1.295l-6.447,5.366l5.364-1.295l-3.095,2.59l9.607-2.342v10.298h2.035v-10.298l9.607,2.342l-3.095-2.59l5.364,1.295
					L250.053,253.559z"/>
				<path style="fill:#467970;" d="M297.467,256.612l4.384,1.295l-0.825-2.59h4.333l-8.459-4.811l5.777,1.665l-6.396-5.181
					l5.777,2.405l-6.808-6.661l5.364,0.925l-6.808-3.885l4.384,0.74c0,0-5.21-4.07-7.169-7.956c-1.96,3.885-7.17,7.956-7.17,7.956
					l4.384-0.74l-6.808,3.885l5.364-0.925l-6.808,6.661l5.777-2.405l-6.396,5.181l5.777-1.665l-8.459,4.811h4.333l-0.825,2.59
					l4.384-1.295l-6.447,5.366l5.364-1.295l-3.095,2.59l9.607-2.342v10.298h2.035v-10.298l9.607,2.342l-3.095-2.59l5.364,1.295
					L297.467,256.612z"/>
				<path style="fill:#467970;" d="M261.231,256.612l4.384,1.295l-0.825-2.59h4.333l-8.459-4.811l5.777,1.665l-6.396-5.181
					l5.777,2.405l-6.808-6.661l5.364,0.925l-6.808-3.885l4.384,0.74c0,0-5.21-4.07-7.17-7.956c-1.96,3.885-7.17,7.956-7.17,7.956
					l4.384-0.74l-6.808,3.885l5.364-0.925l-6.808,6.661l5.777-2.405l-6.396,5.181l5.777-1.665l-8.459,4.811h4.333l-0.825,2.59
					l4.384-1.295l-6.447,5.366l5.364-1.295l-3.095,2.59l9.607-2.342v10.298h2.035v-10.298l9.607,2.342l-3.095-2.59l5.364,1.295
					L261.231,256.612z"/>
				<path style="fill:#467970;" d="M255.509,256.612l4.384,1.295l-0.825-2.59h4.333l-8.459-4.811l5.777,1.665l-6.396-5.181
					l5.777,2.405l-6.808-6.661l5.364,0.925l-6.808-3.885l4.384,0.74c0,0-5.21-4.07-7.17-7.956c-1.96,3.885-7.169,7.956-7.169,7.956
					l4.384-0.74l-6.808,3.885l5.364-0.925l-6.808,6.661l5.777-2.405l-6.396,5.181l5.777-1.665l-8.459,4.811h4.333l-0.825,2.59
					l4.384-1.295l-6.447,5.366l5.364-1.295l-3.095,2.59l9.607-2.342v10.298h2.035v-10.298l9.607,2.342l-3.095-2.59l5.364,1.295
					L255.509,256.612z"/>
				<path style="fill:#467970;" d="M236.735,268.084l4.384,1.295l-0.825-2.59h4.333l-8.459-4.811l5.777,1.665l-6.396-5.181
					l5.777,2.405l-6.808-6.661l5.364,0.925l-6.808-3.885l4.384,0.74c0,0-5.21-4.07-7.17-7.956c-1.96,3.885-7.169,7.956-7.169,7.956
					l4.384-0.74l-6.808,3.885l5.364-0.925l-6.808,6.661l5.777-2.405l-6.396,5.181l5.777-1.665l-8.459,4.811h4.333l-0.825,2.59
					l4.384-1.295l-6.447,5.366l5.364-1.295l-3.095,2.59l9.607-2.342V282.7h2.035v-10.298l9.607,2.342l-3.095-2.59l5.364,1.295
					L236.735,268.084z"/>
			</g>
		</g>
		<g style="clip-path:url(#SVGID_00000170988804614467209050000008777911350666202807_);">
			<g>
				<path style="fill:#467970;" d="M549.604,284.151l4.872,1.439l-0.917-2.879h4.815l-9.401-5.346l6.42,1.85l-7.107-5.757
					l6.42,2.673l-7.566-7.402l5.961,1.028l-7.566-4.318l4.872,0.823c0,0-5.789-4.523-7.968-8.841
					c-2.178,4.318-7.968,8.841-7.968,8.841l4.872-0.823l-7.566,4.318l5.961-1.028l-7.566,7.402l6.42-2.673l-7.107,5.757l6.42-1.85
					l-9.401,5.346h4.815l-0.917,2.879l4.872-1.439l-7.165,5.963l5.961-1.439l-3.439,2.879l10.677-2.603v11.444h2.262V288.95
					l10.677,2.603l-3.439-2.879l5.961,1.439L549.604,284.151z"/>
				<path style="fill:#467970;" d="M582.008,272.595l7.942,2.346l-1.495-4.692h7.849l-15.323-8.714l10.464,3.016l-11.586-9.384
					l10.464,4.357l-12.333-12.066l9.717,1.676l-12.333-7.038l7.942,1.341c0,0-9.437-7.373-12.987-14.412
					c-3.55,7.038-12.987,14.412-12.987,14.412l7.942-1.341l-12.333,7.038l9.717-1.676l-12.333,12.066l10.464-4.357l-11.585,9.384
					l10.464-3.016l-15.323,8.714h7.849l-1.495,4.692l7.942-2.346l-11.679,9.719l9.717-2.346l-5.606,4.692l17.403-4.243v18.655h3.687
					v-18.655l17.403,4.243l-5.606-4.692l9.717,2.346L582.008,272.595z"/>
				<path style="fill:#467970;" d="M601.642,274.311l7.427,2.194l-1.398-4.388h7.34l-14.33-8.149l9.786,2.821l-10.835-8.776
					l9.786,4.075l-11.534-11.284l9.087,1.567l-11.534-6.582l7.427,1.254c0,0-8.825-6.896-12.146-13.478
					c-3.32,6.582-12.146,13.478-12.146,13.478l7.427-1.254l-11.533,6.582l9.087-1.567l-11.534,11.284l9.786-4.075l-10.834,8.776
					l9.786-2.821l-14.33,8.149h7.34l-1.398,4.388l7.427-2.194l-10.922,9.09l9.087-2.194l-5.242,4.388l16.275-3.968v17.445h3.448
					v-17.445l16.275,3.968l-5.243-4.388l9.087,2.194L601.642,274.311z"/>
				<path style="fill:#467970;" d="M637.152,273.797l6.052,1.788l-1.139-3.576h5.982l-11.678-6.641l7.975,2.299l-8.829-7.152
					l7.975,3.321l-9.399-9.195l7.405,1.277l-9.399-5.364l6.053,1.022c0,0-7.192-5.619-9.898-10.983
					c-2.706,5.364-9.898,10.983-9.898,10.983l6.053-1.022l-9.399,5.364l7.405-1.277l-9.399,9.195l7.975-3.321l-8.829,7.152
					l7.975-2.299l-11.678,6.641h5.982l-1.139,3.576l6.052-1.788l-8.901,7.407l7.405-1.788l-4.272,3.576l13.263-3.233v14.217h2.81
					v-14.217l13.263,3.233l-4.272-3.576l7.405,1.788L637.152,273.797z"/>
				<path style="fill:#467970;" d="M616.061,273.164l6.052,1.788l-1.139-3.576h5.982l-11.678-6.641l7.975,2.299l-8.829-7.152
					l7.975,3.321L613,254.007l7.405,1.277l-9.399-5.364l6.053,1.022c0,0-7.192-5.619-9.898-10.983
					c-2.706,5.364-9.898,10.983-9.898,10.983l6.053-1.022l-9.399,5.364l7.405-1.277l-9.399,9.195l7.975-3.321l-8.829,7.152
					l7.975-2.299l-11.678,6.641h5.982l-1.139,3.576l6.052-1.788l-8.901,7.407l7.405-1.788l-4.272,3.576l13.263-3.233v14.217h2.81
					v-14.217l13.263,3.233l-4.272-3.576l7.405,1.788L616.061,273.164z"/>
				<path style="fill:#467970;" d="M623.964,263.966l6.052,1.788l-1.139-3.576h5.982l-11.678-6.641l7.975,2.299l-8.829-7.152
					l7.975,3.32l-9.399-9.195l7.405,1.277l-9.399-5.364l6.053,1.022c0,0-7.192-5.619-9.898-10.983
					c-2.706,5.364-9.898,10.983-9.898,10.983l6.053-1.022l-9.399,5.364l7.405-1.277l-9.399,9.195l7.975-3.32l-8.829,7.152
					l7.975-2.299l-11.678,6.641h5.982l-1.139,3.576l6.052-1.788l-8.901,7.407l7.405-1.788l-4.272,3.576l13.263-3.233v14.217h2.81
					v-14.217l13.263,3.233l-4.272-3.576l7.405,1.788L623.964,263.966z"/>
				<path style="fill:#467970;" d="M654.494,276.681l4.384,1.295l-0.825-2.59h4.333l-8.459-4.81l5.777,1.665l-6.396-5.181
					l5.777,2.405l-6.808-6.661l5.364,0.925l-6.808-3.885l4.384,0.74c0,0-5.21-4.071-7.169-7.956c-1.96,3.885-7.17,7.956-7.17,7.956
					l4.384-0.74l-6.808,3.885l5.364-0.925l-6.808,6.661l5.777-2.405l-6.396,5.181l5.777-1.665l-8.459,4.81h4.333l-0.825,2.59
					l4.384-1.295l-6.447,5.366l5.364-1.295l-3.095,2.59l9.607-2.342v10.298h2.035v-10.298l9.607,2.342l-3.095-2.59l5.364,1.295
					L654.494,276.681z"/>
				<path style="fill:#467970;" d="M663.511,261.932l2.192,0.648l-0.413-1.295h2.167l-4.23-2.405l2.888,0.833l-3.198-2.59
					l2.888,1.203l-3.404-3.33l2.682,0.463l-3.404-1.943l2.192,0.37c0,0-2.605-2.035-3.585-3.978
					c-0.98,1.943-3.585,3.978-3.585,3.978l2.192-0.37l-3.404,1.943l2.682-0.463l-3.404,3.33l2.888-1.203l-3.198,2.59l2.888-0.833
					l-4.23,2.405h2.167l-0.413,1.295l2.192-0.648l-3.224,2.683l2.682-0.648l-1.547,1.295l4.804-1.171v5.149h1.018v-5.149
					l4.804,1.171l-1.547-1.295l2.682,0.648L663.511,261.932z"/>
				<path style="fill:#467970;" d="M532.951,283.66l4.384,1.295l-0.825-2.59h4.333l-8.459-4.811l5.777,1.665l-6.396-5.181
					l5.777,2.405l-6.808-6.661l5.364,0.925l-6.808-3.885l4.384,0.74c0,0-5.21-4.07-7.17-7.956c-1.96,3.885-7.169,7.956-7.169,7.956
					l4.384-0.74l-6.808,3.885l5.364-0.925l-6.808,6.661l5.777-2.405l-6.396,5.181l5.777-1.665l-8.459,4.811h4.333l-0.825,2.59
					l4.384-1.295l-6.447,5.366l5.364-1.295l-3.095,2.59l9.607-2.342v10.298h2.035v-10.298l9.607,2.342l-3.095-2.59l5.364,1.295
					L532.951,283.66z"/>
				<path style="fill:#467970;" d="M619.065,249.667l4.384,1.295l-0.825-2.59h4.333l-8.459-4.811l5.777,1.665l-6.396-5.181
					l5.777,2.405l-6.808-6.661l5.364,0.925l-6.808-3.885l4.384,0.74c0,0-5.21-4.07-7.17-7.956c-1.96,3.885-7.169,7.956-7.169,7.956
					l4.384-0.74l-6.808,3.885l5.364-0.925l-6.808,6.661l5.777-2.405l-6.396,5.181l5.777-1.665l-8.459,4.811h4.333l-0.825,2.59
					l4.384-1.295l-6.447,5.366l5.364-1.295l-3.095,2.59l9.607-2.342v10.298h2.035v-10.298l9.607,2.342l-3.095-2.59l5.364,1.295
					L619.065,249.667z"/>
				<path style="fill:#467970;" d="M558.333,261.139l4.384,1.295l-0.825-2.59h4.333l-8.459-4.811l5.777,1.665l-6.396-5.181
					l5.777,2.405l-6.808-6.661l5.364,0.925l-6.808-3.885l4.384,0.74c0,0-5.21-4.071-7.169-7.956c-1.96,3.885-7.17,7.956-7.17,7.956
					l4.384-0.74l-6.808,3.885l5.364-0.925l-6.808,6.661l5.777-2.405l-6.396,5.181l5.777-1.665l-8.459,4.811h4.333l-0.825,2.59
					l4.384-1.295l-6.447,5.366l5.364-1.295l-3.095,2.59l9.607-2.342v10.298h2.035v-10.298l9.607,2.342l-3.095-2.59l5.364,1.295
					L558.333,261.139z"/>
			</g>
			<path style="fill:#467970;" d="M464.406,316.851l33.866-26.642c0.922-0.725,2.019-1.196,3.18-1.365l54.726-7.94
				c0.626-0.091,1.235-0.27,1.811-0.531l57.588-26.179c1.303-0.592,2.762-0.752,4.163-0.455l64.536,13.691
				c1.203,0.255,2.453,0.174,3.613-0.234l66.669-23.453c4.357-1.533,8.922,1.7,8.922,6.32v72.604c0,3.705-3.007,6.706-6.712,6.699
				l-288.233-0.551C462.182,328.803,459.412,320.78,464.406,316.851z"/>
		</g>
		<g style="clip-path:url(#SVGID_00000170988804614467209050000008777911350666202807_);">
			<rect x="-16.605" y="308.201" style="fill:#D7FFDC;" width="773.586" height="225.378"/>
		</g>
		<g style="opacity:0.29;clip-path:url(#SVGID_00000170988804614467209050000008777911350666202807_);">
			<defs>
				
					<rect id="SVGID_00000026152439745148634610000016036439547930627492_" x="-15.669" y="308.201" style="opacity:0.29;" width="773.586" height="225.378"/>
			</defs>
			<clipPath id="SVGID_00000089550094034265829620000001055675313826858686_">
				<use xlink:href="#SVGID_00000026152439745148634610000016036439547930627492_"  style="overflow:visible;"/>
			</clipPath>
			<path style="clip-path:url(#SVGID_00000089550094034265829620000001055675313826858686_);fill:#4F8C84;" d="M-3.508,346.012
				l145.834,20.959c1.113,0.16,2.244,0.141,3.351-0.057l59.602-10.643c1.141-0.204,2.242-0.595,3.256-1.157l63.045-34.949
				c2.794-1.549,6.14-1.746,9.097-0.537l27.466,11.236c0.569,0.233,1.117,0.515,1.637,0.843l52.686,33.276
				c2.267,1.432,4.995,1.945,7.628,1.436l40.877-7.912c1.009-0.195,1.985-0.537,2.895-1.015l25.707-13.496
				c1.9-0.997,4.059-1.391,6.189-1.128l62.784,7.758c0.957,0.118,1.925,0.105,2.879-0.041l52.522-8.001
				c0.525-0.08,1.055-0.12,1.587-0.12h82.782c0.775,0,1.548-0.086,2.304-0.255l39.179-8.782c2.072-0.464,4.236-0.292,6.208,0.495
				l53.971,21.531c6.919,2.76,14.439-2.336,14.439-9.785V103.261c0-5.819-4.717-10.535-10.535-10.535H-2.009
				c-5.818,0-10.535,4.717-10.535,10.535v232.323C-12.544,340.823-8.694,345.266-3.508,346.012z"/>
			<g style="clip-path:url(#SVGID_00000089550094034265829620000001055675313826858686_);">
				<path style="fill:#467970;" d="M66.545,266.212l42.394,30.628c0.866,0.626,1.908,0.963,2.977,0.963h22.403
					c1.343,0,2.631,0.531,3.583,1.477l29.245,29.054c1.946,1.934,5.076,1.974,7.071,0.092l13.135-12.389
					c0.626-0.591,1.393-1.013,2.227-1.227l26.817-6.869c0.36-0.092,0.709-0.224,1.04-0.392l40.472-20.553
					c0.684-0.347,1.437-0.535,2.203-0.55l135.445-2.621c0.783-0.015,1.552-0.211,2.247-0.572l37.847-19.68
					c4.741-2.465,2.956-9.638-2.388-9.594L69.48,257.008C64.57,257.048,62.565,263.336,66.545,266.212z"/>
				<g>
					<path style="fill:#467970;" d="M224.05,308.104l4.872-1.439l-0.917,2.879h4.815l-9.401,5.346l6.42-1.85l-7.107,5.757
						l6.42-2.673l-7.566,7.402l5.961-1.028l-7.566,4.318l4.872-0.823c0,0-5.789,4.523-7.967,8.841
						c-2.178-4.318-7.968-8.841-7.968-8.841l4.872,0.823l-7.566-4.318l5.961,1.028l-7.566-7.402l6.42,2.673l-7.107-5.757l6.42,1.85
						l-9.401-5.346h4.815l-0.917-2.879l4.872,1.439l-7.165-5.963l5.961,1.439l-3.439-2.879l10.677,2.603v-11.444h2.262v11.444
						l10.677-2.603l-3.439,2.879l5.961-1.439L224.05,308.104z"/>
					<path style="fill:#467970;" d="M273.238,297.487l6.052-1.788l-1.139,3.576h5.982l-11.678,6.641l7.975-2.299l-8.829,7.152
						l7.975-3.32l-9.399,9.195l7.405-1.277l-9.399,5.364l6.053-1.022c0,0-7.192,5.619-9.898,10.983
						c-2.706-5.364-9.898-10.983-9.898-10.983l6.053,1.022l-9.399-5.364l7.405,1.277l-9.399-9.195l7.975,3.32l-8.829-7.152
						l7.975,2.299l-11.678-6.641h5.982l-1.139-3.576l6.052,1.788l-8.901-7.407l7.405,1.788l-4.272-3.576l13.263,3.234v-14.217h2.81
						v14.217l13.263-3.234l-4.272,3.576l7.405-1.788L273.238,297.487z"/>
					<path style="fill:#467970;" d="M261.347,291.264l7.942-2.346l-1.495,4.692h7.849l-15.324,8.714l10.464-3.016l-11.585,9.384
						l10.464-4.357l-12.333,12.066l9.717-1.676l-12.333,7.038l7.942-1.341c0,0-9.437,7.373-12.987,14.412
						c-3.55-7.038-12.987-14.412-12.987-14.412l7.942,1.341l-12.333-7.038l9.717,1.676l-12.333-12.066l10.464,4.357l-11.585-9.384
						l10.464,3.016l-15.324-8.714h7.849l-1.495-4.692l7.942,2.346l-11.679-9.719l9.717,2.346l-5.606-4.692l17.403,4.243v-18.655
						h3.687v18.655l17.403-4.243l-5.606,4.692l9.717-2.346L261.347,291.264z"/>
					<path style="fill:#467970;" d="M280.981,289.548l7.427-2.194l-1.398,4.388h7.34l-14.33,8.149l9.786-2.821l-10.835,8.776
						l9.786-4.075l-11.534,11.284l9.087-1.567l-11.533,6.582l7.427-1.254c0,0-8.825,6.896-12.146,13.478
						c-3.32-6.582-12.145-13.478-12.145-13.478l7.427,1.254l-11.533-6.582l9.087,1.567l-11.534-11.284l9.786,4.075l-10.835-8.776
						l9.786,2.821l-14.33-8.149h7.34l-1.398-4.388l7.427,2.194l-10.922-9.09l9.087,2.194l-5.243-4.388l16.275,3.968v-17.445h3.448
						v17.445l16.275-3.968l-5.242,4.388l9.087-2.194L280.981,289.548z"/>
					<path style="fill:#467970;" d="M316.491,290.061l6.052-1.788l-1.139,3.576h5.982l-11.678,6.641l7.975-2.299l-8.829,7.152
						l7.975-3.321l-9.399,9.195l7.405-1.277l-9.399,5.364l6.053-1.022c0,0-7.192,5.619-9.898,10.983
						c-2.706-5.364-9.898-10.983-9.898-10.983l6.053,1.022l-9.399-5.364l7.405,1.277l-9.399-9.195l7.975,3.321l-8.829-7.152
						l7.975,2.299l-11.678-6.641h5.982l-1.139-3.576l6.052,1.788l-8.901-7.407l7.405,1.788l-4.272-3.576l13.263,3.234v-14.217h2.81
						v14.217l13.263-3.234l-4.272,3.576l7.405-1.788L316.491,290.061z"/>
					<path style="fill:#467970;" d="M295.4,290.694l6.052-1.788l-1.139,3.576h5.982l-11.678,6.641l7.975-2.299l-8.829,7.152
						l7.975-3.321l-9.399,9.195l7.405-1.277l-9.399,5.364l6.053-1.022c0,0-7.192,5.619-9.898,10.983
						c-2.706-5.364-9.898-10.983-9.898-10.983l6.053,1.022l-9.399-5.364l7.405,1.277l-9.399-9.195l7.975,3.321l-8.829-7.152
						l7.975,2.299l-11.678-6.641h5.982l-1.139-3.576l6.052,1.788l-8.901-7.407l7.405,1.788l-4.272-3.576l13.263,3.234v-14.217h2.81
						v14.217l13.263-3.234l-4.272,3.576l7.405-1.788L295.4,290.694z"/>
					<path style="fill:#467970;" d="M303.302,299.892l6.052-1.788l-1.139,3.576h5.982l-11.678,6.641l7.975-2.299l-8.829,7.152
						l7.975-3.321l-9.399,9.195l7.405-1.277l-9.399,5.364l6.053-1.022c0,0-7.192,5.619-9.898,10.983
						c-2.706-5.364-9.898-10.983-9.898-10.983l6.053,1.022l-9.399-5.364l7.405,1.277l-9.399-9.195l7.975,3.321l-8.829-7.152
						l7.975,2.299l-11.678-6.641h5.982l-1.139-3.576l6.052,1.788l-8.901-7.407l7.405,1.788l-4.272-3.576l13.263,3.233v-14.217h2.81
						v14.217l13.263-3.233l-4.272,3.576l7.405-1.788L303.302,299.892z"/>
					<path style="fill:#467970;" d="M283.507,315.449l6.052-1.788l-1.139,3.576h5.982l-11.678,6.641l7.975-2.299l-8.829,7.152
						l7.975-3.321l-9.399,9.195l7.405-1.277l-9.399,5.364l6.053-1.022c0,0-7.192,5.619-9.898,10.983
						c-2.706-5.364-9.898-10.983-9.898-10.983l6.053,1.022l-9.399-5.364l7.405,1.277l-9.399-9.195l7.975,3.321l-8.829-7.152
						l7.975,2.299l-11.678-6.641h5.982l-1.139-3.576l6.052,1.788l-8.901-7.407l7.405,1.788l-4.272-3.576l13.263,3.233V295.27h2.81
						v14.217l13.263-3.233l-4.272,3.576l7.405-1.788L283.507,315.449z"/>
					<path style="fill:#467970;" d="M333.833,287.177l4.384-1.295l-0.825,2.59h4.333l-8.459,4.811l5.777-1.665l-6.396,5.181
						l5.777-2.405l-6.808,6.661l5.364-0.925l-6.808,3.885l4.384-0.74c0,0-5.21,4.07-7.169,7.956c-1.96-3.885-7.17-7.956-7.17-7.956
						l4.384,0.74l-6.808-3.885l5.364,0.925l-6.808-6.661l5.777,2.405l-6.396-5.181l5.777,1.665l-8.459-4.811h4.333l-0.825-2.59
						l4.384,1.295l-6.447-5.366l5.364,1.295l-3.095-2.59l9.607,2.342v-10.298h2.035v10.298l9.607-2.342l-3.095,2.59l5.364-1.295
						L333.833,287.177z"/>
					<path style="fill:#467970;" d="M265.719,331.208l2.192-0.648l-0.413,1.295h2.167l-4.23,2.405l2.888-0.833l-3.198,2.59
						l2.888-1.203l-3.404,3.33l2.682-0.462l-3.404,1.943l2.192-0.37c0,0-2.605,2.035-3.585,3.978
						c-0.98-1.943-3.585-3.978-3.585-3.978l2.192,0.37l-3.404-1.943l2.682,0.462l-3.404-3.33l2.888,1.203l-3.198-2.59l2.888,0.833
						l-4.23-2.405h2.166l-0.413-1.295l2.192,0.648l-3.224-2.683l2.682,0.648l-1.547-1.295l4.804,1.171V323.9h1.018v5.149
						l4.804-1.171l-1.547,1.295l2.682-0.648L265.719,331.208z"/>
					<path style="fill:#467970;" d="M250.989,317.244l4.384-1.295l-0.825,2.59h4.333l-8.459,4.811l5.777-1.665l-6.396,5.181
						l5.777-2.405l-6.808,6.661l5.364-0.925l-6.808,3.885l4.384-0.74c0,0-5.21,4.07-7.169,7.956c-1.96-3.885-7.17-7.956-7.17-7.956
						l4.384,0.74l-6.808-3.885l5.364,0.925l-6.808-6.661l5.777,2.405l-6.396-5.181l5.777,1.665l-8.459-4.811h4.333l-0.825-2.59
						l4.384,1.295l-6.447-5.366l5.364,1.295l-3.095-2.59l9.608,2.342v-10.298h2.035v10.298l9.607-2.342l-3.095,2.59l5.364-1.295
						L250.989,317.244z"/>
					<path style="fill:#467970;" d="M298.403,314.191l4.384-1.295l-0.825,2.59h4.333l-8.459,4.811l5.777-1.665l-6.396,5.181
						l5.777-2.405l-6.808,6.661l5.364-0.925l-6.808,3.885l4.384-0.74c0,0-5.21,4.07-7.17,7.956c-1.96-3.885-7.169-7.956-7.169-7.956
						l4.384,0.74l-6.808-3.885l5.364,0.925l-6.808-6.661l5.777,2.405l-6.396-5.181l5.777,1.665l-8.459-4.811h4.333l-0.825-2.59
						l4.384,1.295l-6.447-5.366l5.364,1.295l-3.095-2.59l9.607,2.342v-10.298h2.035v10.298l9.607-2.342l-3.095,2.59l5.364-1.295
						L298.403,314.191z"/>
					<path style="fill:#467970;" d="M262.167,314.191l4.384-1.295l-0.825,2.59h4.333l-8.459,4.811l5.777-1.665l-6.396,5.181
						l5.777-2.405l-6.808,6.661l5.364-0.925l-6.808,3.885l4.384-0.74c0,0-5.21,4.07-7.17,7.956c-1.96-3.885-7.169-7.956-7.169-7.956
						l4.384,0.74l-6.808-3.885l5.364,0.925l-6.808-6.661l5.777,2.405l-6.396-5.181l5.777,1.665l-8.459-4.811h4.333l-0.825-2.59
						l4.384,1.295l-6.447-5.366l5.364,1.295l-3.095-2.59l9.607,2.342v-10.298h2.035v10.298l9.608-2.342l-3.095,2.59l5.364-1.295
						L262.167,314.191z"/>
					<path style="fill:#467970;" d="M256.446,314.191l4.384-1.295l-0.825,2.59h4.333l-8.459,4.811l5.777-1.665l-6.396,5.181
						l5.777-2.405l-6.808,6.661l5.364-0.925l-6.808,3.885l4.384-0.74c0,0-5.21,4.07-7.17,7.956c-1.96-3.885-7.17-7.956-7.17-7.956
						l4.384,0.74l-6.808-3.885l5.364,0.925l-6.808-6.661l5.777,2.405l-6.396-5.181l5.777,1.665l-8.459-4.811h4.333l-0.825-2.59
						l4.384,1.295l-6.447-5.366l5.364,1.295l-3.095-2.59l9.607,2.342v-10.298h2.035v10.298l9.607-2.342l-3.095,2.59l5.364-1.295
						L256.446,314.191z"/>
					<path style="fill:#467970;" d="M237.671,302.72l4.384-1.295l-0.825,2.59h4.333l-8.459,4.81l5.777-1.665l-6.396,5.181
						l5.777-2.405l-6.808,6.661l5.364-0.925l-6.808,3.885l4.384-0.74c0,0-5.21,4.07-7.17,7.956c-1.96-3.885-7.17-7.956-7.17-7.956
						l4.384,0.74l-6.808-3.885l5.364,0.925l-6.808-6.661l5.777,2.405l-6.396-5.181l5.777,1.665l-8.459-4.81h4.333l-0.825-2.59
						l4.384,1.295l-6.447-5.366l5.364,1.295l-3.095-2.59l9.607,2.342v-10.298h2.035v10.298l9.607-2.342l-3.095,2.59l5.364-1.295
						L237.671,302.72z"/>
				</g>
			</g>
			<g style="clip-path:url(#SVGID_00000089550094034265829620000001055675313826858686_);">
				<g>
					<path style="fill:#467970;" d="M550.54,286.652l4.872-1.439l-0.917,2.879h4.815l-9.401,5.346l6.42-1.851l-7.108,5.757
						l6.42-2.673l-7.566,7.402l5.961-1.028l-7.566,4.318l4.872-0.823c0,0-5.789,4.523-7.968,8.841
						c-2.178-4.318-7.967-8.841-7.967-8.841l4.872,0.823l-7.566-4.318l5.961,1.028l-7.566-7.402l6.42,2.673l-7.107-5.757l6.42,1.851
						l-9.401-5.346h4.815l-0.917-2.879l4.872,1.439l-7.165-5.963l5.961,1.439l-3.439-2.879l10.677,2.603v-11.444h2.262v11.444
						l10.677-2.603l-3.439,2.879l5.961-1.439L550.54,286.652z"/>
					<path style="fill:#467970;" d="M582.945,298.209l7.942-2.346l-1.495,4.692h7.849l-15.324,8.714l10.464-3.016l-11.585,9.384
						l10.464-4.357l-12.333,12.066l9.717-1.676l-12.333,7.038l7.942-1.341c0,0-9.437,7.373-12.987,14.412
						c-3.55-7.038-12.987-14.412-12.987-14.412l7.942,1.341l-12.333-7.038l9.717,1.676l-12.333-12.066l10.464,4.357l-11.585-9.384
						l10.464,3.016l-15.323-8.714h7.849l-1.495-4.692l7.942,2.346l-11.679-9.719l9.717,2.346l-5.606-4.692l17.403,4.243v-18.655
						h3.687v18.655l17.403-4.243l-5.606,4.692l9.717-2.346L582.945,298.209z"/>
					<path style="fill:#467970;" d="M602.578,296.492l7.427-2.194l-1.398,4.388h7.34l-14.33,8.149l9.786-2.821l-10.834,8.776
						l9.786-4.075L598.821,320l9.087-1.567l-11.534,6.582l7.427-1.254c0,0-8.825,6.896-12.146,13.478
						c-3.32-6.582-12.146-13.478-12.146-13.478l7.427,1.254l-11.534-6.582l9.087,1.567l-11.534-11.284l9.786,4.075l-10.834-8.776
						l9.786,2.821l-14.33-8.149h7.34l-1.398-4.388l7.427,2.194l-10.922-9.09l9.087,2.194l-5.242-4.388l16.275,3.968v-17.445h3.448
						v17.445l16.275-3.968l-5.242,4.388l9.087-2.194L602.578,296.492z"/>
					<path style="fill:#467970;" d="M638.088,297.006l6.052-1.788l-1.139,3.576h5.982l-11.678,6.641l7.975-2.299l-8.829,7.152
						l7.975-3.321l-9.399,9.195l7.405-1.277l-9.399,5.364l6.053-1.022c0,0-7.192,5.619-9.898,10.983
						c-2.706-5.364-9.898-10.983-9.898-10.983l6.053,1.022l-9.399-5.364l7.405,1.277l-9.399-9.195l7.975,3.321l-8.829-7.152
						l7.975,2.299l-11.678-6.641h5.982l-1.139-3.576l6.052,1.788l-8.901-7.407l7.405,1.788l-4.272-3.576l13.263,3.233v-14.217h2.81
						v14.217l13.263-3.233l-4.272,3.576l7.405-1.788L638.088,297.006z"/>
					<path style="fill:#467970;" d="M616.998,297.639l6.052-1.788l-1.139,3.576h5.982l-11.678,6.641l7.975-2.299l-8.829,7.152
						l7.975-3.321l-9.399,9.195l7.405-1.277l-9.399,5.364l6.053-1.022c0,0-7.192,5.619-9.898,10.983
						c-2.706-5.364-9.898-10.983-9.898-10.983l6.053,1.022l-9.399-5.364l7.405,1.277l-9.399-9.195l7.975,3.321l-8.83-7.152
						l7.975,2.299l-11.678-6.641h5.982l-1.139-3.576l6.052,1.788l-8.901-7.407l7.405,1.788l-4.272-3.576l13.263,3.233v-14.217h2.81
						v14.217l13.263-3.233l-4.272,3.576l7.405-1.788L616.998,297.639z"/>
					<path style="fill:#467970;" d="M624.9,306.837l6.052-1.788l-1.139,3.576h5.982l-11.678,6.641l7.975-2.299l-8.829,7.152
						l7.975-3.32l-9.399,9.195l7.405-1.277l-9.399,5.364l6.053-1.022c0,0-7.192,5.619-9.898,10.983
						c-2.706-5.364-9.898-10.983-9.898-10.983l6.053,1.022l-9.399-5.364l7.405,1.277l-9.399-9.195l7.975,3.32l-8.829-7.152
						l7.975,2.299l-11.678-6.641h5.982l-1.139-3.576l6.052,1.788l-8.901-7.407l7.405,1.788l-4.272-3.576l13.263,3.233v-14.217h2.81
						v14.217l13.263-3.233l-4.272,3.576l7.405-1.788L624.9,306.837z"/>
					<path style="fill:#467970;" d="M655.43,294.122l4.384-1.295l-0.825,2.59h4.333l-8.459,4.81l5.777-1.665l-6.396,5.181
						l5.777-2.405l-6.808,6.661l5.364-0.925l-6.808,3.885l4.384-0.74c0,0-5.21,4.071-7.17,7.956
						c-1.96-3.885-7.169-7.956-7.169-7.956l4.384,0.74l-6.808-3.885l5.364,0.925l-6.808-6.661l5.777,2.405l-6.396-5.181l5.777,1.665
						l-8.459-4.81h4.333l-0.825-2.59l4.384,1.295l-6.447-5.366l5.364,1.295l-3.095-2.59l9.607,2.342v-10.298h2.035v10.298
						l9.607-2.342l-3.095,2.59l5.364-1.295L655.43,294.122z"/>
					<path style="fill:#467970;" d="M664.447,308.871l2.192-0.648l-0.413,1.295h2.167l-4.23,2.405l2.888-0.833l-3.198,2.59
						l2.888-1.203l-3.404,3.33l2.682-0.463l-3.404,1.943l2.192-0.37c0,0-2.605,2.035-3.585,3.978
						c-0.98-1.943-3.585-3.978-3.585-3.978l2.192,0.37l-3.404-1.943l2.682,0.463l-3.404-3.33l2.888,1.203l-3.198-2.59l2.888,0.833
						l-4.23-2.405h2.167l-0.413-1.295l2.192,0.648l-3.224-2.683l2.682,0.648l-1.547-1.295l4.804,1.171v-5.149h1.018v5.149
						l4.804-1.171l-1.547,1.295l2.682-0.648L664.447,308.871z"/>
					<path style="fill:#467970;" d="M533.887,287.143l4.384-1.295l-0.825,2.59h4.333l-8.459,4.811l5.777-1.665l-6.396,5.181
						l5.777-2.405l-6.808,6.661l5.364-0.925l-6.808,3.885l4.384-0.74c0,0-5.21,4.07-7.17,7.956c-1.96-3.885-7.17-7.956-7.17-7.956
						l4.384,0.74l-6.808-3.885l5.364,0.925l-6.808-6.661l5.777,2.405l-6.396-5.181l5.777,1.665l-8.459-4.811h4.333l-0.825-2.59
						l4.384,1.295l-6.447-5.366l5.364,1.295l-3.095-2.59l9.607,2.342v-10.298h2.035v10.298l9.607-2.342l-3.095,2.59l5.364-1.295
						L533.887,287.143z"/>
					<path style="fill:#467970;" d="M620.001,321.136l4.384-1.295l-0.825,2.59h4.333l-8.459,4.811l5.777-1.665l-6.396,5.181
						l5.777-2.405l-6.808,6.661l5.364-0.925l-6.808,3.885l4.384-0.74c0,0-5.21,4.07-7.17,7.956c-1.96-3.885-7.17-7.956-7.17-7.956
						l4.384,0.74l-6.808-3.885l5.364,0.925l-6.808-6.661l5.777,2.405l-6.396-5.181l5.777,1.665l-8.459-4.811h4.333l-0.825-2.59
						l4.384,1.295l-6.447-5.366l5.364,1.295l-3.095-2.59l9.607,2.342v-10.298h2.035v10.298l9.607-2.342l-3.095,2.59l5.364-1.295
						L620.001,321.136z"/>
					<path style="fill:#467970;" d="M559.269,309.664l4.384-1.295l-0.825,2.59h4.333l-8.459,4.81l5.777-1.665l-6.396,5.181
						l5.777-2.405l-6.808,6.661l5.364-0.925l-6.808,3.885l4.384-0.74c0,0-5.21,4.07-7.17,7.956c-1.96-3.885-7.169-7.956-7.169-7.956
						l4.384,0.74l-6.808-3.885l5.364,0.925l-6.808-6.661l5.777,2.405l-6.396-5.181l5.777,1.665l-8.459-4.81h4.333l-0.825-2.59
						l4.384,1.295l-6.447-5.366l5.364,1.295l-3.095-2.59l9.607,2.342v-10.298h2.035v10.298l9.607-2.342l-3.095,2.59l5.364-1.295
						L559.269,309.664z"/>
				</g>
				<path style="fill:#467970;" d="M465.342,253.952l33.866,26.642c0.922,0.725,2.019,1.196,3.18,1.365l54.727,7.94
					c0.626,0.091,1.235,0.27,1.81,0.531l57.588,26.179c1.303,0.592,2.762,0.752,4.163,0.455l64.536-13.691
					c1.203-0.255,2.453-0.174,3.613,0.234l66.669,23.453c4.357,1.533,8.922-1.7,8.922-6.32v-72.604c0-3.705-3.007-6.706-6.712-6.699
					l-288.233,0.551C463.118,242,460.349,250.024,465.342,253.952z"/>
			</g>
		</g>
		
			<ellipse style="opacity:0.8;clip-path:url(#SVGID_00000170988804614467209050000008777911350666202807_);fill:#FFFFFF;" cx="379.89" cy="322" rx="291.888" ry="1"/>
		
			<ellipse style="opacity:0.8;clip-path:url(#SVGID_00000170988804614467209050000008777911350666202807_);fill:#FFFFFF;" cx="375" cy="336.333" rx="145.944" ry="1"/>
		
			<ellipse style="opacity:0.8;clip-path:url(#SVGID_00000170988804614467209050000008777911350666202807_);fill:#FFFFFF;" cx="485.467" cy="345.603" rx="145.944" ry="1"/>
		
			<ellipse style="opacity:0.8;clip-path:url(#SVGID_00000170988804614467209050000008777911350666202807_);fill:#FFFFFF;" cx="266.414" cy="360.606" rx="145.944" ry="1"/>
		
			<ellipse style="opacity:0.8;clip-path:url(#SVGID_00000170988804614467209050000008777911350666202807_);fill:#FFFFFF;" cx="461.66" cy="377.447" rx="145.944" ry="1"/>
		<g style="clip-path:url(#SVGID_00000170988804614467209050000008777911350666202807_);">
			<path style="fill:#325B57;" d="M11.423,416.034l13.382,3.953l-2.519-7.906h13.226L9.691,397.398l17.633,5.083L7.802,386.668
				l17.633,7.342L4.654,373.678l16.373,2.824l-20.781-11.86l13.383,2.259c0,0-15.901-12.425-21.884-24.284
				c-5.983,11.86-21.884,24.284-21.884,24.284l13.383-2.259l-20.781,11.86l16.373-2.824l-20.781,20.331l17.633-7.342l-19.522,15.813
				l17.633-5.083l-25.821,14.684h13.226l-2.519,7.906l13.382-3.953l-19.679,16.378l16.373-3.953l-9.446,7.906l29.325-7.149v31.434
				h6.212v-31.434l29.325,7.149l-9.446-7.906l16.373,3.953L11.423,416.034z"/>
			<path style="fill:#325B57;" d="M11.423,452.466l13.382,3.953l-2.519-7.906h13.226L9.691,433.829l17.633,5.083L7.802,423.098
				l17.633,7.342L4.654,410.109l16.373,2.824l-20.781-11.86l13.383,2.259c0,0-15.901-12.424-21.884-24.284
				c-5.983,11.86-21.884,24.284-21.884,24.284l13.383-2.259l-20.781,11.86l16.373-2.824l-20.781,20.331l17.633-7.342l-19.522,15.813
				l17.633-5.083l-25.821,14.684h13.226l-2.519,7.906l13.382-3.953l-19.679,16.378l16.373-3.953l-9.446,7.906l29.325-7.149v31.434
				h6.212v-31.434l29.325,7.149l-9.446-7.906l16.373,3.953L11.423,452.466z"/>
			<path style="fill:#325B57;" d="M63.204,458.429l13.382,3.953l-2.519-7.906h13.226l-25.821-14.684l17.633,5.083l-19.522-15.813
				l17.633,7.342l-20.781-20.331l16.373,2.824l-20.781-11.86l13.383,2.259c0,0-15.902-12.424-21.884-24.284
				c-5.982,11.86-21.884,24.284-21.884,24.284l13.383-2.259l-20.781,11.86l16.373-2.824L9.834,436.404l17.633-7.342L7.944,444.875
				l17.633-5.083l-25.821,14.684h13.226l-2.519,7.906l13.382-3.953L4.166,474.807l16.373-3.953l-9.446,7.906l29.325-7.149v31.434
				h6.212v-31.434l29.325,7.149l-9.446-7.906l16.373,3.953L63.204,458.429z"/>
			<path style="fill:#325B57;" d="M111.42,458.429l13.382,3.953l-2.519-7.906h13.226l-25.821-14.684l17.633,5.083l-19.522-15.813
				l17.633,7.342l-20.781-20.331l16.373,2.824l-20.781-11.86l13.383,2.259c0,0-15.902-12.424-21.884-24.284
				c-5.982,11.86-21.884,24.284-21.884,24.284l13.383-2.259l-20.781,11.86l16.373-2.824L58.05,436.404l17.633-7.342l-19.522,15.813
				l17.633-5.083l-25.821,14.684h13.226l-2.519,7.906l13.382-3.953l-19.679,16.378l16.373-3.953l-9.446,7.906l29.325-7.149v31.434
				h6.212v-31.434l29.325,7.149l-9.446-7.906l16.373,3.953L111.42,458.429z"/>
			<path style="fill:#325B57;" d="M155.188,472.015l13.382,3.953l-2.519-7.906h13.226l-25.821-14.684l17.633,5.083l-19.522-15.813
				l17.633,7.342l-20.781-20.331l16.373,2.824l-20.781-11.86l13.383,2.259c0,0-15.902-12.425-21.884-24.284
				c-5.983,11.86-21.884,24.284-21.884,24.284l13.383-2.259l-20.781,11.86l16.373-2.824l-20.781,20.331l17.633-7.342l-19.522,15.813
				l17.633-5.083l-25.821,14.684h13.226l-2.519,7.906l13.382-3.953L96.15,488.393l16.373-3.953l-9.446,7.906l29.325-7.149v31.434
				h6.212v-31.434l29.325,7.149l-9.446-7.906l16.373,3.953L155.188,472.015z"/>
			<path style="fill:#325B57;" d="M250.819,481.802l13.382,3.953l-2.519-7.906h13.226l-25.821-14.684l17.633,5.083l-19.522-15.813
				l17.633,7.342l-20.781-20.331l16.373,2.824l-20.781-11.86l13.383,2.259c0,0-15.902-12.424-21.884-24.284
				c-5.982,11.86-21.884,24.284-21.884,24.284l13.383-2.259l-20.781,11.86l16.373-2.824l-20.781,20.331l17.633-7.342l-19.522,15.813
				l17.633-5.083l-25.821,14.684h13.226l-2.519,7.906l13.382-3.953l-19.679,16.378l16.373-3.953l-9.446,7.906l29.325-7.149v31.434
				h6.212v-31.434l29.325,7.149l-9.446-7.906l16.373,3.953L250.819,481.802z"/>
			<path style="fill:#325B57;" d="M204.189,487.034l13.382,3.953l-2.519-7.906h13.226l-25.821-14.684l17.633,5.083l-19.522-15.813
				l17.633,7.342l-20.781-20.331l16.373,2.824l-20.781-11.86l13.383,2.259c0,0-15.902-12.424-21.884-24.284
				c-5.983,11.86-21.884,24.284-21.884,24.284l13.383-2.259l-20.781,11.86l16.373-2.824l-20.781,20.331l17.633-7.342l-19.522,15.813
				l17.633-5.083l-25.821,14.684h13.226l-2.519,7.906l13.382-3.953l-19.679,16.378l16.373-3.953l-9.446,7.906l29.325-7.149v31.433
				h6.212v-31.433l29.325,7.149l-9.446-7.906l16.373,3.953L204.189,487.034z"/>
			<path style="fill:#325B57;" d="M325.317,488.283l13.382,3.953l-2.519-7.906h13.226l-25.821-14.684l17.633,5.083l-19.522-15.813
				l17.633,7.342l-20.781-20.331l16.373,2.824l-20.781-11.86l13.383,2.259c0,0-15.902-12.424-21.884-24.284
				c-5.982,11.86-21.884,24.284-21.884,24.284l13.383-2.259l-20.781,11.86l16.373-2.824l-20.781,20.331l17.633-7.342l-19.522,15.813
				l17.633-5.083l-25.821,14.684h13.226l-2.519,7.906l13.382-3.953l-19.679,16.378l16.373-3.953l-9.446,7.906l29.325-7.149v31.434
				h6.212v-31.434l29.325,7.149l-9.446-7.906l16.373,3.953L325.317,488.283z"/>
			<path style="fill:#325B57;" d="M221.66,466.699l13.382,3.953l-2.519-7.906h13.226l-25.821-14.684l17.633,5.083l-19.522-15.813
				l17.633,7.342l-20.781-20.331l16.373,2.824l-20.781-11.86l13.383,2.259c0,0-15.902-12.424-21.884-24.284
				c-5.983,11.86-21.884,24.284-21.884,24.284l13.383-2.259l-20.781,11.86l16.373-2.824l-20.781,20.331l17.633-7.342l-19.522,15.813
				l17.633-5.083l-25.821,14.684h13.226l-2.519,7.906l13.382-3.953l-19.679,16.378l16.373-3.953l-9.446,7.906l29.325-7.149v31.434
				h6.212V479.88l29.325,7.149l-9.446-7.906l16.373,3.953L221.66,466.699z"/>
			<path style="fill:#325B57;" d="M688.869,435.329l13.382,3.953l-2.519-7.907h13.226l-25.821-14.684l17.633,5.083l-19.522-15.813
				l17.633,7.342l-20.781-20.331l16.373,2.824l-20.781-11.86l13.383,2.259c0,0-15.901-12.424-21.884-24.284
				c-5.983,11.86-21.884,24.284-21.884,24.284l13.383-2.259l-20.781,11.86l16.373-2.824l-20.781,20.331l17.633-7.342l-19.522,15.813
				l17.633-5.083l-25.821,14.684h13.226l-2.519,7.907l13.382-3.953l-19.679,16.378l16.373-3.953l-9.446,7.906l29.325-7.149v31.434
				h6.212V448.51l29.325,7.149l-9.446-7.906l16.373,3.953L688.869,435.329z"/>
			<path style="fill:#325B57;" d="M716.622,460.802l13.382,3.953l-2.519-7.906h13.226l-25.821-14.684l17.633,5.083l-19.522-15.813
				l17.633,7.342l-20.781-20.331l16.373,2.824l-20.781-11.86l13.383,2.259c0,0-15.902-12.424-21.884-24.284
				c-5.983,11.86-21.884,24.284-21.884,24.284l13.383-2.259l-20.781,11.86l16.373-2.824l-20.781,20.331l17.633-7.342l-19.522,15.813
				l17.633-5.083l-25.821,14.684h13.226l-2.519,7.906l13.382-3.953l-19.679,16.378l16.373-3.953l-9.446,7.906l29.325-7.149v31.434
				h6.212v-31.434l29.325,7.149l-9.446-7.906l16.373,3.953L716.622,460.802z"/>
			<path style="fill:#325B57;" d="M636.198,420.664l13.382,3.953l-2.519-7.907h13.226l-25.821-14.684l17.633,5.083l-19.522-15.813
				l17.633,7.342l-20.781-20.331l16.373,2.824l-20.781-11.86l13.383,2.259c0,0-15.901-12.424-21.884-24.284
				c-5.983,11.86-21.884,24.284-21.884,24.284l13.383-2.259l-20.781,11.86l16.373-2.824l-20.781,20.331l17.633-7.342l-19.522,15.813
				l17.633-5.083l-25.821,14.684h13.226l-2.519,7.907l13.382-3.953l-19.679,16.378l16.373-3.953l-9.446,7.906l29.325-7.149v31.434
				h6.212v-31.434l29.325,7.149l-9.446-7.906l16.373,3.953L636.198,420.664z"/>
			<path style="fill:#325B57;" d="M177.892,432.302l13.382,3.953l-2.519-7.907h13.226l-25.821-14.684l17.633,5.083l-19.522-15.813
				l17.633,7.342l-20.781-20.331l16.373,2.824l-20.781-11.86l13.383,2.259c0,0-15.902-12.424-21.884-24.284
				c-5.982,11.86-21.884,24.284-21.884,24.284l13.383-2.259l-20.781,11.86l16.373-2.824l-20.781,20.331l17.633-7.342l-19.522,15.813
				l17.633-5.083l-25.821,14.684h13.226l-2.519,7.907l13.382-3.953l-19.679,16.378l16.373-3.953l-9.446,7.906l29.325-7.149v31.434
				h6.212v-31.434l29.325,7.149l-9.446-7.906l16.373,3.953L177.892,432.302z"/>
			<path style="fill:#325B57;" d="M29.353,395.443l9.693,2.864l-1.825-5.727h9.58l-18.703-10.636l12.772,3.682L26.73,374.171
				l12.772,5.318L24.45,364.762l11.86,2.045l-15.053-8.591l9.694,1.636c0,0-11.518-9-15.852-17.59
				c-4.333,8.591-15.852,17.59-15.852,17.59l9.694-1.636l-15.053,8.591l11.86-2.045l-15.053,14.727l12.772-5.318l-14.141,11.454
				l12.772-3.682l-18.703,10.636h9.58l-1.825,5.727l9.693-2.864l-14.255,11.863l11.86-2.863l-6.842,5.727l21.242-5.179v22.769h4.5
				v-22.769l21.242,5.179l-6.842-5.727l11.86,2.863L29.353,395.443z"/>
			<path style="fill:#325B57;" d="M705.455,394.053l5.788,1.71l-1.089-3.42h5.721l-11.168-6.351l7.627,2.198l-8.444-6.84
				l7.627,3.176l-8.988-8.794l7.082,1.221l-8.989-5.13l5.788,0.977c0,0-6.878-5.374-9.465-10.504
				c-2.588,5.13-9.465,10.504-9.465,10.504l5.788-0.977l-8.988,5.13l7.082-1.221l-8.988,8.794l7.627-3.176l-8.444,6.84l7.627-2.198
				l-11.168,6.351h5.721l-1.089,3.42l5.788-1.71l-8.512,7.084l7.082-1.71l-4.086,3.42l12.684-3.092v13.596h2.687v-13.596
				l12.684,3.092l-4.086-3.42l7.082,1.71L705.455,394.053z"/>
			<path style="fill:#325B57;" d="M61.057,425.297l9.693,2.864l-1.825-5.727h9.58l-18.703-10.636l12.772,3.682l-14.141-11.454
				l12.772,5.318l-15.053-14.727l11.86,2.045L52.96,388.07l9.694,1.636c0,0-11.518-9-15.852-17.591
				c-4.334,8.591-15.852,17.591-15.852,17.591l9.694-1.636l-15.053,8.591l11.86-2.045l-15.053,14.727l12.772-5.318L21.03,415.479
				l12.772-3.682l-18.703,10.636h9.58l-1.825,5.727l9.693-2.864L18.293,437.16l11.86-2.864l-6.842,5.727l21.242-5.179v22.769h4.5
				v-22.769l21.242,5.179l-6.842-5.727l11.86,2.864L61.057,425.297z"/>
			<path style="fill:#325B57;" d="M247.94,416.695l9.693,2.863l-1.825-5.727h9.58l-18.703-10.636l12.772,3.682l-14.141-11.454
				l12.772,5.318l-15.053-14.727l11.86,2.045l-15.053-8.591l9.694,1.636c0,0-11.518-9-15.852-17.59
				c-4.333,8.591-15.852,17.59-15.852,17.59l9.694-1.636l-15.053,8.591l11.86-2.045l-15.053,14.727l12.772-5.318l-14.141,11.454
				l12.772-3.682l-18.703,10.636h9.58l-1.825,5.727l9.693-2.863l-14.255,11.863l11.86-2.863l-6.842,5.727l21.242-5.179v22.769h4.5
				v-22.769l21.242,5.179l-6.842-5.727l11.86,2.863L247.94,416.695z"/>
			<path style="fill:#325B57;" d="M138.565,397.458l4.847,1.432l-0.912-2.864h4.79l-9.352-5.318l6.386,1.841l-7.07-5.727
				l6.386,2.659l-7.527-7.363l5.93,1.023l-7.527-4.295l4.847,0.818c0,0-5.759-4.5-7.926-8.795c-2.167,4.295-7.926,8.795-7.926,8.795
				l4.847-0.818l-7.526,4.295l5.93-1.023l-7.527,7.363l6.386-2.659l-7.07,5.727l6.386-1.841l-9.352,5.318h4.79l-0.912,2.864
				l4.847-1.432l-7.127,5.932l5.93-1.432l-3.421,2.864l10.621-2.589v11.385h2.25v-11.385l10.621,2.589l-3.421-2.864l5.93,1.432
				L138.565,397.458z"/>
			<path style="fill:#325B57;" d="M45.715,425.297l9.693,2.864l-1.825-5.727h9.58l-18.703-10.636l12.772,3.682l-14.141-11.454
				l12.772,5.318l-15.053-14.727l11.86,2.045l-15.053-8.591l9.694,1.636c0,0-11.518-9-15.852-17.591
				c-4.334,8.591-15.852,17.591-15.852,17.591l9.694-1.636l-15.053,8.591l11.86-2.045L7.056,409.342l12.772-5.318L5.688,415.479
				l12.772-3.682l-18.703,10.636h9.58l-1.825,5.727l9.693-2.864L2.951,437.16l11.86-2.864l-6.842,5.727l21.242-5.179v22.769h4.5
				v-22.769l21.242,5.179l-6.842-5.727l11.86,2.864L45.715,425.297z"/>
			<path style="fill:#325B57;" d="M99.006,403.713l9.693,2.864l-1.825-5.727h9.58l-18.703-10.636l12.772,3.682L96.383,382.44
				l12.772,5.318l-15.053-14.727l11.86,2.046l-15.053-8.591l9.694,1.636c0,0-11.518-9-15.852-17.591
				c-4.333,8.591-15.852,17.591-15.852,17.591l9.694-1.636l-15.053,8.591l11.86-2.046l-15.053,14.727l12.772-5.318l-14.141,11.454
				l12.772-3.682l-18.703,10.636h9.58l-1.825,5.727l9.693-2.864l-14.255,11.863l11.86-2.864l-6.842,5.727l21.242-5.179v22.769h4.5
				v-22.769l21.242,5.179l-6.842-5.727l11.86,2.864L99.006,403.713z"/>
			<path style="fill:#325B57;" d="M67.302,382.548l9.693,2.863l-1.825-5.727h9.58l-18.703-10.636l12.772,3.682l-14.141-11.454
				l12.772,5.318l-15.053-14.727l11.86,2.045l-15.053-8.591l9.694,1.636c0,0-11.518-9-15.852-17.59
				c-4.333,8.591-15.852,17.59-15.852,17.59l9.694-1.636l-15.053,8.591l11.86-2.045l-15.053,14.727l12.772-5.318L27.275,372.73
				l12.772-3.682l-18.703,10.636h9.58l-1.825,5.727l9.693-2.863l-14.255,11.863l11.86-2.863l-6.842,5.727l21.242-5.179v22.769h4.5
				v-22.769l21.242,5.179l-6.842-5.727l11.86,2.863L67.302,382.548z"/>
			<path style="fill:#325B57;" d="M279.643,435.084l9.693,2.863l-1.825-5.727h9.58l-18.703-10.636l12.772,3.682l-14.141-11.454
				l12.772,5.318l-15.053-14.727l11.86,2.045l-15.053-8.591l9.694,1.636c0,0-11.518-9-15.852-17.591
				c-4.333,8.591-15.852,17.591-15.852,17.591l9.694-1.636l-15.053,8.591l11.86-2.045l-15.053,14.727l12.772-5.318l-14.141,11.454
				l12.772-3.682l-18.703,10.636h9.58l-1.825,5.727l9.693-2.863l-14.255,11.863l11.86-2.864l-6.842,5.727l21.242-5.179v22.769h4.5
				v-22.769l21.242,5.179l-6.842-5.727l11.86,2.864L279.643,435.084z"/>
			<path style="fill:#325B57;" d="M210.829,435.084l9.693,2.863l-1.825-5.727h9.58l-18.703-10.636l12.772,3.682l-14.141-11.454
				l12.772,5.318l-15.053-14.727l11.86,2.045l-15.053-8.591l9.694,1.636c0,0-11.518-9-15.852-17.591
				c-4.333,8.591-15.852,17.591-15.852,17.591l9.694-1.636l-15.053,8.591l11.86-2.045L172.17,419.13l12.772-5.318l-14.141,11.454
				l12.772-3.682L164.87,432.22h9.58l-1.825,5.727l9.693-2.863l-14.255,11.863l11.86-2.864l-6.842,5.727l21.242-5.179v22.769h4.5
				v-22.769l21.242,5.179l-6.842-5.727l11.86,2.864L210.829,435.084z"/>
			<path style="fill:#325B57;" d="M130.71,435.084l9.693,2.863l-1.825-5.727h9.58l-18.703-10.636l12.772,3.682l-14.141-11.454
				l12.772,5.318l-15.053-14.727l11.86,2.045l-15.053-8.591l9.694,1.636c0,0-11.518-9-15.852-17.591
				c-4.333,8.591-15.852,17.591-15.852,17.591l9.694-1.636l-15.053,8.591l11.86-2.045L92.051,419.13l12.772-5.318l-14.141,11.454
				l12.772-3.682L84.751,432.22h9.58l-1.825,5.727l9.693-2.863l-14.255,11.863l11.86-2.864l-6.842,5.727l21.242-5.179v22.769h4.5
				v-22.769l21.242,5.179l-6.842-5.727l11.86,2.864L130.71,435.084z"/>
			<path style="fill:#325B57;" d="M118.06,435.084l9.693,2.863l-1.825-5.727h9.58l-18.703-10.636l12.772,3.682l-14.141-11.454
				l12.772,5.318l-15.053-14.727l11.86,2.045l-15.053-8.591l9.694,1.636c0,0-11.518-9-15.852-17.591
				c-4.334,8.591-15.852,17.591-15.852,17.591l9.694-1.636l-15.053,8.591l11.86-2.045L79.401,419.13l12.772-5.318l-14.141,11.454
				l12.772-3.682L72.102,432.22h9.58l-1.825,5.727l9.693-2.863l-14.255,11.863l11.86-2.864l-6.842,5.727l21.242-5.179v22.769h4.5
				v-22.769l21.242,5.179l-6.842-5.727l11.86,2.864L118.06,435.084z"/>
			<path style="fill:#325B57;" d="M86.356,428.332l9.693,2.864l-1.825-5.727h9.58l-18.703-10.636l12.772,3.682L83.733,407.06
				l12.772,5.318l-15.053-14.727l11.86,2.045l-15.053-8.591l9.694,1.636c0,0-11.518-9-15.852-17.591
				c-4.333,8.591-15.852,17.591-15.852,17.591l9.694-1.636l-15.053,8.591l11.86-2.045l-15.053,14.727l12.772-5.318l-14.141,11.454
				l12.772-3.682l-18.703,10.636h9.58l-1.825,5.727l9.693-2.864l-14.255,11.863l11.86-2.864l-6.842,5.727l21.242-5.179v22.769h4.5
				v-22.769l21.242,5.179l-6.842-5.727l11.86,2.864L86.356,428.332z"/>
			<path style="fill:#325B57;" d="M18.78,346.73l9.693,2.864l-1.825-5.727h9.58l-18.703-10.636l12.772,3.682l-14.141-11.454
				l12.772,5.318l-15.053-14.727l11.86,2.045l-15.053-8.591l9.694,1.636c0,0-11.518-9-15.852-17.591
				c-4.333,8.591-15.852,17.591-15.852,17.591l9.694-1.636l-15.053,8.591l11.86-2.045l-15.053,14.727l12.772-5.318l-14.141,11.454
				l12.772-3.682l-18.703,10.636h9.58l-1.825,5.727l9.693-2.864l-14.255,11.863l11.86-2.864l-6.842,5.727l21.242-5.179v22.769h4.5
				v-22.769l21.242,5.179l-6.842-5.727l11.86,2.864L18.78,346.73z"/>
			<path style="fill:#325B57;" d="M769.679,428.018l13.382,3.953l-2.519-7.906h13.226l-25.821-14.684l17.633,5.083l-19.522-15.813
				l17.633,7.342l-20.781-20.331l16.373,2.824l-20.781-11.86l13.383,2.259c0,0-15.902-12.424-21.884-24.284
				c-5.982,11.86-21.884,24.284-21.884,24.284l13.383-2.259l-20.781,11.86l16.373-2.824l-20.781,20.331l17.633-7.342l-19.522,15.813
				l17.633-5.083l-25.821,14.684h13.226l-2.519,7.906l13.382-3.953l-19.679,16.378l16.373-3.953l-9.446,7.906l29.325-7.149v31.434
				h6.212V441.2l29.325,7.149l-9.446-7.906l16.373,3.953L769.679,428.018z"/>
			<path style="fill:#325B57;" d="M769.679,416.034l13.382,3.953l-2.519-7.906h13.226l-25.821-14.684l17.633,5.083l-19.522-15.813
				l17.633,7.342l-20.781-20.331l16.373,2.824l-20.781-11.86l13.383,2.259c0,0-15.902-12.425-21.884-24.284
				c-5.982,11.86-21.884,24.284-21.884,24.284l13.383-2.259l-20.781,11.86l16.373-2.824l-20.781,20.331l17.633-7.342L714.42,402.48
				l17.633-5.083l-25.821,14.684h13.226l-2.519,7.906l13.382-3.953l-19.679,16.378l16.373-3.953l-9.446,7.906l29.325-7.149v31.434
				h6.212v-31.434l29.325,7.149l-9.446-7.906l16.373,3.953L769.679,416.034z"/>
			<path style="fill:#325B57;" d="M771.783,435.234l13.382,3.953l-2.519-7.906h13.226l-25.821-14.684l17.633,5.083l-19.522-15.813
				l17.633,7.342l-20.781-20.331l16.373,2.824l-20.781-11.86l13.383,2.259c0,0-15.902-12.424-21.884-24.284
				c-5.982,11.86-21.884,24.284-21.884,24.284l13.383-2.259l-20.781,11.86l16.373-2.824l-20.781,20.331l17.633-7.342l-19.522,15.813
				l17.633-5.083l-25.821,14.684h13.226l-2.519,7.906l13.382-3.953l-19.679,16.378l16.373-3.953l-9.446,7.906l29.325-7.149v31.434
				h6.212v-31.434l29.325,7.149l-9.446-7.906l16.373,3.953L771.783,435.234z"/>
			<path style="fill:#325B57;" d="M475.356,461.083l13.382,3.953l-2.519-7.906h13.226l-25.821-14.684l17.633,5.083l-19.522-15.813
				l17.633,7.342l-20.781-20.331l16.373,2.824l-20.781-11.86l13.383,2.259c0,0-15.902-12.424-21.884-24.284
				c-5.982,11.86-21.884,24.284-21.884,24.284l13.383-2.259l-20.781,11.86l16.373-2.824l-20.781,20.331l17.633-7.342l-19.522,15.813
				l17.633-5.083l-25.821,14.684h13.226l-2.519,7.906l13.382-3.953l-19.679,16.378l16.373-3.953l-9.446,7.907l29.325-7.149v31.434
				h6.212v-31.434l29.325,7.149l-9.446-7.907l16.373,3.953L475.356,461.083z"/>
			<path style="fill:#325B57;" d="M527.137,467.047L540.518,471L538,463.094h13.226l-25.821-14.684l17.633,5.083l-19.522-15.813
				l17.633,7.342l-20.781-20.331l16.373,2.824l-20.781-11.86l13.383,2.259c0,0-15.902-12.424-21.884-24.284
				c-5.982,11.86-21.884,24.284-21.884,24.284l13.383-2.259l-20.781,11.86l16.373-2.824l-20.781,20.331l17.633-7.342l-19.522,15.813
				l17.633-5.083l-25.821,14.684h13.226L474.396,471l13.382-3.953l-19.679,16.378l16.373-3.953l-9.446,7.907l29.325-7.149v31.434
				h6.212v-31.434l29.325,7.149l-9.446-7.907l16.373,3.953L527.137,467.047z"/>
			<path style="fill:#325B57;" d="M575.353,467.047L588.735,471l-2.519-7.906h13.226l-25.821-14.684l17.633,5.083l-19.522-15.813
				l17.633,7.342l-20.781-20.331l16.373,2.824l-20.781-11.86l13.383,2.259c0,0-15.902-12.424-21.884-24.284
				c-5.982,11.86-21.884,24.284-21.884,24.284l13.383-2.259l-20.781,11.86l16.373-2.824l-20.781,20.331l17.633-7.342l-19.522,15.813
				l17.633-5.083l-25.821,14.684h13.226L522.612,471l13.382-3.953l-19.679,16.378l16.373-3.953l-9.446,7.907l29.325-7.149v31.434
				h6.212v-31.434l29.325,7.149l-9.446-7.907l16.373,3.953L575.353,467.047z"/>
			<path style="fill:#325B57;" d="M403.059,478.964l13.382,3.953l-2.519-7.906h13.226l-25.821-14.684l17.633,5.083l-19.522-15.813
				l17.633,7.342l-20.781-20.331l16.373,2.824l-20.781-11.86l13.383,2.259c0,0-15.901-12.424-21.884-24.284
				c-5.983,11.86-21.884,24.284-21.884,24.284l13.383-2.259l-20.781,11.86l16.373-2.824l-20.781,20.331l17.633-7.342L347.8,465.409
				l17.633-5.083l-25.821,14.684h13.226l-2.519,7.906l13.382-3.953l-19.679,16.378l16.373-3.953l-9.446,7.907l29.325-7.149v31.434
				h6.212v-31.434l29.325,7.149l-9.446-7.907l16.373,3.953L403.059,478.964z"/>
			<path style="fill:#325B57;" d="M740.086,382.548l9.693,2.863l-1.825-5.727h9.58l-18.703-10.636l12.772,3.682l-14.141-11.454
				l12.772,5.318l-15.053-14.727l11.86,2.045l-15.053-8.591l9.694,1.636c0,0-11.518-9-15.852-17.59
				c-4.333,8.591-15.852,17.59-15.852,17.59l9.694-1.636l-15.053,8.591l11.86-2.045l-15.053,14.727l12.772-5.318l-14.141,11.454
				l12.772-3.682l-18.703,10.636h9.58l-1.825,5.727l9.693-2.863l-14.255,11.863l11.86-2.863l-6.842,5.727l21.242-5.179v22.769h4.5
				v-22.769l21.242,5.179l-6.842-5.727l11.86,2.863L740.086,382.548z"/>
			<path style="fill:#325B57;" d="M764.255,346.73l9.693,2.864l-1.825-5.727h9.58L763,333.231l12.772,3.682l-14.141-11.454
				l12.772,5.318l-15.053-14.727l11.86,2.045l-15.053-8.591l9.694,1.636c0,0-11.518-9-15.852-17.591
				c-4.333,8.591-15.852,17.591-15.852,17.591l9.694-1.636l-15.053,8.591l11.86-2.045l-15.053,14.727l12.772-5.318l-14.141,11.454
				L737,333.231l-18.703,10.636h9.58l-1.825,5.727l9.693-2.864l-14.255,11.863l11.86-2.864l-6.842,5.727l21.242-5.179v22.769h4.5
				v-22.769l21.242,5.179l-6.842-5.727l11.86,2.864L764.255,346.73z"/>
			<path style="fill:#325B57;" d="M524.99,433.914l9.693,2.864l-1.825-5.727h9.58l-18.703-10.636l12.772,3.682l-14.141-11.454
				l12.772,5.318l-15.053-14.727l11.86,2.045l-15.053-8.591l9.694,1.636c0,0-11.518-9-15.852-17.59
				c-4.333,8.591-15.852,17.59-15.852,17.59l9.694-1.636l-15.053,8.591l11.86-2.045l-15.053,14.727l12.772-5.318l-14.141,11.454
				l12.772-3.682l-18.703,10.636h9.58l-1.825,5.727l9.693-2.864l-14.255,11.863l11.86-2.864l-6.842,5.727l21.242-5.179v22.769h4.5
				v-22.769l21.242,5.179l-6.842-5.727l11.86,2.864L524.99,433.914z"/>
			<path style="fill:#325B57;" d="M509.648,433.914l9.693,2.864l-1.825-5.727h9.58l-18.703-10.636l12.772,3.682l-14.141-11.454
				l12.772,5.318l-15.053-14.727l11.86,2.045l-15.053-8.591l9.694,1.636c0,0-11.518-9-15.852-17.59
				c-4.333,8.591-15.852,17.59-15.852,17.59l9.694-1.636l-15.053,8.591l11.86-2.045l-15.053,14.727l12.772-5.318l-14.141,11.454
				l12.772-3.682l-18.703,10.636h9.58l-1.825,5.727l9.693-2.864l-14.255,11.863l11.86-2.864l-6.842,5.727l21.242-5.179v22.769h4.5
				v-22.769l21.242,5.179l-6.842-5.727l11.86,2.864L509.648,433.914z"/>
			<path style="fill:#325B57;" d="M562.939,412.33l9.693,2.864l-1.825-5.727h9.58l-18.703-10.636l12.772,3.682l-14.141-11.454
				l12.772,5.318l-15.053-14.727l11.86,2.045l-15.053-8.591l9.694,1.636c0,0-11.518-9-15.852-17.59
				c-4.333,8.591-15.852,17.59-15.852,17.59l9.694-1.636l-15.053,8.591l11.86-2.045l-15.053,14.727l12.772-5.318l-14.141,11.454
				l12.772-3.682l-18.703,10.636h9.58l-1.825,5.727l9.693-2.864l-14.255,11.863l11.86-2.864l-6.842,5.727l21.242-5.179v22.769h4.5
				v-22.769l21.242,5.179l-6.842-5.727l11.86,2.864L562.939,412.33z"/>
			<path style="fill:#325B57;" d="M594.642,443.702l9.693,2.864l-1.825-5.727h9.58l-18.703-10.636l12.772,3.682l-14.141-11.454
				l12.772,5.318l-15.053-14.727l11.86,2.045l-15.053-8.591l9.694,1.636c0,0-11.518-9-15.852-17.591
				c-4.333,8.591-15.852,17.591-15.852,17.591l9.694-1.636l-15.053,8.591l11.86-2.045l-15.053,14.727l12.772-5.318l-14.141,11.454
				l12.772-3.682l-18.703,10.636h9.58l-1.825,5.727l9.693-2.864l-14.255,11.863l11.86-2.863l-6.842,5.727l21.242-5.179v22.769h4.5
				V453.25l21.242,5.179l-6.842-5.727l11.86,2.863L594.642,443.702z"/>
			<path style="fill:#325B57;" d="M581.993,443.702l9.693,2.864l-1.825-5.727h9.58l-18.703-10.636l12.772,3.682l-14.141-11.454
				l12.772,5.318l-15.053-14.727l11.86,2.045l-15.053-8.591l9.694,1.636c0,0-11.518-9-15.852-17.591
				c-4.333,8.591-15.852,17.591-15.852,17.591l9.694-1.636l-15.053,8.591l11.86-2.045l-15.053,14.727l12.772-5.318l-14.141,11.454
				l12.772-3.682l-18.703,10.636h9.58l-1.825,5.727l9.693-2.864l-14.255,11.863l11.86-2.863l-6.842,5.727l21.242-5.179v22.769h4.5
				V453.25l21.242,5.179l-6.842-5.727l11.86,2.863L581.993,443.702z"/>
			<path style="fill:#325B57;" d="M550.289,436.95l9.693,2.864l-1.825-5.727h9.58l-18.703-10.636l12.772,3.682l-14.141-11.454
				l12.772,5.318l-15.053-14.727l11.86,2.045l-15.053-8.591l9.694,1.636c0,0-11.518-9-15.852-17.591
				c-4.334,8.591-15.852,17.591-15.852,17.591l9.694-1.636l-15.053,8.591l11.86-2.045l-15.053,14.727l12.772-5.318l-14.141,11.454
				l12.772-3.682l-18.703,10.636h9.58l-1.825,5.727l9.693-2.864l-14.255,11.863l11.86-2.864l-6.842,5.727l21.242-5.179v22.769h4.5
				v-22.769l21.242,5.179l-6.842-5.727l11.86,2.864L550.289,436.95z"/>
			<path style="fill:#325B57;" d="M279.643,474.994l9.693,2.864l-1.825-5.727h9.58l-18.703-10.636l12.772,3.682l-14.141-11.454
				l12.772,5.318l-15.053-14.727l11.86,2.045l-15.053-8.591l9.694,1.636c0,0-11.518-9-15.852-17.59
				c-4.333,8.591-15.852,17.59-15.852,17.59l9.694-1.636l-15.053,8.591l11.86-2.045l-15.053,14.727l12.772-5.318l-14.141,11.454
				l12.772-3.682l-18.703,10.636h9.58l-1.825,5.727l9.693-2.864l-14.255,11.863l11.86-2.864l-6.842,5.727l21.242-5.179v22.769h4.5
				v-22.769l21.242,5.179l-6.842-5.727l11.86,2.864L279.643,474.994z"/>
			<path style="fill:#325B57;" d="M353.675,468.046l9.693,2.863l-1.825-5.727h9.58l-18.703-10.636l12.772,3.682l-14.141-11.454
				l12.772,5.318l-15.053-14.727l11.86,2.045l-15.053-8.591l9.694,1.636c0,0-11.518-9-15.852-17.59
				c-4.333,8.591-15.852,17.59-15.852,17.59l9.694-1.636l-15.053,8.591l11.86-2.045l-15.053,14.727l12.772-5.318l-14.141,11.454
				l12.772-3.682l-18.703,10.636h9.58l-1.825,5.727l9.693-2.863l-14.255,11.863l11.86-2.864l-6.842,5.727l21.242-5.179v22.769h4.5
				v-22.769l21.242,5.179l-6.842-5.727l11.86,2.864L353.675,468.046z"/>
			<path style="fill:#325B57;" d="M380.08,468.046l9.693,2.863l-1.825-5.727h9.58l-18.703-10.636l12.772,3.682l-14.141-11.454
				l12.772,5.318l-15.053-14.727l11.86,2.045l-15.053-8.591l9.694,1.636c0,0-11.518-9-15.852-17.59
				c-4.333,8.591-15.852,17.59-15.852,17.59l9.694-1.636l-15.053,8.591l11.86-2.045l-15.053,14.727l12.772-5.318l-14.141,11.454
				l12.772-3.682l-18.703,10.636h9.58l-1.825,5.727l9.693-2.863l-14.255,11.863l11.86-2.864l-6.842,5.727l21.242-5.179v22.769h4.5
				v-22.769l21.242,5.179l-6.842-5.727l11.86,2.864L380.08,468.046z"/>
			<path style="fill:#325B57;" d="M301.984,451.778l9.693,2.864l-1.825-5.727h9.58l-18.703-10.636l12.772,3.682l-14.141-11.454
				l12.772,5.318l-15.053-14.727l11.86,2.045l-15.053-8.591l9.694,1.636c0,0-11.518-9-15.852-17.59
				c-4.333,8.591-15.852,17.59-15.852,17.59l9.694-1.636l-15.053,8.591l11.86-2.045l-15.053,14.727l12.772-5.318l-14.141,11.454
				l12.772-3.682l-18.703,10.636h9.58l-1.825,5.727l9.693-2.864l-14.255,11.863l11.86-2.863l-6.842,5.727l21.242-5.179v22.769h4.5
				v-22.769l21.242,5.179l-6.842-5.727l11.86,2.863L301.984,451.778z"/>
			<path style="fill:#325B57;" d="M327.025,446.462l9.693,2.864l-1.825-5.727h9.58l-18.703-10.636l12.772,3.682l-14.141-11.454
				l12.772,5.318l-15.053-14.727l11.86,2.045l-15.053-8.591l9.694,1.636c0,0-11.518-9-15.852-17.591
				c-4.333,8.591-15.852,17.591-15.852,17.591l9.694-1.636l-15.053,8.591l11.86-2.045l-15.053,14.727l12.772-5.318l-14.141,11.454
				l12.772-3.682l-18.703,10.636h9.58l-1.825,5.727l9.693-2.864l-14.255,11.863l11.86-2.864l-6.842,5.727l21.242-5.179v22.769h4.5
				V456.01l21.242,5.179l-6.842-5.727l11.86,2.864L327.025,446.462z"/>
			<path style="fill:#325B57;" d="M451.497,438.192l9.693,2.864l-1.825-5.727h9.58l-18.703-10.636l12.772,3.682l-14.141-11.454
				l12.772,5.318l-15.053-14.727l11.86,2.045l-15.053-8.591l9.694,1.636c0,0-11.518-9-15.852-17.59
				c-4.333,8.591-15.852,17.59-15.852,17.59l9.694-1.636l-15.053,8.591l11.86-2.045l-15.053,14.727l12.772-5.318l-14.141,11.454
				l12.772-3.682l-18.703,10.636h9.58l-1.825,5.727l9.693-2.864l-14.255,11.863l11.86-2.864l-6.842,5.727l21.242-5.179v22.769h4.5
				v-22.769l21.242,5.179l-6.842-5.727l11.86,2.864L451.497,438.192z"/>
			<path style="fill:#325B57;" d="M431.661,471.081l9.693,2.863l-1.825-5.727h9.58l-18.703-10.636l12.772,3.682l-14.141-11.454
				l12.772,5.318L426.758,440.4l11.86,2.045l-15.053-8.591l9.694,1.636c0,0-11.518-9-15.852-17.59
				c-4.333,8.591-15.852,17.59-15.852,17.59l9.694-1.636l-15.053,8.591l11.86-2.045l-15.053,14.727l12.772-5.318l-14.141,11.454
				l12.772-3.682l-18.703,10.636h9.58l-1.825,5.727l9.693-2.863l-14.255,11.863l11.86-2.864l-6.842,5.727l21.242-5.179v22.769h4.5
				V480.63l21.242,5.179l-6.842-5.727l11.86,2.864L431.661,471.081z"/>
			<path style="fill:#325B57;" d="M727.213,418.816l9.693,2.864l-1.825-5.727h9.58l-18.703-10.636l12.772,3.682l-14.141-11.454
				l12.772,5.318l-15.053-14.727l11.86,2.045l-15.053-8.591l9.694,1.636c0,0-11.518-9-15.852-17.59
				c-4.333,8.591-15.852,17.59-15.852,17.59l9.694-1.636l-15.053,8.591l11.86-2.045l-15.053,14.727l12.772-5.318l-14.141,11.454
				l12.772-3.682l-18.703,10.636h9.58l-1.825,5.727l9.693-2.864l-14.255,11.863l11.86-2.864l-6.842,5.727l21.242-5.179v22.769h4.5
				v-22.769l21.242,5.179l-6.842-5.727l11.86,2.864L727.213,418.816z"/>
		</g>
		<g style="clip-path:url(#SVGID_00000170988804614467209050000008777911350666202807_);">
			<path style="fill:#1B2F2E;" d="M39.853,475.079l16.867,4.983l-3.175-9.965h16.67L37.67,451.589l22.224,6.406l-24.605-19.931
				l22.224,9.254L31.32,421.693l20.637,3.559l-26.193-14.948l16.868,2.847c0,0-20.042-15.66-27.583-30.608
				c-7.54,14.948-27.583,30.608-27.583,30.608l16.868-2.847l-26.193,14.948l20.637-3.559l-26.193,25.625l22.224-9.254
				l-24.605,19.931l22.224-6.406l-32.544,18.507h16.67l-3.175,9.965l16.867-4.983l-24.804,20.643l20.637-4.983l-11.906,9.965
				l36.962-9.011v39.619h7.83v-39.619l36.962,9.011l-11.906-9.965l20.637,4.983L39.853,475.079z"/>
			<path style="fill:#1B2F2E;" d="M39.853,520.997l16.867,4.983l-3.175-9.965h16.67L37.67,497.507l22.224,6.406l-24.605-19.931
				l22.224,9.254L31.32,467.611l20.637,3.559l-26.193-14.948l16.868,2.847c0,0-20.042-15.66-27.583-30.608
				c-7.54,14.948-27.583,30.608-27.583,30.608l16.868-2.847L-21.86,471.17l20.637-3.559l-26.193,25.625l22.224-9.254l-24.605,19.931
				l22.224-6.406l-32.544,18.507h16.67l-3.175,9.965l16.867-4.983l-24.804,20.643l20.637-4.983l-11.906,9.966l36.962-9.011v39.619
				h7.83v-39.619l36.962,9.011l-11.906-9.966l20.637,4.983L39.853,520.997z"/>
			<path style="fill:#1B2F2E;" d="M105.117,528.514l16.867,4.983l-3.175-9.965h16.67l-32.545-18.507l22.224,6.406l-24.605-19.931
				l22.224,9.254l-26.193-25.625l20.637,3.559l-26.193-14.948l16.868,2.847c0,0-20.043-15.66-27.583-30.608
				c-7.54,14.948-27.583,30.608-27.583,30.608l16.868-2.847l-26.193,14.948l20.637-3.559l-26.193,25.625l22.224-9.254L35.468,511.43
				l22.224-6.406l-32.545,18.507h16.67l-3.175,9.965l16.867-4.983l-24.804,20.643l20.637-4.983l-11.906,9.966l36.962-9.011v39.619
				h7.83v-39.619l36.962,9.011l-11.906-9.966l20.637,4.983L105.117,528.514z"/>
			<path style="fill:#1B2F2E;" d="M165.89,528.514l16.867,4.983l-3.175-9.965h16.67l-32.545-18.507l22.224,6.406l-24.605-19.931
				l22.224,9.254l-26.193-25.625l20.637,3.559l-26.193-14.948l16.868,2.847c0,0-20.042-15.66-27.583-30.608
				c-7.54,14.948-27.583,30.608-27.583,30.608l16.868-2.847l-26.193,14.948l20.637-3.559l-26.193,25.625l22.224-9.254L96.24,511.43
				l22.224-6.406L85.92,523.531h16.67l-3.175,9.965l16.867-4.983l-24.804,20.643l20.637-4.983l-11.906,9.966l36.962-9.011v39.619
				h7.83v-39.619l36.962,9.011l-11.906-9.966l20.637,4.983L165.89,528.514z"/>
			<path style="fill:#1B2F2E;" d="M221.055,545.637l16.867,4.983l-3.175-9.966h16.67l-32.545-18.507l22.224,6.406l-24.605-19.931
				l22.224,9.254l-26.193-25.625l20.637,3.559l-26.193-14.948l16.868,2.847c0,0-20.042-15.66-27.583-30.608
				c-7.54,14.948-27.583,30.608-27.583,30.608l16.868-2.847l-26.193,14.948l20.637-3.559l-26.193,25.625l22.224-9.254
				l-24.605,19.931l22.224-6.406l-32.545,18.507h16.67l-3.175,9.966l16.867-4.983l-24.804,20.643l20.637-4.983l-11.906,9.965
				l36.962-9.011v39.619h7.83v-39.619l36.962,9.011l-11.906-9.965l20.637,4.983L221.055,545.637z"/>
			<path style="fill:#1B2F2E;" d="M341.59,557.973l16.867,4.983l-3.175-9.965h16.67l-32.545-18.507l22.224,6.406l-24.605-19.931
				l22.224,9.254l-26.193-25.625l20.637,3.559l-26.193-14.948l16.868,2.847c0,0-20.042-15.66-27.583-30.608
				c-7.54,14.948-27.583,30.608-27.583,30.608l16.868-2.847l-26.193,14.948l20.637-3.559l-26.193,25.625l22.224-9.254L271.94,540.89
				l22.224-6.406L261.62,552.99h16.67l-3.175,9.965l16.867-4.983l-24.804,20.643l20.637-4.983l-11.906,9.965l36.962-9.011v39.619
				h7.83v-39.619l36.962,9.011l-11.906-9.965l20.637,4.983L341.59,557.973z"/>
			<path style="fill:#1B2F2E;" d="M282.816,564.568l16.867,4.983l-3.175-9.965h16.67l-32.544-18.507l22.224,6.406l-24.605-19.931
				l22.224,9.254l-26.193-25.625l20.637,3.559l-26.193-14.948l16.867,2.847c0,0-20.042-15.66-27.583-30.608
				c-7.54,14.948-27.583,30.608-27.583,30.608l16.867-2.847l-26.193,14.948l20.637-3.559l-26.193,25.625l22.224-9.254
				l-24.605,19.931l22.224-6.406l-32.545,18.507h16.67l-3.175,9.965l16.867-4.983l-24.804,20.643l20.637-4.983l-11.906,9.966
				l36.962-9.011v39.619h7.83v-39.619l36.962,9.011l-11.906-9.966l20.637,4.983L282.816,564.568z"/>
			<path style="fill:#1B2F2E;" d="M435.487,566.141l16.867,4.983l-3.175-9.965h16.67l-32.545-18.507l22.224,6.406l-24.606-19.931
				l22.224,9.254l-26.193-25.625l20.637,3.559l-26.193-14.948l16.868,2.847c0,0-20.043-15.66-27.583-30.608
				c-7.54,14.948-27.583,30.608-27.583,30.608l16.868-2.847l-26.193,14.948l20.637-3.559l-26.193,25.625l22.224-9.254
				l-24.605,19.931l22.224-6.406l-32.545,18.507h16.67l-3.175,9.965l16.867-4.983l-24.804,20.643l20.637-4.983l-11.906,9.965
				l36.962-9.011v39.619h7.83v-39.619l36.962,9.011l-11.906-9.965l20.637,4.983L435.487,566.141z"/>
			<path style="fill:#1B2F2E;" d="M304.837,538.937l16.867,4.983l-3.175-9.965h16.67l-32.545-18.507l22.224,6.406l-24.605-19.931
				l22.224,9.254l-26.193-25.625l20.637,3.559l-26.193-14.948l16.868,2.847c0,0-20.042-15.66-27.583-30.608
				c-7.54,14.948-27.583,30.608-27.583,30.608l16.868-2.847l-26.193,14.948l20.637-3.559l-26.193,25.625l22.224-9.254
				l-24.605,19.931l22.224-6.406l-32.545,18.507h16.67l-3.175,9.965l16.867-4.983l-24.804,20.643l20.637-4.983l-11.906,9.966
				l36.962-9.011v39.619h7.83v-39.619l36.962,9.011l-11.906-9.966l20.637,4.983L304.837,538.937z"/>
			<path style="fill:#1B2F2E;" d="M551.308,510.706l16.867,4.983L565,505.723h16.67l-32.545-18.507l22.224,6.406l-24.605-19.931
				l22.224,9.254l-26.193-25.625l20.637,3.559l-26.193-14.948l16.868,2.847c0,0-20.042-15.66-27.583-30.608
				c-7.54,14.948-27.583,30.608-27.583,30.608l16.867-2.847l-26.193,14.948l20.637-3.559l-26.193,25.625l22.224-9.254
				l-24.605,19.931l22.224-6.406l-32.544,18.507h16.67l-3.175,9.966l16.867-4.983l-24.804,20.643l20.637-4.983l-11.906,9.965
				l36.962-9.011v39.619h7.83V527.32l36.962,9.011l-11.906-9.965l20.637,4.983L551.308,510.706z"/>
			<path style="fill:#1B2F2E;" d="M493.273,491.756l16.867,4.983l-3.175-9.965h16.67l-32.544-18.507l22.224,6.406l-24.605-19.931
				l22.224,9.254L484.74,438.37l20.637,3.559l-26.193-14.948l16.867,2.847c0,0-20.042-15.66-27.583-30.608
				c-7.54,14.948-27.583,30.608-27.583,30.608l16.868-2.847l-26.193,14.948l20.637-3.559l-26.193,25.625l22.224-9.254
				l-24.606,19.931l22.224-6.406l-32.545,18.507h16.67l-3.175,9.965l16.867-4.983l-24.804,20.643l20.637-4.983l-11.906,9.965
				l36.962-9.011v39.619h7.83v-39.619l36.962,9.011l-11.906-9.965l20.637,4.983L493.273,491.756z"/>
			<path style="fill:#1B2F2E;" d="M249.672,495.583l16.867,4.983l-3.175-9.965h16.67l-32.545-18.507l22.224,6.406l-24.606-19.931
				l22.224,9.254l-26.193-25.625l20.637,3.559l-26.193-14.948l16.868,2.847c0,0-20.043-15.66-27.583-30.608
				c-7.54,14.948-27.583,30.608-27.583,30.608l16.868-2.847l-26.193,14.948l20.637-3.559l-26.193,25.625l22.224-9.254
				l-24.605,19.931l22.224-6.406L169.702,490.6h16.67l-3.175,9.965l16.867-4.983l-24.804,20.643l20.637-4.983l-11.906,9.966
				l36.962-9.011v39.619h7.83v-39.619l36.962,9.011l-11.906-9.966l20.637,4.983L249.672,495.583z"/>
			<path style="fill:#1B2F2E;" d="M62.452,449.126l12.218,3.609l-2.3-7.219h12.075l-23.574-13.406l16.098,4.64l-17.823-14.437
				l16.098,6.703l-18.973-18.562l14.948,2.578l-18.973-10.828l12.218,2.063c0,0-14.518-11.343-19.98-22.171
				c-5.462,10.828-19.98,22.171-19.98,22.171l12.218-2.063L17.75,413.033l14.948-2.578l-18.973,18.562l16.098-6.703l-17.823,14.437
				l16.098-4.64L4.525,445.516H16.6l-2.3,7.219l12.217-3.609L8.551,464.078l14.948-3.609l-8.624,7.219l26.774-6.527v28.698h5.672
				V461.16l26.774,6.527l-8.624-7.219l14.948,3.609L62.452,449.126z"/>
			<path style="fill:#1B2F2E;" d="M406.541,460.952l7.295,2.155l-1.373-4.31h7.21l-14.076-8.005l9.613,2.771l-10.643-8.621
				l9.613,4.002l-11.329-11.084l8.926,1.539l-11.329-6.465l7.296,1.232c0,0-8.669-6.773-11.93-13.239
				c-3.261,6.465-11.93,13.239-11.93,13.239l7.296-1.232l-11.329,6.465l8.926-1.539l-11.329,11.084l9.613-4.002l-10.642,8.621
				l9.613-2.771l-14.076,8.005h7.21l-1.373,4.31l7.295-2.155l-10.728,8.929l8.926-2.155l-5.15,4.31l15.987-3.897v17.136h3.387
				v-17.136l15.987,3.897l-5.15-4.31l8.926,2.155L406.541,460.952z"/>
			<path style="fill:#1B2F2E;" d="M102.411,486.753l12.217,3.609l-2.3-7.219h12.075l-23.574-13.406l16.098,4.641l-17.823-14.437
				l16.098,6.703l-18.973-18.562l14.949,2.578l-18.973-10.828l12.218,2.062c0,0-14.518-11.343-19.98-22.171
				c-5.462,10.828-19.98,22.171-19.98,22.171l12.218-2.062L57.71,450.66l14.949-2.578l-18.973,18.562l16.098-6.703L51.96,474.378
				l16.098-4.641l-23.574,13.406H56.56l-2.3,7.219l12.217-3.609l-17.967,14.953l14.948-3.609l-8.624,7.219l26.774-6.527v28.698
				h5.672v-28.698l26.774,6.527l-8.624-7.219l14.948,3.609L102.411,486.753z"/>
			<path style="fill:#1B2F2E;" d="M337.96,475.911l12.217,3.609l-2.3-7.219h12.075l-23.574-13.406l16.098,4.641l-17.823-14.437
				l16.098,6.703L331.78,437.24l14.948,2.578l-18.973-10.828l12.218,2.062c0,0-14.518-11.343-19.98-22.171
				c-5.462,10.828-19.98,22.171-19.98,22.171l12.218-2.062l-18.973,10.828l14.948-2.578l-18.973,18.562l16.098-6.703l-17.823,14.437
				l16.098-4.641l-23.574,13.406h12.075l-2.3,7.219l12.217-3.609l-17.967,14.953l14.949-3.609l-8.624,7.219l26.774-6.527v28.698
				h5.672v-28.698l26.774,6.527l-8.624-7.219l14.949,3.609L337.96,475.911z"/>
			<path style="fill:#1B2F2E;" d="M200.103,451.665l6.109,1.805l-1.15-3.609h6.038l-11.787-6.703l8.049,2.32l-8.912-7.219
				l8.049,3.352l-9.487-9.281l7.474,1.289L195,428.205l6.109,1.031c0,0-7.259-5.672-9.99-11.086
				c-2.731,5.414-9.99,11.086-9.99,11.086l6.109-1.031l-9.486,5.414l7.474-1.289l-9.486,9.281l8.049-3.352l-8.911,7.219l8.049-2.32
				l-11.787,6.703h6.038l-1.15,3.609l6.109-1.805l-8.983,7.476l7.474-1.805l-4.312,3.609l13.387-3.263v14.349h2.836v-14.349
				l13.387,3.263l-4.312-3.609l7.474,1.805L200.103,451.665z"/>
			<path style="fill:#1B2F2E;" d="M83.074,486.753l12.217,3.609l-2.3-7.219h12.075l-23.574-13.406l16.098,4.641l-17.823-14.437
				l16.098,6.703l-18.973-18.562l14.949,2.578l-18.973-10.828l12.218,2.062c0,0-14.518-11.343-19.98-22.171
				c-5.462,10.828-19.98,22.171-19.98,22.171l12.218-2.062L38.373,450.66l14.948-2.578l-18.973,18.562l16.098-6.703l-17.823,14.437
				l16.098-4.641l-23.574,13.406h12.075l-2.3,7.219l12.217-3.609l-17.967,14.953l14.948-3.609l-8.624,7.219l26.774-6.527v28.698
				h5.672v-28.698l26.774,6.527l-8.624-7.219l14.948,3.609L83.074,486.753z"/>
			<path style="fill:#1B2F2E;" d="M150.243,459.548l12.217,3.609l-2.3-7.219h12.075l-23.574-13.406l16.098,4.641l-17.823-14.437
				l16.098,6.703l-18.973-18.562l14.948,2.578l-18.973-10.828l12.218,2.063c0,0-14.518-11.343-19.98-22.171
				c-5.462,10.828-19.98,22.171-19.98,22.171l12.218-2.063l-18.973,10.828l14.948-2.578l-18.973,18.562l16.098-6.703l-17.823,14.437
				l16.098-4.641l-23.574,13.406h12.075l-2.3,7.219l12.217-3.609l-17.967,14.953l14.948-3.609l-8.624,7.218l26.774-6.527v28.698
				h5.672v-28.698l26.774,6.527l-8.624-7.218l14.949,3.609L150.243,459.548z"/>
			<path style="fill:#1B2F2E;" d="M377.92,499.089l12.217,3.609l-2.3-7.219h12.075l-23.574-13.406l16.098,4.64l-17.823-14.437
				l16.098,6.703l-18.973-18.562l14.948,2.578l-18.973-10.828l12.218,2.063c0,0-14.518-11.343-19.98-22.171
				c-5.462,10.828-19.98,22.171-19.98,22.171l12.218-2.063l-18.973,10.828l14.948-2.578l-18.973,18.562l16.098-6.703l-17.823,14.437
				l16.098-4.64l-23.574,13.406h12.075l-2.3,7.219l12.217-3.609l-17.967,14.953l14.948-3.609l-8.624,7.219l26.774-6.527v28.698
				h5.672v-28.698l26.774,6.527l-8.624-7.219l14.948,3.609L377.92,499.089z"/>
			<path style="fill:#1B2F2E;" d="M291.185,499.089l12.217,3.609l-2.3-7.219h12.075l-23.574-13.406l16.098,4.64l-17.823-14.437
				l16.098,6.703l-18.973-18.562l14.948,2.578l-18.973-10.828l12.218,2.063c0,0-14.518-11.343-19.98-22.171
				c-5.462,10.828-19.98,22.171-19.98,22.171l12.218-2.063l-18.973,10.828l14.948-2.578l-18.973,18.562l16.098-6.703l-17.823,14.437
				l16.098-4.64l-23.574,13.406h12.075l-2.3,7.219l12.217-3.609l-17.967,14.953l14.948-3.609l-8.624,7.219l26.774-6.527v28.698
				h5.672v-28.698l26.774,6.527l-8.624-7.219l14.948,3.609L291.185,499.089z"/>
			<path style="fill:#1B2F2E;" d="M190.202,499.089l12.217,3.609l-2.3-7.219h12.075l-23.574-13.406l16.098,4.64l-17.823-14.437
				l16.098,6.703l-18.973-18.562l14.948,2.578l-18.973-10.828l12.218,2.063c0,0-14.518-11.343-19.98-22.171
				c-5.462,10.828-19.98,22.171-19.98,22.171l12.218-2.063l-18.973,10.828l14.948-2.578l-18.973,18.562l16.098-6.703l-17.823,14.437
				l16.098-4.64l-23.574,13.406h12.075l-2.3,7.219l12.217-3.609l-17.967,14.953l14.949-3.609l-8.624,7.219l26.774-6.527v28.698
				h5.672v-28.698l26.774,6.527l-8.624-7.219l14.949,3.609L190.202,499.089z"/>
			<path style="fill:#1B2F2E;" d="M174.259,499.089l12.217,3.609l-2.3-7.219h12.075l-23.574-13.406l16.098,4.64l-17.823-14.437
				l16.098,6.703l-18.973-18.562l14.948,2.578l-18.973-10.828l12.218,2.063c0,0-14.518-11.343-19.98-22.171
				c-5.462,10.828-19.98,22.171-19.98,22.171l12.218-2.063l-18.973,10.828l14.949-2.578l-18.973,18.562l16.098-6.703l-17.823,14.437
				l16.098-4.64l-23.574,13.406h12.075l-2.3,7.219l12.217-3.609l-17.967,14.953l14.948-3.609l-8.624,7.219l26.774-6.527v28.698
				h5.672v-28.698l26.774,6.527l-8.624-7.219l14.949,3.609L174.259,499.089z"/>
			<path style="fill:#1B2F2E;" d="M134.299,490.579l12.217,3.609l-2.3-7.219h12.075l-23.574-13.406l16.098,4.641l-17.823-14.437
				l16.098,6.703l-18.973-18.562l14.948,2.578l-18.973-10.828l12.218,2.062c0,0-14.518-11.343-19.98-22.171
				c-5.462,10.828-19.98,22.171-19.98,22.171l12.218-2.062l-18.973,10.828l14.948-2.578L85.573,470.47l16.098-6.703l-17.823,14.437
				l16.098-4.641L76.372,486.97h12.075l-2.3,7.219l12.217-3.609l-17.967,14.953l14.948-3.609l-8.624,7.219l26.774-6.527v28.698
				h5.672v-28.698l26.774,6.527l-8.624-7.219l14.948,3.609L134.299,490.579z"/>
			<path style="fill:#1B2F2E;" d="M624.598,485.941l16.867,4.983l-3.175-9.965h16.67l-32.545-18.507l22.224,6.406l-24.606-19.931
				l22.224,9.254l-26.193-25.625l20.637,3.559l-26.193-14.948l16.868,2.847c0,0-20.043-15.66-27.583-30.608
				c-7.54,14.948-27.583,30.608-27.583,30.608l16.868-2.847l-26.193,14.948l20.637-3.559l-26.193,25.625l22.224-9.254
				l-24.605,19.931l22.224-6.406l-32.544,18.507h16.67l-3.175,9.965l16.867-4.983l-24.804,20.643l20.637-4.983l-11.906,9.965
				l36.962-9.011v39.619h7.83v-39.619l36.962,9.011l-11.906-9.965l20.637,4.983L624.598,485.941z"/>
			<path style="fill:#1B2F2E;" d="M624.598,531.859l16.867,4.983l-3.175-9.965h16.67l-32.545-18.507l22.224,6.406l-24.606-19.931
				l22.224,9.254l-26.193-25.625l20.637,3.559l-26.193-14.948l16.868,2.847c0,0-20.043-15.66-27.583-30.608
				c-7.54,14.948-27.583,30.608-27.583,30.608l16.868-2.847l-26.193,14.948l20.637-3.559l-26.193,25.625l22.224-9.254
				l-24.605,19.931l22.224-6.406l-32.544,18.507h16.67l-3.175,9.965l16.867-4.983l-24.804,20.643l20.637-4.983l-11.906,9.965
				l36.962-9.011v39.619h7.83v-39.619l36.962,9.011l-11.906-9.965l20.637,4.983L624.598,531.859z"/>
			<path style="fill:#1B2F2E;" d="M689.862,539.376l16.867,4.983l-3.175-9.965h16.67l-32.545-18.507l22.224,6.406l-24.605-19.931
				l22.224,9.254l-26.193-25.625l20.637,3.559L675.774,474.6l16.868,2.847c0,0-20.042-15.66-27.583-30.608
				c-7.54,14.948-27.583,30.608-27.583,30.608l16.868-2.847l-26.193,14.948l20.637-3.559l-26.193,25.625l22.224-9.254
				l-24.606,19.931l22.224-6.406l-32.545,18.507h16.67l-3.175,9.965l16.867-4.983l-24.804,20.643l20.637-4.983l-11.906,9.965
				l36.962-9.011v39.619h7.83V555.99l36.962,9.011l-11.906-9.965l20.637,4.983L689.862,539.376z"/>
			<path style="fill:#1B2F2E;" d="M750.635,539.376l16.867,4.983l-3.175-9.965h16.67l-32.545-18.507l22.224,6.406l-24.605-19.931
				l22.224,9.254l-26.193-25.625l20.637,3.559L736.546,474.6l16.868,2.847c0,0-20.043-15.66-27.583-30.608
				c-7.54,14.948-27.583,30.608-27.583,30.608l16.868-2.847l-26.193,14.948l20.637-3.559l-26.193,25.625l22.224-9.254
				l-24.605,19.931l22.224-6.406l-32.545,18.507h16.67l-3.175,9.965l16.867-4.983l-24.804,20.643l20.637-4.983l-11.906,9.965
				l36.962-9.011v39.619h7.83V555.99l36.962,9.011l-11.906-9.965l20.637,4.983L750.635,539.376z"/>
			<path style="fill:#1B2F2E;" d="M533.474,554.395l16.867,4.983l-3.175-9.965h16.67l-32.545-18.507l22.224,6.406l-24.605-19.931
				l22.224,9.254l-26.193-25.625l20.637,3.559l-26.193-14.948l16.868,2.847c0,0-20.042-15.66-27.583-30.608
				c-7.54,14.948-27.583,30.608-27.583,30.608l16.868-2.847l-26.193,14.948l20.637-3.559l-26.193,25.625l22.224-9.254
				l-24.605,19.931l22.224-6.406l-32.545,18.507h16.67L467,559.378l16.867-4.983l-24.804,20.643l20.637-4.983l-11.906,9.965
				l36.962-9.011v39.619h7.83V571.01l36.962,9.011l-11.906-9.965l20.637,4.983L533.474,554.395z"/>
			<path style="fill:#1B2F2E;" d="M647.197,459.987l12.217,3.609l-2.3-7.219h12.075l-23.574-13.406l16.098,4.641l-17.823-14.437
				l16.098,6.703l-18.973-18.562l14.948,2.578l-18.973-10.828l12.218,2.062c0,0-14.518-11.343-19.98-22.171
				c-5.462,10.828-19.98,22.171-19.98,22.171l12.218-2.062l-18.973,10.828l14.948-2.578l-18.973,18.562l16.098-6.703l-17.823,14.437
				l16.098-4.641l-23.574,13.406h12.075l-2.3,7.219l12.218-3.609l-17.967,14.953l14.948-3.609l-8.624,7.219l26.774-6.527v28.698
				h5.672v-28.698l26.774,6.527l-8.624-7.219l14.948,3.609L647.197,459.987z"/>
			<path style="fill:#1B2F2E;" d="M687.156,497.615l12.218,3.609l-2.3-7.219h12.075L685.576,480.6l16.098,4.64l-17.823-14.437
				l16.098,6.703l-18.973-18.562l14.949,2.578l-18.973-10.828l12.218,2.063c0,0-14.518-11.343-19.98-22.171
				c-5.462,10.828-19.98,22.171-19.98,22.171l12.218-2.063l-18.973,10.828l14.949-2.578l-18.973,18.562l16.098-6.703l-17.823,14.437
				l16.098-4.64l-23.574,13.406h12.075l-2.3,7.219l12.218-3.609l-17.967,14.953l14.948-3.609l-8.624,7.218l26.774-6.527v28.698
				h5.672v-28.698l26.774,6.527l-8.624-7.218l14.948,3.609L687.156,497.615z"/>
			<path style="fill:#1B2F2E;" d="M667.819,497.615l12.217,3.609l-2.3-7.219h12.075L666.238,480.6l16.098,4.64l-17.823-14.437
				l16.098,6.703l-18.973-18.562l14.948,2.578l-18.973-10.828l12.218,2.063c0,0-14.518-11.343-19.98-22.171
				c-5.462,10.828-19.98,22.171-19.98,22.171l12.218-2.063l-18.973,10.828l14.948-2.578l-18.973,18.562l16.098-6.703l-17.823,14.437
				l16.098-4.64l-23.574,13.406h12.075l-2.3,7.219l12.217-3.609l-17.967,14.953l14.948-3.609l-8.624,7.218l26.774-6.527v28.698
				h5.672v-28.698l26.774,6.527l-8.624-7.218l14.948,3.609L667.819,497.615z"/>
			<path style="fill:#1B2F2E;" d="M734.988,470.41l12.217,3.609l-2.3-7.219h12.075l-23.574-13.406l16.098,4.641l-17.823-14.437
				l16.098,6.703l-18.973-18.562l14.948,2.578l-18.973-10.828l12.218,2.062c0,0-14.518-11.343-19.98-22.171
				c-5.462,10.828-19.98,22.171-19.98,22.171l12.218-2.062l-18.973,10.828l14.948-2.578l-18.973,18.562l16.098-6.703l-17.823,14.437
				l16.098-4.641l-23.574,13.406h12.075l-2.3,7.219l12.217-3.609l-17.967,14.953l14.948-3.609l-8.624,7.219l26.774-6.527v28.698
				h5.672v-28.698l26.774,6.527l-8.624-7.219l14.948,3.609L734.988,470.41z"/>
			<path style="fill:#1B2F2E;" d="M774.947,509.951l12.218,3.609l-2.3-7.219h12.075l-23.574-13.406l16.098,4.641l-17.823-14.437
				l16.098,6.703l-18.973-18.562l14.948,2.578l-18.973-10.828l12.218,2.062c0,0-14.518-11.343-19.98-22.171
				c-5.462,10.828-19.98,22.171-19.98,22.171l12.218-2.062l-18.973,10.828l14.948-2.578l-18.973,18.562l16.098-6.703l-17.823,14.437
				l16.098-4.641l-23.574,13.406h12.075l-2.3,7.219l12.217-3.609l-17.967,14.953l14.948-3.609l-8.624,7.219l26.774-6.527v28.698
				h5.672v-28.698l26.774,6.527l-8.624-7.219l14.948,3.609L774.947,509.951z"/>
			<path style="fill:#1B2F2E;" d="M759.004,509.951l12.217,3.609l-2.3-7.219h12.075l-23.574-13.406l16.098,4.641l-17.823-14.437
				l16.098,6.703l-18.973-18.562l14.948,2.578l-18.973-10.828l12.218,2.062c0,0-14.518-11.343-19.98-22.171
				c-5.462,10.828-19.98,22.171-19.98,22.171l12.218-2.062l-18.973,10.828l14.948-2.578l-18.973,18.562l16.098-6.703l-17.823,14.437
				l16.098-4.641l-23.574,13.406h12.075l-2.3,7.219l12.217-3.609l-17.967,14.953l14.948-3.609l-8.624,7.219l26.774-6.527v28.698
				h5.672v-28.698l26.774,6.527l-8.624-7.219l14.948,3.609L759.004,509.951z"/>
			<path style="fill:#1B2F2E;" d="M719.044,501.441l12.218,3.609l-2.3-7.219h12.075l-23.574-13.406l16.098,4.641l-17.823-14.437
				l16.098,6.703l-18.973-18.562l14.948,2.578l-18.973-10.828l12.218,2.063c0,0-14.518-11.343-19.98-22.171
				c-5.462,10.828-19.98,22.171-19.98,22.171l12.218-2.063l-18.973,10.828l14.949-2.578l-18.973,18.562l16.098-6.703l-17.823,14.437
				l16.098-4.641l-23.574,13.406h12.075l-2.3,7.219l12.218-3.609l-17.967,14.953l14.948-3.609l-8.624,7.219l26.774-6.527v28.698
				h5.672v-28.698l26.774,6.527l-8.624-7.219l14.948,3.609L719.044,501.441z"/>
			<path style="fill:#1B2F2E;" d="M377.92,549.392l12.217,3.609l-2.3-7.219h12.075l-23.574-13.406l16.098,4.641l-17.823-14.437
				l16.098,6.703l-18.973-18.562l14.948,2.578l-18.973-10.828l12.218,2.062c0,0-14.518-11.343-19.98-22.171
				c-5.462,10.828-19.98,22.171-19.98,22.171l12.218-2.062l-18.973,10.828l14.948-2.578l-18.973,18.562l16.098-6.703l-17.823,14.437
				l16.098-4.641l-23.574,13.406h12.075l-2.3,7.219l12.217-3.609l-17.967,14.953l14.948-3.609l-8.624,7.219l26.774-6.527v28.698
				h5.672v-28.698l26.774,6.527l-8.624-7.219l14.948,3.609L377.92,549.392z"/>
			<path style="fill:#1B2F2E;" d="M471.23,540.634l12.217,3.609l-2.3-7.219h12.075l-23.574-13.406l16.098,4.64l-17.823-14.437
				l16.098,6.703l-18.973-18.562l14.948,2.578l-18.973-10.828l12.218,2.063c0,0-14.518-11.343-19.98-22.171
				c-5.462,10.828-19.98,22.171-19.98,22.171l12.218-2.063l-18.973,10.828l14.948-2.578l-18.973,18.562l16.098-6.703l-17.823,14.437
				l16.098-4.64l-23.574,13.406h12.075l-2.3,7.219l12.217-3.609l-17.967,14.953l14.948-3.609l-8.624,7.219l26.774-6.527v28.698
				h5.672v-28.698l26.774,6.527l-8.624-7.219l14.949,3.609L471.23,540.634z"/>
			<path style="fill:#1B2F2E;" d="M504.511,540.634l12.217,3.609l-2.3-7.219h12.075l-23.574-13.406l16.098,4.64l-17.823-14.437
				l16.098,6.703l-18.973-18.562l14.948,2.578l-18.973-10.828l12.218,2.063c0,0-14.518-11.343-19.98-22.171
				c-5.462,10.828-19.98,22.171-19.98,22.171l12.218-2.063l-18.973,10.828l14.948-2.578l-18.973,18.562l16.098-6.703l-17.823,14.437
				l16.098-4.64l-23.574,13.406h12.075l-2.3,7.219l12.217-3.609l-17.967,14.953l14.948-3.609l-8.624,7.219l26.774-6.527v28.698
				h5.672v-28.698l26.774,6.527l-8.624-7.219l14.948,3.609L504.511,540.634z"/>
			<path style="fill:#1B2F2E;" d="M406.078,520.13l12.217,3.609l-2.3-7.219h12.075l-23.574-13.406l16.098,4.641l-17.823-14.437
				l16.098,6.703l-18.973-18.562l14.948,2.578l-18.973-10.828l12.218,2.062c0,0-14.518-11.343-19.98-22.171
				c-5.462,10.828-19.98,22.171-19.98,22.171l12.218-2.062l-18.973,10.828l14.948-2.578l-18.973,18.562l16.098-6.703l-17.823,14.437
				l16.098-4.641l-23.574,13.406h12.075l-2.3,7.219l12.217-3.609l-17.967,14.953l14.948-3.609l-8.624,7.219l26.774-6.527v28.698
				h5.672v-28.698l26.774,6.527l-8.624-7.219l14.948,3.609L406.078,520.13z"/>
			<path style="fill:#1B2F2E;" d="M437.64,513.43l12.218,3.609l-2.3-7.219h12.075l-23.574-13.406l16.098,4.641l-17.823-14.437
				l16.098,6.703l-18.973-18.562l14.948,2.578l-18.973-10.828l12.218,2.062c0,0-14.518-11.343-19.98-22.171
				c-5.462,10.828-19.98,22.171-19.98,22.171l12.218-2.062l-18.973,10.828l14.948-2.578l-18.973,18.562l16.098-6.703l-17.823,14.437
				l16.098-4.641l-23.574,13.406h12.075l-2.3,7.219l12.217-3.609l-17.967,14.953l14.948-3.609l-8.624,7.219l26.774-6.527v28.698
				h5.672v-28.698l26.774,6.527l-8.624-7.219l14.949,3.609L437.64,513.43z"/>
			<path style="fill:#1B2F2E;" d="M594.526,503.007l12.218,3.609l-2.3-7.218h12.075l-23.574-13.406l16.098,4.641l-17.823-14.437
				l16.098,6.703l-18.973-18.562l14.948,2.578l-18.973-10.828l12.218,2.062c0,0-14.518-11.343-19.98-22.171
				c-5.462,10.828-19.98,22.171-19.98,22.171l12.218-2.062l-18.973,10.828l14.948-2.578L545.8,482.898l16.098-6.703l-17.823,14.437
				l16.098-4.641l-23.574,13.406h12.075l-2.3,7.218l12.217-3.609l-17.967,14.953l14.948-3.609l-8.624,7.219l26.774-6.527v28.698
				h5.672v-28.698l26.774,6.527l-8.624-7.219l14.948,3.609L594.526,503.007z"/>
			<path style="fill:#1B2F2E;" d="M569.525,544.461l12.217,3.609l-2.3-7.219h12.075l-23.574-13.406l16.098,4.64l-17.823-14.437
				l16.098,6.703l-18.973-18.562l14.948,2.578l-18.973-10.828l12.218,2.063c0,0-14.518-11.343-19.98-22.171
				c-5.462,10.828-19.98,22.171-19.98,22.171l12.218-2.063l-18.973,10.828l14.948-2.578l-18.973,18.562l16.098-6.703l-17.823,14.437
				l16.098-4.64l-23.574,13.406h12.075l-2.3,7.219l12.218-3.609l-17.967,14.953l14.948-3.609l-8.624,7.219l26.774-6.527v28.698
				h5.672v-28.698l26.774,6.527l-8.624-7.219l14.948,3.609L569.525,544.461z"/>
			<path style="fill:#1B2F2E;" d="M575.394,466.249l12.217,3.609l-2.3-7.219h12.075l-23.574-13.406l16.098,4.641l-17.823-14.437
				l16.098,6.703l-18.973-18.562l14.948,2.578l-18.973-10.828l12.218,2.062c0,0-14.518-11.343-19.98-22.171
				c-5.462,10.828-19.98,22.171-19.98,22.171l12.218-2.062l-18.973,10.828l14.948-2.578l-18.973,18.562l16.098-6.703l-17.823,14.437
				l16.098-4.641l-23.574,13.406h12.075l-2.3,7.219l12.218-3.609l-17.967,14.953l14.948-3.609l-8.624,7.219l26.773-6.527v28.698
				h5.672v-28.698l26.774,6.527l-8.624-7.219l14.949,3.609L575.394,466.249z"/>
		</g>
		<path style="opacity:0.44;clip-path:url(#SVGID_00000170988804614467209050000008777911350666202807_);fill:#FFFFFF;" d="
			M440.363,101.845c-1.174-13.762,9.874-26.684,23.2-30.314c13.326-3.63,27.884,0.708,39.121,8.739
			c7.182,5.132,13.39,11.761,21.365,15.545c17.005,8.067,37.263,1.254,53.738-7.847c16.475-9.101,32.498-20.734,51.219-22.68
			c29.82-3.1,60.012,19.199,88.313,9.302c9.612-3.361,17.74-10.181,27.409-13.375c7.56-2.497,15.674-2.65,23.634-2.512
			c11.133,0.193,22.661,1.018,32.478,6.274c15.174,8.123,23.621,24.968,30.621,40.691L440.363,101.845z"/>
		<path style="opacity:0.44;clip-path:url(#SVGID_00000170988804614467209050000008777911350666202807_);fill:#FFFFFF;" d="
			M-133.947,84.027c-1.528-17.909,12.849-34.725,30.191-39.449S-67.471,45.5-52.847,55.95c9.346,6.679,17.425,15.305,27.803,20.229
			c22.129,10.498,48.492,1.632,69.931-10.211s42.292-26.982,66.653-29.514c38.806-4.035,78.096,24.985,114.924,12.105
			c12.508-4.374,23.086-13.249,35.668-17.406c9.837-3.25,20.396-3.449,30.755-3.269c14.488,0.251,29.49,1.325,42.264,8.164
			C354.897,46.619,365.89,68.539,375,89L-133.947,84.027z"/>
		<path style="opacity:0.44;clip-path:url(#SVGID_00000170988804614467209050000008777911350666202807_);fill:#FFFFFF;" d="
			M-95.896,108.268C-81.776,86.316-52.6,75.323-27.505,82.5c10.5,3.003,20.03,8.758,30.451,12.026
			c14.066,4.412,29.136,4.12,43.851,3.237c9.757-0.586,19.672-1.452,28.747-5.083c11.531-4.614,20.838-13.316,30.621-20.967
			c11.428-8.938,23.989-16.706,37.849-20.994c13.118-4.058,26.999-4.888,40.727-5.201c23.205-0.53,47.077,0.47,68.415,9.604
			c21.338,9.134,40.073,27.898,42.961,50.928L-95.896,108.268z"/>
		<path style="opacity:0.44;clip-path:url(#SVGID_00000170988804614467209050000008777911350666202807_);fill:#FFFFFF;" d="
			M517.104,111.268c14.12-21.952,43.296-32.944,68.391-25.767c10.5,3.003,20.03,8.758,30.451,12.026
			c14.066,4.412,29.136,4.12,43.851,3.237c9.757-0.586,19.672-1.452,28.747-5.083c11.531-4.614,20.838-13.316,30.621-20.967
			c11.428-8.938,23.99-16.706,37.849-20.994c13.118-4.058,26.999-4.888,40.727-5.201c23.205-0.53,47.077,0.47,68.415,9.604
			c21.338,9.134,40.073,27.898,42.961,50.928L517.104,111.268z"/>
	</g>
</g>
</svg>
